<svg xmlns="http://www.w3.org/2000/svg" width="805" height="600"><rect width="805" height="600" x="0" y="0" fill="#FFFFFF" id="background"/><g transform="translate(50,50)" id="visualization"><g id="axis"><g transform="translate(0,500)" fill="none" font-size="10" font-family="sans-serif" text-anchor="middle"><path class="domain" stroke="currentColor" d="M0.5,6V0.5H705.5V6"/><g class="tick" opacity="1" transform="translate(0.5,0)"><line stroke="currentColor" y2="6"/><text fill="currentColor" y="9" dy="0.71em">0</text></g><g class="tick" opacity="1" transform="translate(71.5,0)"><line stroke="currentColor" y2="6"/><text fill="currentColor" y="9" dy="0.71em">5</text></g><g class="tick" opacity="1" transform="translate(141.5,0)"><line stroke="currentColor" y2="6"/><text fill="currentColor" y="9" dy="0.71em">10</text></g><g class="tick" opacity="1" transform="translate(212.5,0)"><line stroke="currentColor" y2="6"/><text fill="currentColor" y="9" dy="0.71em">15</text></g><g class="tick" opacity="1" transform="translate(282.5,0)"><line stroke="currentColor" y2="6"/><text fill="currentColor" y="9" dy="0.71em">20</text></g><g class="tick" opacity="1" transform="translate(353.5,0)"><line stroke="currentColor" y2="6"/><text fill="currentColor" y="9" dy="0.71em">25</text></g><g class="tick" opacity="1" transform="translate(423.5,0)"><line stroke="currentColor" y2="6"/><text fill="currentColor" y="9" dy="0.71em">30</text></g><g class="tick" opacity="1" transform="translate(493.5,0)"><line stroke="currentColor" y2="6"/><text fill="currentColor" y="9" dy="0.71em">35</text></g><g class="tick" opacity="1" transform="translate(564.5,0)"><line stroke="currentColor" y2="6"/><text fill="currentColor" y="9" dy="0.71em">40</text></g><g class="tick" opacity="1" transform="translate(635.5,0)"><line stroke="currentColor" y2="6"/><text fill="currentColor" y="9" dy="0.71em">45</text></g><g class="tick" opacity="1" transform="translate(705.5,0)"><line stroke="currentColor" y2="6"/><text fill="currentColor" y="9" dy="0.71em">50</text></g><text x="705" dy="-5" text-anchor="end" style="font-family: Arial, sans-serif; font-size: 12px; fill: rgb(123, 123, 123); font-weight: bold;"/></g><g fill="none" font-size="10" font-family="sans-serif" text-anchor="end"><path class="domain" stroke="currentColor" d="M-6,500.5H0.5V0.5H-6"/><g class="tick" opacity="1" transform="translate(0,500.5)"><line stroke="currentColor" x2="-6"/><text fill="currentColor" x="-9" dy="0.32em">0.0</text></g><g class="tick" opacity="1" transform="translate(0,450.5)"><line stroke="currentColor" x2="-6"/><text fill="currentColor" x="-9" dy="0.32em">0.1</text></g><g class="tick" opacity="1" transform="translate(0,400.5)"><line stroke="currentColor" x2="-6"/><text fill="currentColor" x="-9" dy="0.32em">0.2</text></g><g class="tick" opacity="1" transform="translate(0,350.5)"><line stroke="currentColor" x2="-6"/><text fill="currentColor" x="-9" dy="0.32em">0.3</text></g><g class="tick" opacity="1" transform="translate(0,300.5)"><line stroke="currentColor" x2="-6"/><text fill="currentColor" x="-9" dy="0.32em">0.4</text></g><g class="tick" opacity="1" transform="translate(0,250.5)"><line stroke="currentColor" x2="-6"/><text fill="currentColor" x="-9" dy="0.32em">0.5</text></g><g class="tick" opacity="1" transform="translate(0,200.5)"><line stroke="currentColor" x2="-6"/><text fill="currentColor" x="-9" dy="0.32em">0.6</text></g><g class="tick" opacity="1" transform="translate(0,150.5)"><line stroke="currentColor" x2="-6"/><text fill="currentColor" x="-9" dy="0.32em">0.7</text></g><g class="tick" opacity="1" transform="translate(0,100.5)"><line stroke="currentColor" x2="-6"/><text fill="currentColor" x="-9" dy="0.32em">0.8</text></g><g class="tick" opacity="1" transform="translate(0,50.5)"><line stroke="currentColor" x2="-6"/><text fill="currentColor" x="-9" dy="0.32em">0.9</text></g><g class="tick" opacity="1" transform="translate(0,0.5)"><line stroke="currentColor" x2="-6"/><text fill="currentColor" x="-9" dy="0.32em">1.0</text></g><text x="4" text-anchor="start" dominant-baseline="hanging" style="font-family: Arial, sans-serif; font-size: 12px; fill: rgb(123, 123, 123); font-weight: bold;">valence</text></g></g><g id="viz"><g><circle cx="0" cy="333" fill="#21ac2f" r="7.5" stroke="none"/></g><g><circle cx="14" cy="230" fill="#21ac2f" r="7.5" stroke="none"/></g><g><circle cx="28" cy="179" fill="#21ac2f" r="7.5" stroke="none"/></g><g><circle cx="42" cy="53" fill="#21ac2f" r="7.5" stroke="none"/></g><g><circle cx="56" cy="160" fill="#21ac2f" r="7.5" stroke="none"/></g><g><circle cx="71" cy="252" fill="#21ac2f" r="7.5" stroke="none"/></g><g><circle cx="85" cy="221" fill="#21ac2f" r="7.5" stroke="none"/></g><g><circle cx="99" cy="326" fill="#21ac2f" r="7.5" stroke="none"/></g><g><circle cx="113" cy="382" fill="#21ac2f" r="7.5" stroke="none"/></g><g><circle cx="127" cy="277" fill="#21ac2f" r="7.5" stroke="none"/></g><g><circle cx="141" cy="213" fill="#21ac2f" r="7.5" stroke="none"/></g><g><circle cx="155" cy="271" fill="#21ac2f" r="7.5" stroke="none"/></g><g><circle cx="169" cy="223" fill="#21ac2f" r="7.5" stroke="none"/></g><g><circle cx="183" cy="326" fill="#21ac2f" r="7.5" stroke="none"/></g><g><circle cx="197" cy="63" fill="#21ac2f" r="7.5" stroke="none"/></g><g><circle cx="212" cy="78" fill="#21ac2f" r="7.5" stroke="none"/></g><g><circle cx="226" cy="409" fill="#21ac2f" r="7.5" stroke="none"/></g><g><circle cx="240" cy="107" fill="#21ac2f" r="7.5" stroke="none"/></g><g><circle cx="254" cy="213" fill="#21ac2f" r="7.5" stroke="none"/></g><g><circle cx="268" cy="231" fill="#21ac2f" r="7.5" stroke="none"/></g><g><circle cx="282" cy="120" fill="#21ac2f" r="7.5" stroke="none"/></g><g><circle cx="296" cy="216" fill="#21ac2f" r="7.5" stroke="none"/></g><g><circle cx="310" cy="168" fill="#21ac2f" r="7.5" stroke="none"/></g><g><circle cx="324" cy="122" fill="#21ac2f" r="7.5" stroke="none"/></g><g><circle cx="338" cy="379" fill="#21ac2f" r="7.5" stroke="none"/></g><g><circle cx="353" cy="126" fill="#21ac2f" r="7.5" stroke="none"/></g><g><circle cx="367" cy="219" fill="#21ac2f" r="7.5" stroke="none"/></g><g><circle cx="381" cy="322" fill="#21ac2f" r="7.5" stroke="none"/></g><g><circle cx="395" cy="153" fill="#21ac2f" r="7.5" stroke="none"/></g><g><circle cx="409" cy="86" fill="#21ac2f" r="7.5" stroke="none"/></g><g><circle cx="423" cy="252" fill="#21ac2f" r="7.5" stroke="none"/></g><g><circle cx="437" cy="266" fill="#21ac2f" r="7.5" stroke="none"/></g><g><circle cx="451" cy="132" fill="#21ac2f" r="7.5" stroke="none"/></g><g><circle cx="465" cy="80" fill="#21ac2f" r="7.5" stroke="none"/></g><g><circle cx="479" cy="335" fill="#21ac2f" r="7.5" stroke="none"/></g><g><circle cx="493" cy="177" fill="#21ac2f" r="7.5" stroke="none"/></g><g><circle cx="508" cy="470" fill="#21ac2f" r="7.5" stroke="none"/></g><g><circle cx="522" cy="37" fill="#21ac2f" r="7.5" stroke="none"/></g><g><circle cx="536" cy="221" fill="#21ac2f" r="7.5" stroke="none"/></g><g><circle cx="550" cy="58" fill="#21ac2f" r="7.5" stroke="none"/></g><g><circle cx="564" cy="285" fill="#21ac2f" r="7.5" stroke="none"/></g><g><circle cx="578" cy="158" fill="#21ac2f" r="7.5" stroke="none"/></g><g><circle cx="592" cy="360" fill="#21ac2f" r="7.5" stroke="none"/></g><g><circle cx="606" cy="157" fill="#21ac2f" r="7.5" stroke="none"/></g><g><circle cx="620" cy="440" fill="#21ac2f" r="7.5" stroke="none"/></g><g><circle cx="635" cy="391" fill="#21ac2f" r="7.5" stroke="none"/></g><g><circle cx="649" cy="231" fill="#21ac2f" r="7.5" stroke="none"/></g><g><circle cx="663" cy="198" fill="#21ac2f" r="7.5" stroke="none"/></g><g><circle cx="677" cy="127" fill="#21ac2f" r="7.5" stroke="none"/></g><g><circle cx="691" cy="277" fill="#21ac2f" r="7.5" stroke="none"/></g></g><g id="labels"><g transform="translate(0,333)"><text x="0" y="0" text-anchor="middle" dominant-baseline="text-before-edge" transform="translate(0,0)" style="stroke-width: 2px; paint-order: stroke; stroke: white; stroke-linecap: round; stroke-linejoin: round; opacity: 1;"><tspan x="0" y="0" dy="0"/></text></g><g transform="translate(14,230)"><text x="0" y="0" text-anchor="middle" dominant-baseline="text-before-edge" transform="translate(0,0)" style="stroke-width: 2px; paint-order: stroke; stroke: white; stroke-linecap: round; stroke-linejoin: round; opacity: 1;"><tspan x="0" y="0" dy="0"/></text></g><g transform="translate(28,179)"><text x="0" y="0" text-anchor="middle" dominant-baseline="text-before-edge" transform="translate(0,0)" style="stroke-width: 2px; paint-order: stroke; stroke: white; stroke-linecap: round; stroke-linejoin: round; opacity: 1;"><tspan x="0" y="0" dy="0"/></text></g><g transform="translate(42,53)"><text x="0" y="0" text-anchor="middle" dominant-baseline="text-before-edge" transform="translate(0,0)" style="stroke-width: 2px; paint-order: stroke; stroke: white; stroke-linecap: round; stroke-linejoin: round; opacity: 1;"><tspan x="0" y="0" dy="0"/></text></g><g transform="translate(56,160)"><text x="0" y="0" text-anchor="middle" dominant-baseline="text-before-edge" transform="translate(0,0)" style="stroke-width: 2px; paint-order: stroke; stroke: white; stroke-linecap: round; stroke-linejoin: round; opacity: 1;"><tspan x="0" y="0" dy="0"/></text></g><g transform="translate(71,252)"><text x="0" y="0" text-anchor="middle" dominant-baseline="text-before-edge" transform="translate(0,0)" style="stroke-width: 2px; paint-order: stroke; stroke: white; stroke-linecap: round; stroke-linejoin: round; opacity: 1;"><tspan x="0" y="0" dy="0"/></text></g><g transform="translate(85,221)"><text x="0" y="0" text-anchor="middle" dominant-baseline="text-before-edge" transform="translate(0,0)" style="stroke-width: 2px; paint-order: stroke; stroke: white; stroke-linecap: round; stroke-linejoin: round; opacity: 1;"><tspan x="0" y="0" dy="0"/></text></g><g transform="translate(99,326)"><text x="0" y="0" text-anchor="middle" dominant-baseline="text-before-edge" transform="translate(0,0)" style="stroke-width: 2px; paint-order: stroke; stroke: white; stroke-linecap: round; stroke-linejoin: round; opacity: 1;"><tspan x="0" y="0" dy="0"/></text></g><g transform="translate(113,382)"><text x="0" y="0" text-anchor="middle" dominant-baseline="text-before-edge" transform="translate(0,0)" style="stroke-width: 2px; paint-order: stroke; stroke: white; stroke-linecap: round; stroke-linejoin: round; opacity: 1;"><tspan x="0" y="0" dy="0"/></text></g><g transform="translate(127,277)"><text x="0" y="0" text-anchor="middle" dominant-baseline="text-before-edge" transform="translate(0,0)" style="stroke-width: 2px; paint-order: stroke; stroke: white; stroke-linecap: round; stroke-linejoin: round; opacity: 1;"><tspan x="0" y="0" dy="0"/></text></g><g transform="translate(141,213)"><text x="0" y="0" text-anchor="middle" dominant-baseline="text-before-edge" transform="translate(0,0)" style="stroke-width: 2px; paint-order: stroke; stroke: white; stroke-linecap: round; stroke-linejoin: round; opacity: 1;"><tspan x="0" y="0" dy="0"/></text></g><g transform="translate(155,271)"><text x="0" y="0" text-anchor="middle" dominant-baseline="text-before-edge" transform="translate(0,0)" style="stroke-width: 2px; paint-order: stroke; stroke: white; stroke-linecap: round; stroke-linejoin: round; opacity: 1;"><tspan x="0" y="0" dy="0"/></text></g><g transform="translate(169,223)"><text x="0" y="0" text-anchor="middle" dominant-baseline="text-before-edge" transform="translate(0,0)" style="stroke-width: 2px; paint-order: stroke; stroke: white; stroke-linecap: round; stroke-linejoin: round; opacity: 1;"><tspan x="0" y="0" dy="0"/></text></g><g transform="translate(183,326)"><text x="0" y="0" text-anchor="middle" dominant-baseline="text-before-edge" transform="translate(0,0)" style="stroke-width: 2px; paint-order: stroke; stroke: white; stroke-linecap: round; stroke-linejoin: round; opacity: 1;"><tspan x="0" y="0" dy="0"/></text></g><g transform="translate(197,63)"><text x="0" y="0" text-anchor="middle" dominant-baseline="text-before-edge" transform="translate(0,0)" style="stroke-width: 2px; paint-order: stroke; stroke: white; stroke-linecap: round; stroke-linejoin: round; opacity: 1;"><tspan x="0" y="0" dy="0"/></text></g><g transform="translate(212,78)"><text x="0" y="0" text-anchor="middle" dominant-baseline="text-before-edge" transform="translate(0,0)" style="stroke-width: 2px; paint-order: stroke; stroke: white; stroke-linecap: round; stroke-linejoin: round; opacity: 1;"><tspan x="0" y="0" dy="0"/></text></g><g transform="translate(226,409)"><text x="0" y="0" text-anchor="middle" dominant-baseline="text-before-edge" transform="translate(0,0)" style="stroke-width: 2px; paint-order: stroke; stroke: white; stroke-linecap: round; stroke-linejoin: round; opacity: 1;"><tspan x="0" y="0" dy="0"/></text></g><g transform="translate(240,107)"><text x="0" y="0" text-anchor="middle" dominant-baseline="text-before-edge" transform="translate(0,0)" style="stroke-width: 2px; paint-order: stroke; stroke: white; stroke-linecap: round; stroke-linejoin: round; opacity: 1;"><tspan x="0" y="0" dy="0"/></text></g><g transform="translate(254,213)"><text x="0" y="0" text-anchor="middle" dominant-baseline="text-before-edge" transform="translate(0,0)" style="stroke-width: 2px; paint-order: stroke; stroke: white; stroke-linecap: round; stroke-linejoin: round; opacity: 1;"><tspan x="0" y="0" dy="0"/></text></g><g transform="translate(268,231)"><text x="0" y="0" text-anchor="middle" dominant-baseline="text-before-edge" transform="translate(0,0)" style="stroke-width: 2px; paint-order: stroke; stroke: white; stroke-linecap: round; stroke-linejoin: round; opacity: 1;"><tspan x="0" y="0" dy="0"/></text></g><g transform="translate(282,120)"><text x="0" y="0" text-anchor="middle" dominant-baseline="text-before-edge" transform="translate(0,0)" style="stroke-width: 2px; paint-order: stroke; stroke: white; stroke-linecap: round; stroke-linejoin: round; opacity: 1;"><tspan x="0" y="0" dy="0"/></text></g><g transform="translate(296,216)"><text x="0" y="0" text-anchor="middle" dominant-baseline="text-before-edge" transform="translate(0,0)" style="stroke-width: 2px; paint-order: stroke; stroke: white; stroke-linecap: round; stroke-linejoin: round; opacity: 1;"><tspan x="0" y="0" dy="0"/></text></g><g transform="translate(310,168)"><text x="0" y="0" text-anchor="middle" dominant-baseline="text-before-edge" transform="translate(0,0)" style="stroke-width: 2px; paint-order: stroke; stroke: white; stroke-linecap: round; stroke-linejoin: round; opacity: 1;"><tspan x="0" y="0" dy="0"/></text></g><g transform="translate(324,122)"><text x="0" y="0" text-anchor="middle" dominant-baseline="text-before-edge" transform="translate(0,0)" style="stroke-width: 2px; paint-order: stroke; stroke: white; stroke-linecap: round; stroke-linejoin: round; opacity: 1;"><tspan x="0" y="0" dy="0"/></text></g><g transform="translate(338,379)"><text x="0" y="0" text-anchor="middle" dominant-baseline="text-before-edge" transform="translate(0,0)" style="stroke-width: 2px; paint-order: stroke; stroke: white; stroke-linecap: round; stroke-linejoin: round; opacity: 1;"><tspan x="0" y="0" dy="0"/></text></g><g transform="translate(353,126)"><text x="0" y="0" text-anchor="middle" dominant-baseline="text-before-edge" transform="translate(0,0)" style="stroke-width: 2px; paint-order: stroke; stroke: white; stroke-linecap: round; stroke-linejoin: round; opacity: 1;"><tspan x="0" y="0" dy="0"/></text></g><g transform="translate(367,219)"><text x="0" y="0" text-anchor="middle" dominant-baseline="text-before-edge" transform="translate(0,0)" style="stroke-width: 2px; paint-order: stroke; stroke: white; stroke-linecap: round; stroke-linejoin: round; opacity: 1;"><tspan x="0" y="0" dy="0"/></text></g><g transform="translate(381,322)"><text x="0" y="0" text-anchor="middle" dominant-baseline="text-before-edge" transform="translate(0,0)" style="stroke-width: 2px; paint-order: stroke; stroke: white; stroke-linecap: round; stroke-linejoin: round; opacity: 1;"><tspan x="0" y="0" dy="0"/></text></g><g transform="translate(395,153)"><text x="0" y="0" text-anchor="middle" dominant-baseline="text-before-edge" transform="translate(0,0)" style="stroke-width: 2px; paint-order: stroke; stroke: white; stroke-linecap: round; stroke-linejoin: round; opacity: 1;"><tspan x="0" y="0" dy="0"/></text></g><g transform="translate(409,86)"><text x="0" y="0" text-anchor="middle" dominant-baseline="text-before-edge" transform="translate(0,0)" style="stroke-width: 2px; paint-order: stroke; stroke: white; stroke-linecap: round; stroke-linejoin: round; opacity: 1;"><tspan x="0" y="0" dy="0"/></text></g><g transform="translate(423,252)"><text x="0" y="0" text-anchor="middle" dominant-baseline="text-before-edge" transform="translate(0,0)" style="stroke-width: 2px; paint-order: stroke; stroke: white; stroke-linecap: round; stroke-linejoin: round; opacity: 1;"><tspan x="0" y="0" dy="0"/></text></g><g transform="translate(437,266)"><text x="0" y="0" text-anchor="middle" dominant-baseline="text-before-edge" transform="translate(0,0)" style="stroke-width: 2px; paint-order: stroke; stroke: white; stroke-linecap: round; stroke-linejoin: round; opacity: 1;"><tspan x="0" y="0" dy="0"/></text></g><g transform="translate(451,132)"><text x="0" y="0" text-anchor="middle" dominant-baseline="text-before-edge" transform="translate(0,0)" style="stroke-width: 2px; paint-order: stroke; stroke: white; stroke-linecap: round; stroke-linejoin: round; opacity: 1;"><tspan x="0" y="0" dy="0"/></text></g><g transform="translate(465,80)"><text x="0" y="0" text-anchor="middle" dominant-baseline="text-before-edge" transform="translate(0,0)" style="stroke-width: 2px; paint-order: stroke; stroke: white; stroke-linecap: round; stroke-linejoin: round; opacity: 1;"><tspan x="0" y="0" dy="0"/></text></g><g transform="translate(479,335)"><text x="0" y="0" text-anchor="middle" dominant-baseline="text-before-edge" transform="translate(0,0)" style="stroke-width: 2px; paint-order: stroke; stroke: white; stroke-linecap: round; stroke-linejoin: round; opacity: 1;"><tspan x="0" y="0" dy="0"/></text></g><g transform="translate(493,177)"><text x="0" y="0" text-anchor="middle" dominant-baseline="text-before-edge" transform="translate(0,0)" style="stroke-width: 2px; paint-order: stroke; stroke: white; stroke-linecap: round; stroke-linejoin: round; opacity: 1;"><tspan x="0" y="0" dy="0"/></text></g><g transform="translate(508,470)"><text x="0" y="0" text-anchor="middle" dominant-baseline="text-before-edge" transform="translate(0,0)" style="stroke-width: 2px; paint-order: stroke; stroke: white; stroke-linecap: round; stroke-linejoin: round; opacity: 1;"><tspan x="0" y="0" dy="0"/></text></g><g transform="translate(522,37)"><text x="0" y="0" text-anchor="middle" dominant-baseline="text-before-edge" transform="translate(0,0)" style="stroke-width: 2px; paint-order: stroke; stroke: white; stroke-linecap: round; stroke-linejoin: round; opacity: 1;"><tspan x="0" y="0" dy="0"/></text></g><g transform="translate(536,221)"><text x="0" y="0" text-anchor="middle" dominant-baseline="text-before-edge" transform="translate(0,0)" style="stroke-width: 2px; paint-order: stroke; stroke: white; stroke-linecap: round; stroke-linejoin: round; opacity: 1;"><tspan x="0" y="0" dy="0"/></text></g><g transform="translate(550,58)"><text x="0" y="0" text-anchor="middle" dominant-baseline="text-before-edge" transform="translate(0,0)" style="stroke-width: 2px; paint-order: stroke; stroke: white; stroke-linecap: round; stroke-linejoin: round; opacity: 1;"><tspan x="0" y="0" dy="0"/></text></g><g transform="translate(564,285)"><text x="0" y="0" text-anchor="middle" dominant-baseline="text-before-edge" transform="translate(0,0)" style="stroke-width: 2px; paint-order: stroke; stroke: white; stroke-linecap: round; stroke-linejoin: round; opacity: 1;"><tspan x="0" y="0" dy="0"/></text></g><g transform="translate(578,158)"><text x="0" y="0" text-anchor="middle" dominant-baseline="text-before-edge" transform="translate(0,0)" style="stroke-width: 2px; paint-order: stroke; stroke: white; stroke-linecap: round; stroke-linejoin: round; opacity: 1;"><tspan x="0" y="0" dy="0"/></text></g><g transform="translate(592,360)"><text x="0" y="0" text-anchor="middle" dominant-baseline="text-before-edge" transform="translate(0,0)" style="stroke-width: 2px; paint-order: stroke; stroke: white; stroke-linecap: round; stroke-linejoin: round; opacity: 1;"><tspan x="0" y="0" dy="0"/></text></g><g transform="translate(606,157)"><text x="0" y="0" text-anchor="middle" dominant-baseline="text-before-edge" transform="translate(0,0)" style="stroke-width: 2px; paint-order: stroke; stroke: white; stroke-linecap: round; stroke-linejoin: round; opacity: 1;"><tspan x="0" y="0" dy="0"/></text></g><g transform="translate(620,440)"><text x="0" y="0" text-anchor="middle" dominant-baseline="text-before-edge" transform="translate(0,0)" style="stroke-width: 2px; paint-order: stroke; stroke: white; stroke-linecap: round; stroke-linejoin: round; opacity: 1;"><tspan x="0" y="0" dy="0"/></text></g><g transform="translate(635,391)"><text x="0" y="0" text-anchor="middle" dominant-baseline="text-before-edge" transform="translate(0,0)" style="stroke-width: 2px; paint-order: stroke; stroke: white; stroke-linecap: round; stroke-linejoin: round; opacity: 1;"><tspan x="0" y="0" dy="0"/></text></g><g transform="translate(649,231)"><text x="0" y="0" text-anchor="middle" dominant-baseline="text-before-edge" transform="translate(0,0)" style="stroke-width: 2px; paint-order: stroke; stroke: white; stroke-linecap: round; stroke-linejoin: round; opacity: 1;"><tspan x="0" y="0" dy="0"/></text></g><g transform="translate(663,198)"><text x="0" y="0" text-anchor="middle" dominant-baseline="text-before-edge" transform="translate(0,0)" style="stroke-width: 2px; paint-order: stroke; stroke: white; stroke-linecap: round; stroke-linejoin: round; opacity: 1;"><tspan x="0" y="0" dy="0"/></text></g><g transform="translate(677,127)"><text x="0" y="0" text-anchor="middle" dominant-baseline="text-before-edge" transform="translate(0,0)" style="stroke-width: 2px; paint-order: stroke; stroke: white; stroke-linecap: round; stroke-linejoin: round; opacity: 1;"><tspan x="0" y="0" dy="0"/></text></g><g transform="translate(691,277)"><text x="0" y="0" text-anchor="middle" dominant-baseline="text-before-edge" transform="translate(0,0)" style="stroke-width: 2px; paint-order: stroke; stroke: white; stroke-linecap: round; stroke-linejoin: round; opacity: 1;"><tspan x="0" y="0" dy="0"/></text></g></g></g></svg>