<?xml version="1.0" standalone="no"?><!DOCTYPE svg PUBLIC "-//W3C//DTD SVG 1.1//EN" "http://www.w3.org/Graphics/SVG/1.1/DTD/svg11.dtd"><svg xmlns:xlink="http://www.w3.org/1999/xlink" version="1.1" style="font-family:dosis, sans-serif;font-size:12px;" xmlns="http://www.w3.org/2000/svg" width="600" height="400"><desc>Created with Highcharts 4.2.7</desc><defs><linearGradient x1="0" y1="0" x2="0" y2="1" id="highcharts-131"><stop offset="0" stop-color="#ffffff" stop-opacity="0.8"></stop><stop offset="1" stop-color="none" stop-opacity="0.8"></stop></linearGradient><clipPath id="highcharts-132"><rect x="1" y="1" width="578" height="290"></rect></clipPath></defs><rect x="10" y="10" width="580" height="292" fill="none"></rect><rect x="10" y="10" width="580" height="292" stroke="none" stroke-width="2" fill="none"></rect><g class="highcharts-series-group"><g class="highcharts-series highcharts-series-0" transform="translate(10,10) scale(1 1)"><path fill="#f6a1e4" d="M 269.978614313612 43.00000217784566 A 105 105 0 0 1 283.0696279057803 43.816580847025136 L 270 148 A 0 0 0 0 0 270 148 Z" stroke="#FFFFFF" stroke-width="1" stroke-linejoin="round" transform="translate(0,0)"></path><path fill="#0372bb" d="M 283.17380477275594 43.82970256445789 A 105 105 0 0 1 296.05842242349917 46.28491448758216 L 270 148 A 0 0 0 0 0 270 148 Z" stroke="#FFFFFF" stroke-width="1" stroke-linejoin="round" transform="translate(0,0)"></path><path fill="#DDDF00" d="M 296.16012446284896 46.311023763201106 A 105 105 0 0 1 308.53640710778865 50.327356300636694 L 270 148 A 0 0 0 0 0 270 148 Z" stroke="#FFFFFF" stroke-width="1" stroke-linejoin="round" transform="translate(0,0)"></path><path fill="#e59324" d="M 308.63406046700726 50.365941537639515 A 105 105 0 0 1 320.505124879074 55.944406139826896 L 270 148 A 0 0 0 0 0 270 148 Z" stroke="#FFFFFF" stroke-width="1" stroke-linejoin="round" transform="translate(0,0)"></path><path fill="#e564d0" d="M 320.59715520503124 55.994957284081536 A 105 105 0 0 1 331.6730835335759 63.02099807916919 L 270 148 A 0 0 0 0 0 270 148 Z" stroke="#FFFFFF" stroke-width="1" stroke-linejoin="round" transform="translate(0,0)"></path><path fill="#cf55ff" d="M 331.7580316847944 63.08271364192133 A 105 105 0 0 1 341.7866240206759 71.37310777726844 L 270 148 A 0 0 0 0 0 270 148 Z" stroke="#FFFFFF" stroke-width="1" stroke-linejoin="round" transform="translate(0,0)"></path><path fill="#FFF263" d="M 341.86321500681845 71.4449327027676 A 105 105 0 0 1 350.8469968939356 81.00176798428211 L 270 148 A 0 0 0 0 0 270 148 Z" stroke="#FFFFFF" stroke-width="1" stroke-linejoin="round" transform="translate(0,0)"></path><path fill="#ff0000" d="M 350.91395469128986 81.08264846681476 A 105 105 0 0 1 358.62554005224285 91.69268563988959 L 270 148 A 0 0 0 0 0 270 148 Z" stroke="#FFFFFF" stroke-width="1" stroke-linejoin="round" transform="translate(0,0)"></path><path fill="#ffffff" d="M 358.68180304445207 91.78133931882576 A 105 105 0 0 1 364.9541535022598 103.18137962108516 L 270 148 A 0 0 0 0 0 270 148 Z" stroke="#FFFFFF" stroke-width="1" stroke-linejoin="round" transform="translate(0,0)"></path><path fill="#ffe8ba" d="M 364.9989246380962 103.27635616807004 A 105 105 0 0 1 369.8336197859756 115.46927052110169 L 270 148 A 0 0 0 0 0 270 148 Z" stroke="#FFFFFF" stroke-width="1" stroke-linejoin="round" transform="translate(0,0)"></path><path fill="#21b5bc" d="M 369.866100593227 115.56912038961212 A 105 105 0 0 1 374.78503339029913 141.28458658056752 L 270 148 A 0 0 0 0 0 270 148 Z" stroke="#FFFFFF" stroke-width="1" stroke-linejoin="round" transform="translate(0,0)"></path><path fill="#1eb257" d="M 374.791696410087 141.3893749542001 A 105 105 0 0 1 373.1694711533421 167.52076386670646 L 270 148 A 0 0 0 0 0 270 148 Z" stroke="#FFFFFF" stroke-width="1" stroke-linejoin="round" transform="translate(0,0)"></path><path fill="#1AADCE" d="M 373.1498988079976 167.62392356028377 A 105 105 0 0 1 350.9808315746962 214.83640413330664 L 270 148 A 0 0 0 0 0 270 148 Z" stroke="#FFFFFF" stroke-width="1" stroke-linejoin="round" transform="translate(0,0)"></path><path fill="#B3DE59" d="M 350.91395469128986 214.91735153318524 A 105 105 0 0 1 296.2618003420764 249.6627652722122 L 270 148 A 0 0 0 0 0 270 148 Z" stroke="#FFFFFF" stroke-width="1" stroke-linejoin="round" transform="translate(0,0)"></path><path fill="#B34E65" d="M 296.16012446284896 249.6889762367989 A 105 105 0 0 1 166.8814861132696 167.78818065897386 L 270 148 A 0 0 0 0 0 270 148 Z" stroke="#FFFFFF" stroke-width="1" stroke-linejoin="round" transform="translate(0,0)"></path><path fill="#50B432" d="M 166.8617494951613 167.68505226818405 A 105 105 0 0 1 269.8541571065025 43.00010128647544 L 270 148 A 0 0 0 0 0 270 148 Z" stroke="#FFFFFF" stroke-width="1" stroke-linejoin="round" transform="translate(0,0)"></path></g><g class="highcharts-markers highcharts-series-0" transform="translate(10,10) scale(1 1)"></g></g><g class="highcharts-data-labels highcharts-series-0" transform="translate(10,10) scale(1 1)" opacity="1"><path fill="none" d="M 282.97672013645735 12.5 C 277.97672013645735 12.5 277.47439598022277 20.750605489609512 276.78370026540034 31.728899502320502 L 276.0930045505779 42.70719351503149" stroke="#f6a1e4" stroke-width="1"></path><path fill="none" d="M 351.3374908491942 36.5 C 346.3374908491942 36.5 293.29742695238696 22.749519157456533 291.236232491944 33.55467891547211 L 289.17503803150106 44.35983867348769" stroke="#0372bb" stroke-width="1"></path><path fill="none" d="M 377.7279032045115 60.5 C 372.7279032045115 60.5 308.74515828561834 26.7158224305155 305.3459713474939 37.17744410976219 L 301.94678440936946 47.63906578900888" stroke="#DDDF00" stroke-width="1"></path><path fill="none" d="M 393.8984924527944 84.5 C 388.8984924527944 84.5 323.57397002876417 32.58696433681553 318.8903978215484 42.54006191394174 L 314.2068256143326 52.493159491067956" stroke="#e59324" stroke-width="1"></path><path fill="none" d="M 403.74395537122814 108.5 C 398.74395537122814 108.5 337.55000296233254 40.270353461244085 331.6559082175636 49.55796064176625 L 325.76181347279464 58.845567822288416" stroke="#e564d0" stroke-width="1"></path><path fill="none" d="M 408.66407864998735 132.5 C 403.66407864998735 132.5 350.45284669808365 49.64481816747478 343.44118281084803 58.12046383800846 L 336.4295189236124 66.59610950854214" stroke="#cf55ff" stroke-width="1"></path><path fill="none" d="M 409.19966592386186 156.5 C 404.19966592386186 156.5 362.0790156825192 60.56251754705653 354.0603607808837 68.09253571227211 L 346.0417058792482 75.62255387748769" stroke="#FFF263" stroke-width="1"></path><path fill="none" d="M 405.4045453756286 180.5 C 400.4045453756286 180.5 372.24515828561834 72.85127295885593 363.3459713474939 79.31691073407313 L 354.44678440936946 85.78254850929034" stroke="#ff0000" stroke-width="1"></path><path fill="none" d="M 396.8764683262268 204.5 C 391.8764683262268 204.5 394.2504808425435 123.70257304761296 383.4453210845279 125.76376750805593 L 372.6401613265123 127.82496196849891" stroke="#21b5bc" stroke-width="1"></path><path fill="none" d="M 382.5 228.5 C 377.5 228.5 396.2493945103905 155.4743959802228 385.2711004976795 154.78370026540034 L 374.29280648496854 154.0930045505779" stroke="#1eb257" stroke-width="1"></path><path fill="none" d="M 359.3528137423857 252.5 C 354.3528137423857 252.5 384.41303566318453 201.57397002876422 374.4599380860583 196.89039782154842 L 364.50684050893204 192.20682561433262" stroke="#1AADCE" stroke-width="1"></path><path fill="none" d="M 314.29949748426475 276.5 C 309.29949748426475 276.5 337.55000296233254 254.7296465387559 331.6559082175636 245.44203935823373 L 325.76181347279464 236.15443217771156" stroke="#B3DE59" stroke-width="1"></path><path fill="none" d="M 192.1633826778355 261.4842699427721 C 197.1633826778355 261.4842699427721 201.44999703766746 254.72964653875596 207.3440917824364 245.44203935823379 L 213.23818652720536 236.1544321777116" stroke="#B34E65" stroke-width="1"></path><path fill="none" d="M 160.48071222526843 61.4477613839269 C 165.48071222526843 61.4477613839269 171.64481816747477 66.54715330191642 180.12046383800845 73.55881718915201 L 188.59610950854213 80.5704810763876" stroke="#50B432" stroke-width="1"></path><g style="cursor:pointer;" transform="translate(288,3)"><text x="5" style="font-size:12px;font-weight:bold;font-family:'arial', sans-serif;color:#ffffff;text-shadow:none;fill:#ffffff;text-rendering:geometricprecision;" y="17"><tspan>Alternative/Reggaeton/Experimental: 1</tspan></text></g><g style="cursor:pointer;" transform="translate(356,27)"><text x="5" style="font-size:12px;font-weight:bold;font-family:'arial', sans-serif;color:#ffffff;text-shadow:none;fill:#ffffff;text-rendering:geometricprecision;" y="17"><tspan>Chamber Pop: 1</tspan></text></g><g style="cursor:pointer;" transform="translate(383,51)"><text x="5" style="font-size:12px;font-weight:bold;font-family:'arial', sans-serif;color:#ffffff;text-shadow:none;fill:#ffffff;text-rendering:geometricprecision;" y="17"><tspan>Dance-Pop/Disco: 1</tspan></text></g><g style="cursor:pointer;" transform="translate(399,75)"><text x="5" style="font-size:12px;font-weight:bold;font-family:'arial', sans-serif;color:#ffffff;text-shadow:none;fill:#ffffff;text-rendering:geometricprecision;" y="17"><tspan>Disco-Pop: 1</tspan></text></g><g style="cursor:pointer;" transform="translate(409,99)"><text x="5" style="font-size:12px;font-weight:bold;font-family:'arial', sans-serif;color:#ffffff;text-shadow:none;fill:#ffffff;text-rendering:geometricprecision;" y="17"><tspan>Dreampop/Hip-Hop/R&amp;B: 1</tspan></text></g><g style="cursor:pointer;" transform="translate(414,123)"><text x="5" style="font-size:12px;font-weight:bold;font-family:'arial', sans-serif;color:#ffffff;text-shadow:none;fill:#ffffff;text-rendering:geometricprecision;" y="17"><tspan>Hip-Hop/Trap: 1</tspan></text></g><g style="cursor:pointer;" transform="translate(414,147)"><text x="5" style="font-size:12px;font-weight:bold;font-family:'arial', sans-serif;color:#ffffff;text-shadow:none;fill:#ffffff;text-rendering:geometricprecision;" y="17"><tspan>Nu-Disco: 1</tspan></text></g><g style="cursor:pointer;" transform="translate(410,171)"><text x="5" style="font-size:12px;font-weight:bold;font-family:'arial', sans-serif;color:#ffffff;text-shadow:none;fill:#ffffff;text-rendering:geometricprecision;" y="17"><tspan>Pop Rap: 1</tspan></text></g><g style="cursor:pointer;" transform="translate(0,-9999)"><text x="5" style="font-size:12px;font-weight:bold;font-family:'arial', sans-serif;color:#ffffff;text-shadow:none;fill:#ffffff;text-rendering:geometricprecision;" y="17"><tspan>Pop/Soft Rock: 1</tspan></text></g><g style="cursor:pointer;" transform="translate(0,-9999)"><text x="5" style="font-size:12px;font-weight:bold;font-family:'arial', sans-serif;color:#ffffff;text-shadow:none;fill:#ffffff;text-rendering:geometricprecision;" y="17"><tspan>R&amp;B/Hip-Hop Alternative: 1</tspan></text></g><g style="cursor:pointer;" transform="translate(402,195)"><text x="5" style="font-size:12px;font-weight:bold;font-family:'arial', sans-serif;color:#ffffff;text-shadow:none;fill:#ffffff;text-rendering:geometricprecision;" y="17"><tspan>Electro-Pop: 2</tspan></text></g><g style="cursor:pointer;" transform="translate(388,219)"><text x="5" style="font-size:12px;font-weight:bold;font-family:'arial', sans-serif;color:#ffffff;text-shadow:none;fill:#ffffff;text-rendering:geometricprecision;" y="17"><tspan>R&amp;B/Soul: 2</tspan></text></g><g style="cursor:pointer;" transform="translate(364,243)"><text x="5" style="font-size:12px;font-weight:bold;font-family:'arial', sans-serif;color:#ffffff;text-shadow:none;fill:#ffffff;text-rendering:geometricprecision;" y="17"><tspan>Alternative/Indie: 4</tspan></text></g><g style="cursor:pointer;" transform="translate(319,267)"><text x="5" style="font-size:12px;font-weight:bold;font-family:'arial', sans-serif;color:#ffffff;text-shadow:none;fill:#ffffff;text-rendering:geometricprecision;" y="17"><tspan>Dance/Electronic: 5</tspan></text></g><g style="cursor:pointer;" transform="translate(84,251)"><text x="5" style="font-size:12px;font-weight:bold;font-family:'arial', sans-serif;color:#ffffff;text-shadow:none;fill:#ffffff;text-rendering:geometricprecision;" y="17"><tspan>Hip-Hop/Rap: 13</tspan></text></g><g style="cursor:pointer;" transform="translate(102,51)"><text x="5" style="font-size:12px;font-weight:bold;font-family:'arial', sans-serif;color:#ffffff;text-shadow:none;fill:#ffffff;text-rendering:geometricprecision;" y="17"><tspan>Pop: 14</tspan></text></g></g><g class="highcharts-legend" transform="translate(24,314)"><g><g><g class="highcharts-legend-item" transform="translate(8,3)"><text x="21" style="color:#ffffff;font-size:9pt;font-weight:normal;cursor:pointer;font-family:'lucida grande','lucida sans unicode',arial,helvetica,sans-serif;text-transform:none;fill:#ffffff;" text-anchor="start" y="15">Alternative/Reggaeton/Experimental</text><rect x="0" y="4" width="16" height="12" fill="#f6a1e4"></rect></g><g class="highcharts-legend-item" transform="translate(262.609375,3)"><text x="21" y="15" style="color:#ffffff;font-size:9pt;font-weight:normal;cursor:pointer;font-family:'lucida grande','lucida sans unicode',arial,helvetica,sans-serif;text-transform:none;fill:#ffffff;" text-anchor="start"><tspan>Chamber Pop</tspan></text><rect x="0" y="4" width="16" height="12" fill="#0372bb"></rect></g><g class="highcharts-legend-item" transform="translate(381.703125,3)"><text x="21" y="15" style="color:#ffffff;font-size:9pt;font-weight:normal;cursor:pointer;font-family:'lucida grande','lucida sans unicode',arial,helvetica,sans-serif;text-transform:none;fill:#ffffff;" text-anchor="start">Dance-Pop/Disco</text><rect x="0" y="4" width="16" height="12" fill="#DDDF00"></rect></g><g class="highcharts-legend-item" transform="translate(8,18)"><text x="21" y="15" style="color:#ffffff;font-size:9pt;font-weight:normal;cursor:pointer;font-family:'lucida grande','lucida sans unicode',arial,helvetica,sans-serif;text-transform:none;fill:#ffffff;" text-anchor="start">Disco-Pop</text><rect x="0" y="4" width="16" height="12" fill="#e59324"></rect></g><g class="highcharts-legend-item" transform="translate(109.59375,18)"><text x="21" y="15" style="color:#ffffff;font-size:9pt;font-weight:normal;cursor:pointer;font-family:'lucida grande','lucida sans unicode',arial,helvetica,sans-serif;text-transform:none;fill:#ffffff;" text-anchor="start">Dreampop/Hip-Hop/R&amp;B</text><rect x="0" y="4" width="16" height="12" fill="#e564d0"></rect></g><g class="highcharts-legend-item" transform="translate(297.453125,18)"><text x="21" y="15" style="color:#ffffff;font-size:9pt;font-weight:normal;cursor:pointer;font-family:'lucida grande','lucida sans unicode',arial,helvetica,sans-serif;text-transform:none;fill:#ffffff;" text-anchor="start">Hip-Hop/Trap</text><rect x="0" y="4" width="16" height="12" fill="#cf55ff"></rect></g><g class="highcharts-legend-item" transform="translate(421.953125,18)"><text x="21" y="15" style="color:#ffffff;font-size:9pt;font-weight:normal;cursor:pointer;font-family:'lucida grande','lucida sans unicode',arial,helvetica,sans-serif;text-transform:none;fill:#ffffff;" text-anchor="start">Nu-Disco</text><rect x="0" y="4" width="16" height="12" fill="#FFF263"></rect></g><g class="highcharts-legend-item" transform="translate(8,33)"><text x="21" y="15" style="color:#ffffff;font-size:9pt;font-weight:normal;cursor:pointer;font-family:'lucida grande','lucida sans unicode',arial,helvetica,sans-serif;text-transform:none;fill:#ffffff;" text-anchor="start"><tspan>Pop Rap</tspan></text><rect x="0" y="4" width="16" height="12" fill="#ff0000"></rect></g><g class="highcharts-legend-item" transform="translate(96.125,33)"><text x="21" y="15" style="color:#ffffff;font-size:9pt;font-weight:normal;cursor:pointer;font-family:'lucida grande','lucida sans unicode',arial,helvetica,sans-serif;text-transform:none;fill:#ffffff;" text-anchor="start"><tspan>Pop/Soft Rock</tspan></text><rect x="0" y="4" width="16" height="12" fill="#ffffff"></rect></g><g class="highcharts-legend-item" transform="translate(219.625,33)"><text x="21" y="15" style="color:#ffffff;font-size:9pt;font-weight:normal;cursor:pointer;font-family:'lucida grande','lucida sans unicode',arial,helvetica,sans-serif;text-transform:none;fill:#ffffff;" text-anchor="start"><tspan>R&amp;B/Hip-Hop Alternative</tspan></text><rect x="0" y="4" width="16" height="12" fill="#ffe8ba"></rect></g><g class="highcharts-legend-item" transform="translate(406.859375,33)"><text x="21" y="15" style="color:#ffffff;font-size:9pt;font-weight:normal;cursor:pointer;font-family:'lucida grande','lucida sans unicode',arial,helvetica,sans-serif;text-transform:none;fill:#ffffff;" text-anchor="start">Electro-Pop</text><rect x="0" y="4" width="16" height="12" fill="#21b5bc"></rect></g><g class="highcharts-legend-item" transform="translate(8,48)"><text x="21" y="15" style="color:#ffffff;font-size:9pt;font-weight:normal;cursor:pointer;font-family:'lucida grande','lucida sans unicode',arial,helvetica,sans-serif;text-transform:none;fill:#ffffff;" text-anchor="start">R&amp;B/Soul</text><rect x="0" y="4" width="16" height="12" fill="#1eb257"></rect></g><g class="highcharts-legend-item" transform="translate(102.90625,48)"><text x="21" y="15" style="color:#ffffff;font-size:9pt;font-weight:normal;cursor:pointer;font-family:'lucida grande','lucida sans unicode',arial,helvetica,sans-serif;text-transform:none;fill:#ffffff;" text-anchor="start">Alternative/Indie</text><rect x="0" y="4" width="16" height="12" fill="#1AADCE"></rect></g><g class="highcharts-legend-item" transform="translate(241.578125,48)"><text x="21" y="15" style="color:#ffffff;font-size:9pt;font-weight:normal;cursor:pointer;font-family:'lucida grande','lucida sans unicode',arial,helvetica,sans-serif;text-transform:none;fill:#ffffff;" text-anchor="start">Dance/Electronic</text><rect x="0" y="4" width="16" height="12" fill="#B3DE59"></rect></g><g class="highcharts-legend-item" transform="translate(381.40625,48)"><text x="21" y="15" style="color:#ffffff;font-size:9pt;font-weight:normal;cursor:pointer;font-family:'lucida grande','lucida sans unicode',arial,helvetica,sans-serif;text-transform:none;fill:#ffffff;" text-anchor="start">Hip-Hop/Rap</text><rect x="0" y="4" width="16" height="12" fill="#B34E65"></rect></g><g class="highcharts-legend-item" transform="translate(501,48)"><text x="21" y="15" style="color:#ffffff;font-size:9pt;font-weight:normal;cursor:pointer;font-family:'lucida grande','lucida sans unicode',arial,helvetica,sans-serif;text-transform:none;fill:#ffffff;" text-anchor="start">Pop</text><rect x="0" y="4" width="16" height="12" fill="#50B432"></rect></g></g></g></g><g class="highcharts-tooltip" display="none" style="cursor:default;padding:0;pointer-events:none;white-space:nowrap;" transform="translate(0,0)"><path fill="url(#highcharts-131)" d="M 3 0 L 13 0 C 16 0 16 0 16 3 L 16 13 C 16 16 16 16 13 16 L 3 16 C 0 16 0 16 0 13 L 0 3 C 0 0 0 0 3 0"></path><text x="8" style="font-size:12px;color:none;fill:none;" y="20"></text></g><text x="590" text-anchor="end" style="cursor:pointer;color:#333;font-size:9px;fill:#333;" y="395">meta-chart.com</text></svg>