<?xml version="1.0" standalone="no"?>
<!DOCTYPE svg PUBLIC "-//W3C//DTD SVG 20010904//EN"
 "http://www.w3.org/TR/2001/REC-SVG-20010904/DTD/svg10.dtd">
<svg version="1.0" xmlns="http://www.w3.org/2000/svg"
 width="543.000000pt" height="543.000000pt" viewBox="0 0 543.000000 543.000000"
 preserveAspectRatio="xMidYMid meet">

<g transform="translate(0.000000,543.000000) scale(0.100000,-0.100000)"
fill="#000000" stroke="none">
<path d="M0 4540 c0 -786 2 -889 15 -884 8 4 15 10 15 15 0 5 4 9 9 9 13 0 22
-79 11 -100 -5 -10 -19 -21 -29 -25 -19 -6 -19 -7 -3 -35 9 -17 31 -37 49 -45
53 -25 83 -65 49 -65 -12 0 -24 -27 -27 -57 0 -5 -5 -14 -11 -21 -16 -19 -3
-25 23 -10 26 15 79 69 79 81 0 5 39 5 88 2 48 -4 101 -7 119 -8 17 -1 35 -5
38 -9 13 -13 -88 -150 -133 -182 -25 -17 -52 -39 -61 -48 -8 -10 -19 -18 -24
-18 -5 0 -31 -16 -57 -35 -26 -19 -52 -35 -58 -35 -17 0 -51 -50 -45 -66 4
-10 -2 -14 -21 -14 -15 0 -26 -6 -26 -13 0 -17 32 -47 49 -47 15 0 42 25 45
43 2 6 11 27 22 46 l19 33 149 -6 c89 -3 168 -1 197 5 82 18 110 76 70 149
-16 29 -24 35 -52 35 l-34 0 -8 85 c-4 48 -13 87 -20 92 -9 6 -9 10 1 20 6 6
12 24 12 39 0 51 17 79 48 79 44 0 72 26 72 66 0 30 5 37 32 49 29 12 37 11
71 -7 31 -15 36 -22 27 -33 -16 -19 -3 -73 21 -86 26 -13 35 11 21 57 -5 19
-7 34 -2 34 10 0 70 -61 70 -71 0 -4 14 -10 30 -14 17 -4 30 -12 30 -19 0 -21
-30 -55 -52 -58 -33 -5 -34 -34 -2 -50 15 -7 34 -27 41 -45 12 -30 11 -34 -14
-64 l-27 -32 32 -28 c18 -16 27 -29 21 -29 -7 0 -9 -12 -5 -33 5 -26 1 -42
-19 -71 -14 -20 -25 -41 -25 -46 0 -20 27 -9 40 15 8 14 24 28 37 31 13 4 46
32 74 63 l52 56 -7 -35 c-3 -19 -15 -43 -25 -55 -24 -25 -39 -64 -33 -87 6
-28 50 -23 64 7 6 14 19 25 30 25 21 0 58 -34 58 -53 0 -8 9 -22 20 -32 20
-18 21 -18 43 4 19 19 22 31 20 101 -1 44 0 80 2 80 9 0 65 -123 65 -143 0
-29 18 -47 45 -47 29 0 45 19 45 51 0 15 7 35 16 44 15 14 17 14 30 -2 7 -10
14 -25 14 -34 0 -9 8 -27 19 -40 16 -21 22 -22 45 -11 21 10 26 18 26 50 0 47
4 52 38 43 21 -6 28 -15 33 -45 3 -21 12 -42 19 -46 23 -14 54 5 57 36 4 34
-25 61 -89 84 -21 8 -38 18 -38 22 0 4 -3 7 -7 7 -22 -4 -33 3 -33 19 0 13 13
20 53 29 83 19 215 36 231 30 11 -4 16 5 21 36 15 102 7 94 87 93 49 -1 73 3
75 12 3 6 11 12 19 12 9 0 12 -5 8 -11 -5 -9 1 -10 22 -5 16 3 47 9 69 13 40
7 40 7 10 13 -26 5 -20 8 40 19 39 8 82 20 97 27 15 8 39 14 53 14 15 0 24 4
20 10 -3 6 3 10 14 10 12 0 21 -6 21 -14 0 -16 -27 -29 -41 -20 -12 7 -51 -21
-41 -31 4 -4 0 -6 -8 -3 -8 3 -53 -7 -100 -22 l-85 -27 -13 -124 c-7 -68 -18
-169 -25 -224 -12 -97 -13 -100 -37 -100 -24 0 -25 2 -22 60 2 33 10 116 18
185 7 69 14 141 14 162 0 33 -2 36 -22 30 -38 -10 -45 -25 -47 -97 -2 -116
-18 -271 -30 -293 -14 -25 -14 -43 -1 -22 8 13 10 13 10 -2 0 -9 -4 -19 -9
-22 -5 -3 -12 -31 -16 -61 -3 -30 -11 -55 -17 -55 -6 0 -32 -23 -58 -50 -26
-28 -50 -50 -54 -50 -6 0 -3 65 10 168 l5 43 -30 -4 c-17 -3 -32 0 -35 6 -3 9
-5 9 -5 0 -1 -7 -8 -10 -17 -6 -23 9 -32 -12 -28 -68 2 -27 1 -49 -3 -50 -5 0
-17 -3 -28 -5 -11 -2 -59 -10 -108 -16 -77 -11 -91 -10 -115 4 -16 10 -37 16
-48 14 -10 -2 -13 -1 -6 1 17 6 15 22 -4 30 -11 4 -22 -1 -30 -12 -8 -10 -14
-13 -14 -7 0 7 -7 12 -15 12 -8 0 -15 -4 -15 -9 0 -11 -30 -19 -48 -14 -6 3
-10 9 -6 14 3 5 -1 16 -9 24 -9 8 -17 20 -19 26 -5 15 -48 -10 -48 -28 0 -7
-11 -15 -25 -19 -14 -3 -25 -10 -25 -14 0 -5 -8 -6 -18 -3 -10 2 -29 -6 -43
-19 -33 -29 -60 -47 -81 -54 -14 -5 -17 -16 -15 -55 3 -52 24 -78 62 -79 30 0
119 -36 123 -49 2 -6 -10 -16 -27 -22 -17 -6 -31 -15 -31 -19 0 -5 -2 -14 -5
-22 -3 -7 6 -18 20 -24 19 -9 27 -9 36 2 10 12 15 12 31 -3 15 -13 23 -15 37
-6 13 8 22 8 29 1 6 -6 22 -7 39 -3 15 5 33 7 38 5 9 -3 41 -7 83 -9 6 -1 12
-8 12 -16 0 -21 -52 -45 -99 -45 -26 0 -43 -6 -49 -16 -7 -12 -35 -16 -148
-20 -76 -2 -152 -7 -167 -10 -43 -9 -59 11 -57 70 1 28 1 57 1 64 -1 8 -25 12
-85 12 -66 0 -85 3 -90 15 -11 30 59 44 124 25 25 -7 36 -7 42 3 5 6 8 57 7
112 -1 55 1 107 5 115 4 9 0 24 -8 35 -15 19 -15 18 -16 -12 0 -18 -5 -33 -11
-33 -6 0 -9 -7 -6 -15 9 -23 -12 -29 -33 -10 -13 12 -18 25 -14 40 3 13 1 26
-5 29 -17 11 -13 41 9 61 13 11 18 25 14 37 -4 13 2 21 21 30 33 15 109 -3
143 -34 28 -27 40 -16 44 42 l3 45 42 -3 c26 -2 43 1 43 7 0 11 -68 15 -220
12 -47 0 -91 5 -118 15 -75 28 -108 -6 -77 -78 11 -27 11 -35 -2 -54 -10 -17
-12 -31 -5 -56 5 -22 4 -41 -4 -56 -11 -23 -12 -22 -28 19 -24 59 -25 158 -1
171 14 8 15 12 4 19 -37 23 -44 12 -46 -77 -1 -79 -4 -89 -29 -115 -18 -18
-39 -29 -63 -31 l-36 -3 -17 -100 c-12 -75 -13 -102 -5 -107 18 -11 125 -9
132 2 9 15 27 12 53 -9 22 -16 22 -19 8 -33 -8 -9 -43 -19 -80 -23 -37 -3 -66
-10 -66 -14 0 -3 13 -12 30 -18 23 -9 30 -18 30 -38 l0 -26 -87 6 c-49 3 -107
11 -131 17 -23 6 -57 8 -76 5 -24 -4 -37 -1 -49 13 -8 10 -24 16 -34 14 -11
-3 -34 10 -62 36 -25 23 -53 40 -67 40 l-24 0 0 -1245 0 -1245 729 0 729 0 6
27 c3 16 8 62 12 104 l6 75 -54 10 c-38 6 -53 13 -51 24 1 8 4 50 8 93 6 72
10 81 38 105 98 83 92 70 105 242 17 213 25 332 24 350 0 8 3 24 8 35 10 22
37 261 71 605 11 118 26 278 34 355 7 77 16 192 20 255 6 100 5 113 -8 96 -10
-14 -20 -17 -45 -11 -18 3 -32 11 -32 16 0 5 -7 9 -16 9 -9 0 -28 10 -42 21
l-27 22 28 -7 c17 -4 35 -2 43 5 9 7 34 10 64 7 55 -5 60 0 60 58 0 32 2 34
35 34 32 0 35 -2 25 -19 -5 -11 -17 -50 -26 -87 -12 -55 -13 -72 -3 -91 7 -13
18 -23 25 -23 18 0 22 -21 29 -125 3 -60 0 -117 -11 -173 -8 -46 -13 -90 -10
-98 3 -8 2 -13 -3 -9 -5 3 -10 -22 -10 -57 0 -35 -3 -88 -5 -118 -3 -30 -8
-84 -12 -120 -3 -36 -8 -76 -9 -90 -2 -14 -6 -44 -9 -68 -3 -23 -10 -68 -17
-98 -11 -47 -10 -57 2 -65 10 -6 10 -9 2 -9 -8 0 -13 -14 -13 -34 0 -19 -4
-36 -8 -38 -10 -4 -79 -166 -93 -218 -16 -57 -19 -90 -9 -90 6 0 10 -7 10 -15
0 -8 11 -22 25 -31 l26 -17 -5 -153 c-3 -85 -10 -163 -16 -173 -6 -11 -9 -56
-6 -100 3 -74 1 -82 -20 -102 -27 -26 -39 -65 -49 -159 -4 -36 -13 -80 -21
-99 -8 -18 -14 -37 -14 -42 0 -5 110 -9 245 -9 245 0 246 0 255 23 l9 22 0
-22 1 -23 1090 0 1090 0 -6 48 c-4 26 -10 67 -15 92 -13 66 -37 246 -42 313
l-4 57 -69 48 c-125 86 -172 126 -144 120 14 -3 34 -9 45 -13 15 -5 17 -4 6 3
-12 9 -10 12 13 18 40 10 106 -22 103 -49 -1 -14 5 -23 17 -25 12 -3 16 0 11
7 -3 6 9 2 27 -9 18 -11 45 -25 61 -31 15 -6 27 -14 27 -18 0 -4 25 -19 55
-35 30 -15 55 -32 55 -38 0 -6 6 -8 14 -5 8 3 20 0 26 -8 9 -11 7 -12 -9 -8
-12 3 -21 1 -21 -6 0 -6 4 -11 9 -11 4 0 9 -12 9 -27 0 -16 4 -45 8 -66 8 -45
-10 -94 -37 -102 -17 -6 -86 31 -148 79 -12 9 -13 5 -7 -29 10 -50 13 -80 15
-150 1 -42 5 -55 16 -55 8 0 15 -8 15 -17 0 -15 2 -16 10 -3 7 11 8 6 4 -17
-8 -39 12 -46 26 -9 12 33 30 42 30 17 0 -12 4 -21 10 -21 5 0 13 -12 17 -28
l7 -27 7 25 c7 24 7 24 8 3 1 -22 5 -23 81 -23 l80 0 0 29 c0 17 4 33 10 36 6
4 10 -8 10 -29 0 -20 3 -36 8 -36 4 0 6 57 5 127 -1 81 1 119 6 103 5 -14 9
-71 10 -127 l1 -103 430 0 430 0 0 481 0 481 -25 20 c-14 11 -25 29 -25 42 0
12 -5 27 -12 34 -14 14 -17 28 -24 99 -4 50 -3 53 22 59 15 4 35 2 46 -5 10
-6 18 -7 18 -3 0 5 -11 15 -25 22 -25 13 -33 30 -15 30 6 0 10 -4 10 -10 0 -5
7 -10 15 -10 8 0 15 4 15 9 0 12 -26 21 -62 21 -19 0 -28 4 -25 13 2 7 21 12
45 12 l42 0 0 709 0 708 -22 -5 c-13 -2 -31 -8 -41 -12 -14 -6 -20 -2 -24 14
-5 19 -12 21 -74 21 -38 0 -69 -4 -69 -8 0 -5 -13 -7 -29 -6 -32 2 -45 -4 -54
-26 -3 -8 -6 14 -6 49 -1 48 -5 67 -19 77 -14 11 -15 16 -4 33 7 13 8 21 2 21
-5 0 -10 -4 -10 -10 0 -5 -5 -10 -11 -10 -6 0 -9 7 -5 15 4 10 -1 15 -14 15
-17 0 -18 -3 -8 -25 15 -33 3 -45 -51 -55 -32 -6 -50 -3 -81 12 -39 20 -60 18
-60 -6 0 -21 -42 -35 -67 -23 -13 6 -23 16 -23 22 0 7 10 20 23 28 16 12 19
18 10 24 -8 6 -9 14 -3 23 19 29 11 40 -22 34 l-33 -6 33 32 c31 29 33 32 20
60 -7 17 -18 30 -24 30 -13 0 -28 -29 -25 -47 2 -15 -16 -17 -21 -3 -2 7 -15
7 -37 0 -38 -11 -51 -2 -51 33 0 11 -14 32 -30 47 -17 16 -30 38 -30 52 0 18
-2 20 -10 8 -7 -11 -8 -5 -4 19 5 23 3 36 -7 43 -11 7 -11 11 -1 15 6 2 12 11
12 18 0 15 -62 31 -79 21 -5 -4 -14 2 -20 11 -8 16 -11 15 -21 -11 -6 -16 -9
-35 -6 -42 8 -20 -26 -43 -50 -34 -24 9 -38 36 -24 45 17 11 11 24 -15 31 -25
6 -35 24 -14 24 6 0 3 7 -6 16 -12 12 -27 15 -56 11 -22 -3 -37 -1 -33 4 3 5
0 9 -5 9 -6 0 -11 -7 -11 -15 0 -8 5 -15 10 -15 6 0 10 -4 10 -10 0 -5 -6 -7
-14 -4 -23 9 -29 -16 -10 -37 12 -13 15 -23 8 -27 -6 -4 -17 -17 -23 -30 l-13
-24 -39 44 c-27 30 -39 38 -39 26 0 -10 -5 -18 -11 -18 -6 0 -9 6 -6 14 7 18
-24 31 -35 14 -5 -8 -1 -18 9 -25 13 -10 14 -13 2 -13 -25 0 -42 17 -36 35 5
13 2 16 -16 13 -15 -2 -21 -9 -19 -22 2 -10 -1 -15 -6 -12 -5 3 -7 -6 -4 -19
2 -14 0 -25 -5 -25 -8 0 -31 68 -39 115 -1 11 -8 49 -15 85 l-11 65 28 20 c48
33 144 133 144 149 0 24 -37 39 -68 28 -15 -6 -46 -13 -69 -15 l-43 -5 0 51
c0 53 15 185 30 272 19 101 21 125 12 125 -11 0 -22 -31 -27 -79 -3 -19 -10
-38 -17 -43 -7 -4 -9 -8 -5 -8 4 0 3 -9 -2 -19 -14 -25 -21 -75 -28 -204 -5
-91 -8 -107 -22 -105 -13 3 -15 16 -13 83 4 111 35 306 63 400 79 265 213 526
358 693 107 125 259 266 330 308 17 10 31 22 31 26 0 4 6 8 14 8 8 0 16 4 18
9 6 17 221 133 312 168 158 60 307 103 419 119 30 4 47 11 47 20 0 12 -103 14
-651 14 -639 0 -650 0 -644 -19 5 -16 1 -19 -16 -18 -12 1 -24 9 -27 19 -3 13
-14 18 -42 18 -21 0 -41 -6 -43 -12 -4 -10 -6 -10 -6 0 -1 9 -31 12 -115 12
l-115 0 -4 -37 -4 -38 -1 38 -2 37 -50 0 -50 0 0 -37 c-1 -21 -3 -63 -6 -93
-18 -224 -25 -298 -34 -357 -22 -144 -41 -300 -40 -336 1 -22 -4 -45 -10 -52
-6 -7 -11 -50 -13 -96 -2 -80 -3 -84 -26 -87 -24 -4 -24 -3 -17 60 3 34 20
207 36 383 17 176 37 378 45 448 8 71 15 137 15 148 0 18 -16 19 -588 19
l-589 0 -21 -23 c-56 -59 -165 -89 -258 -69 -53 11 -125 3 -131 -14 -2 -6 21
-24 52 -40 54 -29 59 -36 55 -83 -1 -15 2 -21 10 -16 7 5 9 -2 4 -22 -9 -37
-14 -42 -14 -13 0 13 -3 20 -6 17 -4 -3 -7 -44 -8 -89 -1 -46 -5 -88 -8 -93
-8 -14 -18 -97 -24 -195 -2 -47 -9 -107 -14 -135 -6 -27 -7 -65 -4 -84 4 -19
7 -44 8 -55 1 -11 8 -22 16 -24 13 -2 16 9 17 55 2 60 58 622 68 680 4 24 12
34 31 39 14 4 27 5 29 2 2 -2 -2 -62 -10 -134 -8 -71 -22 -196 -31 -279 -9
-82 -18 -188 -21 -235 -3 -52 -10 -94 -19 -108 -9 -13 -14 -25 -12 -27 2 -1
30 -15 62 -29 47 -22 68 -26 100 -20 23 3 47 11 53 16 22 18 57 -1 99 -55 79
-101 120 -200 95 -231 -8 -9 3 -17 42 -31 29 -10 79 -31 112 -46 33 -15 98
-43 145 -62 121 -49 204 -88 211 -98 3 -5 45 -26 95 -48 148 -64 186 -82 181
-87 -2 -3 -25 4 -50 15 -25 11 -47 17 -50 14 -5 -4 -134 54 -202 90 -65 35
-77 39 -87 29 -7 -7 -19 -5 -36 4 -15 8 -32 14 -38 14 -6 0 -23 14 -38 30 -25
29 -40 38 -93 54 -32 10 -30 -14 3 -53 28 -34 18 -43 -11 -11 -12 13 -21 17
-25 10 -6 -10 -45 27 -96 92 -18 24 -94 56 -94 40 0 -4 11 -27 25 -51 21 -36
25 -56 25 -120 0 -65 -3 -81 -20 -96 -11 -10 -20 -25 -20 -33 0 -19 -32 -72
-43 -72 -5 0 -6 11 -3 24 3 14 1 26 -5 28 -7 2 -9 13 -4 27 5 16 10 20 15 11
10 -17 18 -2 29 54 10 57 -2 81 -18 33 -10 -29 -27 -47 -46 -47 -1 0 -6 28 -9
62 -12 101 -76 218 -119 218 -5 0 -6 -13 -2 -30 7 -34 7 -34 -44 -20 -20 5
-52 12 -72 15 -20 3 -54 19 -75 36 -25 19 -47 29 -60 26 -19 -3 -21 -1 -11 14
6 10 18 20 27 22 19 4 72 -10 79 -21 8 -12 69 -32 95 -32 17 0 18 2 6 10 -12
7 -8 10 14 10 16 0 38 -7 48 -17 17 -15 18 -15 18 0 0 23 16 21 33 -4 26 -37
29 -2 3 39 -32 51 -115 125 -168 150 -60 28 -117 42 -124 31 -3 -5 6 -9 19 -9
29 0 114 -55 174 -113 53 -51 48 -63 -6 -14 -70 63 -130 87 -214 87 -82 -1
-166 -26 -176 -53 -4 -10 -18 -24 -31 -30 -14 -7 -26 -20 -26 -30 -2 -15 -1
-15 3 -1 3 11 7 13 12 6 4 -7 20 -8 41 -4 62 13 99 4 106 -25 11 -43 -6 -58
-68 -59 -30 0 -63 -4 -72 -7 -13 -5 -19 -1 -23 13 -4 16 -11 19 -37 15 -17 -3
-44 -15 -59 -26 -15 -11 -32 -19 -38 -17 -5 2 13 18 40 36 28 18 48 38 46 45
-7 17 40 65 72 73 l27 7 -23 9 c-16 5 -29 4 -39 -4 -13 -11 -14 -10 -4 8 14
26 130 97 144 88 7 -5 8 -2 3 5 -25 41 -201 -85 -249 -177 -9 -17 -21 -32 -27
-32 -6 0 -7 5 -4 10 3 6 2 10 -4 10 -5 0 -12 -8 -14 -17 -4 -14 -5 -12 -6 5
-1 12 5 22 13 22 7 0 26 18 41 40 52 76 128 130 225 161 17 5 2 7 -45 6 -38
-1 -73 -6 -77 -12 -5 -6 -12 -4 -18 5 -6 9 -10 10 -10 3 0 -6 7 -18 15 -26 13
-13 10 -18 -19 -41 -18 -14 -36 -22 -40 -19 -3 4 -6 1 -6 -5 0 -7 -9 -12 -20
-12 -11 0 -23 -6 -26 -13 -6 -17 -36 -18 -47 -3 -6 7 -7 4 -3 -6 3 -11 -5 -25
-22 -38 -23 -18 -24 -20 -6 -15 16 4 23 0 27 -15 3 -11 1 -20 -4 -20 -5 0 -9
5 -9 10 0 6 -7 10 -15 10 -8 0 -13 -6 -11 -12 1 -7 1 -10 -1 -5 -10 16 -24 5
-40 -33 -18 -40 -39 -56 -30 -22 3 9 8 33 11 53 7 40 84 122 144 153 57 29 66
85 13 87 -14 0 -20 3 -13 6 7 3 35 20 63 39 27 18 76 43 108 54 l58 22 12 101
c7 56 13 138 15 182 2 44 6 91 9 105 3 14 8 51 11 82 l4 57 -41 -26 c-51 -32
-87 -72 -87 -96 0 -28 -28 -75 -49 -82 -13 -4 -22 -22 -30 -62 -15 -76 -14
-83 9 -83 11 0 23 -7 26 -15 4 -9 11 -15 18 -14 25 3 36 -2 36 -15 0 -7 10
-20 23 -29 l22 -15 -20 -39 c-24 -45 -69 -65 -157 -68 -49 -2 -61 -6 -78 -28
-26 -33 -25 -41 8 -54 l27 -11 -30 -1 c-16 0 -72 -4 -124 -7 -97 -6 -185 1
-177 15 3 4 41 6 85 3 71 -4 79 -3 77 13 -4 30 -69 44 -179 38 -105 -5 -171 2
-162 18 4 5 28 9 56 9 27 0 49 4 49 8 0 13 -47 32 -78 32 -15 0 -45 7 -67 15
-22 8 -64 14 -93 15 -29 0 -51 4 -48 8 11 18 -228 83 -266 74 -5 -1 -8 7 -8
17 0 21 5 20 175 -33 107 -33 268 -75 275 -71 3 2 24 -2 46 -10 60 -22 72 -19
89 22 8 20 14 37 13 38 -2 1 -16 7 -33 13 -16 7 -21 10 -10 9 11 -1 30 7 42
18 42 39 52 45 71 45 10 0 28 9 40 20 31 29 40 25 35 -18 -5 -41 4 -54 45 -67
20 -6 22 -4 18 19 -2 14 1 27 7 29 9 3 8 8 -2 21 -21 25 -2 40 33 26 37 -14
46 -13 46 5 0 19 14 19 29 2 8 -11 4 -22 -19 -47 -28 -32 -40 -70 -22 -70 5 0
14 12 21 26 15 34 25 25 11 -10 -14 -39 -13 -45 14 -52 15 -3 26 -14 28 -27 4
-27 36 -33 63 -11 20 15 20 16 1 29 -10 8 -24 16 -30 18 -7 2 -4 13 7 30 24
36 21 44 -5 20 -14 -13 -30 -18 -41 -14 -15 6 -15 10 9 45 19 27 31 36 45 33
15 -4 21 2 28 31 21 84 21 84 3 77 -44 -18 -82 -23 -82 -10 0 7 -4 15 -9 17
-5 2 -11 17 -15 33 -5 27 -2 32 27 45 23 11 40 13 59 6 14 -5 34 -6 43 -2 16
6 13 10 -15 31 -19 14 -39 25 -46 25 -6 0 -21 22 -33 49 -21 50 -49 83 -37 43
4 -12 1 -22 -8 -25 -10 -4 -12 0 -9 14 11 39 -47 120 -66 91 -3 -5 -16 -14
-28 -21 -28 -14 -32 -47 -5 -36 14 5 15 4 5 -6 -7 -7 -13 -19 -13 -26 0 -13
-5 -19 -60 -82 -25 -28 -32 -32 -45 -21 -8 7 -15 22 -15 34 0 11 -7 30 -15 40
-22 29 -18 62 11 112 29 50 78 85 143 105 24 7 45 20 48 28 10 33 26 60 54 90
38 42 57 40 25 -2 -30 -39 -32 -52 -10 -61 12 -4 14 -1 9 14 -4 13 -2 20 5 18
7 -2 17 6 23 17 7 10 21 27 32 36 19 17 8 18 -222 19 l-243 1 -6 -41 c-4 -22
-11 -43 -17 -47 -10 -6 -6 38 8 70 7 16 -26 17 -614 17 l-621 0 0 -890z m1407
858 c-3 -8 -6 -5 -6 6 -1 11 2 17 5 13 3 -3 4 -12 1 -19z m2606 -23 c-3 -9 -8
-14 -10 -11 -3 3 -2 9 2 15 9 16 15 13 8 -4z m87 1 c0 -3 -4 -8 -10 -11 -5 -3
-10 -1 -10 4 0 6 5 11 10 11 6 0 10 -2 10 -4z m58 -18 c-17 -26 -53 -38 -46
-16 4 11 43 37 57 38 2 0 -3 -10 -11 -22z m-1785 -39 c5 -19 3 -26 -9 -26 -9
0 -13 6 -9 14 3 8 5 22 5 30 0 22 6 14 13 -18z m106 -9 c45 -1 86 -6 101 -14
16 -9 32 -11 47 -5 14 5 34 5 49 -1 14 -6 74 -13 133 -16 123 -6 141 -8 276
-29 55 -9 121 -19 148 -22 26 -3 47 -9 47 -14 0 -5 10 -7 23 -5 12 1 29 0 37
-5 24 -12 54 -22 63 -21 4 1 7 -7 7 -18 0 -11 -7 -20 -15 -20 -9 0 -18 -6 -21
-14 -3 -8 -13 -12 -23 -9 -9 2 -25 -5 -35 -16 -22 -25 -36 -27 -36 -6 0 17
-35 21 -45 5 -8 -13 -72 -40 -95 -40 -10 0 -20 6 -23 13 -2 6 -3 -12 0 -42 l4
-53 -35 6 c-28 5 -36 4 -36 -8 0 -8 6 -17 13 -20 6 -3 0 -4 -15 -1 -17 3 -32
-1 -42 -11 -16 -16 -18 -20 -20 -64 -1 -22 -5 -25 -33 -23 -18 1 -33 -2 -33
-7 0 -5 -3 -17 -6 -27 -5 -16 -4 -16 10 1 16 20 16 20 16 -1 0 -12 -8 -23 -20
-26 -11 -3 -20 -11 -20 -18 0 -10 3 -10 12 -1 18 18 23 15 24 -13 1 -14 -2
-25 -7 -25 -5 0 -9 5 -9 10 0 6 -5 10 -12 10 -8 0 -7 -5 3 -15 12 -12 21 -14
43 -6 21 9 28 8 32 -4 4 -8 1 -22 -6 -30 -9 -10 -9 -15 -1 -15 6 0 11 5 11 10
0 6 5 10 11 10 5 0 8 -4 4 -9 -3 -5 -1 -12 5 -16 16 -10 12 -35 -6 -35 -8 0
-12 -4 -9 -10 8 -14 2 -13 -31 5 -33 17 -43 12 -20 -10 9 -10 16 -33 16 -55 0
-21 3 -45 6 -54 9 -23 34 -20 34 4 0 25 11 25 32 1 9 -11 33 -23 52 -27 20 -3
36 -10 36 -15 0 -6 8 -6 19 0 18 10 31 6 31 -11 0 -4 -10 -8 -22 -9 -51 -1
-59 -15 -9 -15 28 0 55 -4 61 -10 6 -6 -8 -8 -38 -7 l-47 2 55 -10 c30 -5 82
-11 114 -13 62 -5 104 -26 51 -26 -30 0 -315 26 -390 35 -22 2 -63 7 -90 10
-44 5 -52 10 -62 34 -8 21 -19 30 -47 35 -38 7 -44 17 -23 38 8 7 12 18 10 25
-2 6 1 14 6 18 18 10 12 33 -9 40 -11 4 -18 11 -14 16 3 6 0 10 -7 8 -8 -1
-27 -1 -44 0 -22 1 -26 4 -15 10 8 6 27 7 44 4 24 -5 28 -3 23 10 -7 18 1 21
27 11 9 -3 16 -13 16 -21 0 -9 8 -22 18 -29 16 -13 16 -13 0 -14 -11 0 -18 -8
-18 -20 0 -11 2 -20 4 -20 2 0 11 -3 20 -6 11 -4 16 0 16 14 0 16 10 24 38 31
20 6 44 11 52 11 8 1 1 7 -17 15 -23 10 -32 21 -35 42 -3 26 -7 28 -58 34 -31
3 -66 12 -80 19 -13 7 -44 14 -68 16 -46 3 -86 30 -98 66 -8 27 -25 11 -18
-18 7 -27 -3 -31 -31 -11 -12 10 -14 16 -7 21 16 10 15 37 0 34 -23 -5 -40
-29 -43 -60 -1 -16 -8 -34 -16 -39 -12 -7 -12 -9 1 -9 8 0 29 -13 46 -28 27
-23 30 -31 22 -52 -5 -14 -7 -48 -4 -75 5 -48 4 -51 -25 -68 -17 -9 -35 -15
-40 -11 -5 3 -9 0 -9 -5 0 -6 5 -11 10 -11 6 0 10 -4 10 -9 0 -6 -15 -8 -32
-6 -18 3 -54 7 -80 10 -47 6 -48 7 -48 41 0 19 7 94 15 167 8 73 24 227 36
342 12 116 26 221 30 234 8 20 11 21 26 10 15 -13 16 -10 11 31 -5 36 -4 41 5
23 9 -21 17 -23 86 -23z m-159 -107 c-7 -70 -16 -135 -21 -143 -7 -10 -8 -6
-4 15 3 17 7 79 10 137 3 100 10 136 22 124 3 -2 0 -62 -7 -133z m1437 35 c-3
-7 -5 -2 -5 12 0 14 2 19 5 13 2 -7 2 -19 0 -25z m-10 -120 c-3 -8 -6 -5 -6 6
-1 11 2 17 5 13 3 -3 4 -12 1 -19z m-2207 -63 c0 -14 -4 -25 -10 -25 -11 0
-14 33 -3 43 11 11 13 8 13 -18z m134 -65 l7 -25 -15 25 c-9 14 -15 32 -15 40
0 13 1 13 8 0 5 -8 12 -26 15 -40z m-344 -10 c-24 -62 -25 -74 -4 -66 21 8 44
-11 44 -36 0 -16 3 -18 14 -9 18 15 27 -16 19 -65 -5 -27 -10 -34 -28 -34 -13
0 -26 6 -28 13 -4 7 -8 3 -13 -11 -5 -18 -9 -20 -18 -9 -6 7 -23 18 -38 25
-22 9 -26 9 -22 -3 3 -7 1 -23 -6 -34 -8 -16 -8 -27 1 -43 9 -19 9 -21 -2 -10
-18 16 -32 15 -26 -2 4 -10 1 -13 -8 -9 -8 3 -19 21 -24 42 -9 36 -22 218 -13
193 3 -10 8 -8 17 5 12 15 17 16 34 6 13 -8 22 -9 26 -3 3 6 14 10 25 10 12 0
24 15 37 45 10 25 21 45 25 45 4 0 -1 -23 -12 -50z m2407 18 c-3 -8 -6 -5 -6
6 -1 11 2 17 5 13 3 -3 4 -12 1 -19z m-2147 -87 c0 -5 -9 -19 -19 -32 -18 -22
-19 -22 -16 -4 2 11 4 26 4 33 1 14 31 17 31 3z m517 -33 c-3 -8 -6 -5 -6 6
-1 11 2 17 5 13 3 -3 4 -12 1 -19z m-1 -64 c-4 -9 -9 -15 -11 -12 -3 3 -3 13
1 22 4 9 9 15 11 12 3 -3 3 -13 -1 -22z m-1530 -21 c9 -16 25 -34 33 -41 9 -8
11 -11 5 -8 -7 3 -17 -1 -24 -9 -7 -8 -18 -15 -25 -15 -7 0 -18 -7 -26 -16 -7
-9 -21 -13 -34 -10 -14 4 -37 -7 -73 -34 -44 -34 -54 -38 -59 -24 -8 23 23 78
74 131 43 44 63 53 63 29 0 -7 12 -21 26 -31 26 -16 26 -16 19 7 -4 12 -14 29
-23 36 -14 11 -13 12 5 12 12 0 29 -12 39 -27z m2454 -19 c0 -2 -14 -4 -31 -4
-16 0 -28 4 -25 9 5 8 56 3 56 -5z m-495 -104 c3 -5 1 -10 -4 -10 -6 0 -11 5
-11 10 0 6 2 10 4 10 3 0 8 -4 11 -10z m-1595 -50 c20 -6 21 -8 5 -8 -11 0
-29 3 -40 8 -25 11 1 11 35 0z m2129 -69 c-15 -5 -22 6 -14 19 6 9 10 9 16 -1
5 -8 4 -15 -2 -18z m-542 -3 c-3 -8 -6 -5 -6 6 -1 11 2 17 5 13 3 -3 4 -12 1
-19z m743 -112 c0 -11 -19 -15 -25 -6 -3 5 1 10 9 10 9 0 16 -2 16 -4z m-1570
-46 c0 -10 -25 -18 -79 -24 -31 -3 -101 17 -101 29 0 3 41 5 90 5 52 0 90 -4
90 -10z m2005 -30 c3 -6 -1 -7 -9 -4 -18 7 -21 14 -7 14 6 0 13 -4 16 -10z
m-40 -30 c5 -8 -10 -9 -47 -4 -70 9 -74 14 -10 14 28 0 54 -5 57 -10z m42 -42
c-3 -7 -5 -2 -5 12 0 14 2 19 5 13 2 -7 2 -19 0 -25z m-2354 -8 l68 -22 -20
-22 c-27 -28 -53 -105 -46 -134 6 -23 -16 -75 -36 -88 -8 -4 -9 -3 -5 4 9 15
-7 15 -21 1 -9 -9 -15 -1 -23 31 -11 39 -10 57 6 107 3 10 -3 5 -13 -12 -30
-50 -21 -145 14 -145 5 0 16 -8 25 -17 8 -10 35 -36 58 -57 l43 -39 -10 -67
c-7 -43 -7 -83 -1 -111 5 -24 9 -51 10 -59 0 -8 10 -25 21 -37 11 -13 15 -23
9 -23 -6 0 -14 5 -17 11 -4 6 -14 8 -22 5 -8 -3 -11 -1 -8 4 3 6 -1 10 -9 10
-8 0 -15 9 -15 20 -1 11 -1 29 -2 40 0 11 -4 20 -9 20 -4 0 -24 39 -44 87 -20
47 -48 96 -61 109 -26 24 -32 48 -15 59 20 12 9 25 -42 52 -29 15 -56 29 -60
31 -5 2 -8 -5 -8 -15 0 -15 -2 -15 -10 -3 -6 9 -5 17 2 21 7 4 6 14 -3 30 -36
65 26 162 113 175 34 6 38 10 38 36 0 20 4 29 13 26 6 -3 43 -15 80 -28z
m1698 0 c288 -26 290 -27 284 -54 -2 -11 -7 -43 -10 -71 -10 -77 -24 -89 -92
-86 -32 1 -65 7 -74 12 -10 5 -64 11 -121 14 -120 6 -170 12 -217 27 -32 10
-33 12 -16 24 17 12 17 14 2 14 -11 0 -17 8 -17 24 0 13 -7 30 -17 37 -15 13
-13 15 18 20 28 5 23 7 -24 8 -42 1 -57 5 -55 14 3 6 15 14 29 16 l24 4 -25 8
c-48 14 84 9 311 -11z m489 -91 c0 -17 -4 -60 -9 -97 -9 -60 -30 -236 -34
-287 -1 -14 5 -21 21 -23 42 -6 11 -22 -44 -22 -49 0 -72 12 -42 22 9 3 20 73
34 221 12 118 25 220 29 226 13 21 45 -8 45 -40z m-2482 5 c-19 -32 -20 -41
-10 -97 6 -34 14 -72 17 -83 6 -19 3 -21 -21 -16 -21 4 -26 2 -22 -9 19 -50
18 -55 -12 -72 -27 -17 -30 -22 -24 -57 5 -32 3 -40 -14 -49 -25 -13 -67 16
-76 55 -11 41 -69 124 -87 124 -9 0 -27 -8 -40 -18 -33 -25 -98 -62 -110 -62
-5 0 -9 13 -9 29 0 37 -11 44 -42 28 -92 -47 -178 -162 -178 -238 0 -40 -7
-52 -40 -69 -51 -27 -110 -9 -110 35 0 27 51 105 82 125 13 8 55 47 93 87 39
39 88 80 110 91 22 11 48 29 58 40 16 17 24 19 45 11 15 -6 54 -7 96 -2 77 8
140 9 170 2 16 -3 29 12 63 71 50 88 65 110 75 110 4 0 -2 -16 -14 -36z m2612
10 c0 -9 -5 -12 -11 -8 -9 5 -10 -7 -6 -42 5 -43 5 -45 -4 -16 -8 26 -8 60 0
90 3 10 21 -12 21 -24z m-2161 -48 c10 -11 8 -16 -9 -21 -24 -8 -46 7 -36 24
10 15 31 14 45 -3z m571 -2 c16 1 25 -4 25 -14 0 -8 10 -16 23 -18 12 -2 22
-10 22 -18 0 -8 5 -12 11 -9 5 4 24 1 40 -5 22 -10 33 -10 41 -2 16 16 48 -14
48 -43 0 -27 -25 -100 -40 -117 -6 -7 -25 -32 -41 -56 -17 -23 -44 -49 -60
-58 -29 -14 -31 -14 -74 21 -37 30 -47 35 -64 26 -37 -20 -71 38 -71 120 0 49
39 137 73 163 17 14 34 21 37 17 3 -5 16 -8 30 -7z m-300 -19 c-7 -8 -17 -15
-22 -15 -6 0 -5 7 2 15 7 8 17 15 22 15 6 0 5 -7 -2 -15z m41 -25 c5 -3 4 -23
-2 -43 -6 -24 -7 -43 0 -55 7 -12 6 -22 -3 -32 -14 -16 -36 -107 -36 -146 0
-13 -5 -24 -11 -24 -5 0 -7 5 -3 12 4 7 3 8 -5 4 -6 -4 -9 -15 -7 -24 3 -10 2
-23 -3 -30 -14 -22 -32 12 -34 62 -1 25 -5 46 -9 46 -5 0 -8 9 -8 20 0 11 -7
20 -15 20 -24 0 -18 57 11 127 25 59 29 62 55 58 21 -4 32 0 41 15 9 13 14 16
17 8 2 -7 8 -15 12 -18z m-197 -56 c-9 -22 -18 -34 -21 -27 -5 13 26 78 33 70
3 -3 -2 -22 -12 -43z m2013 -6 c-2 -13 -4 -5 -4 17 -1 22 1 32 4 23 2 -10 2
-28 0 -40z m-2078 -19 c13 21 21 -60 11 -104 -14 -57 -40 -197 -39 -215 0 -8
9 3 21 24 20 39 41 66 52 66 3 0 14 -21 26 -47 12 -28 50 -75 95 -120 41 -40
75 -79 75 -85 0 -6 -9 -3 -20 7 -11 10 -20 15 -20 11 0 -4 -7 0 -16 8 -8 9
-21 16 -27 16 -7 0 -23 16 -37 35 -28 39 -48 47 -28 13 7 -13 18 -37 24 -55
11 -30 10 -32 -7 -22 -11 5 -19 15 -19 22 0 16 -53 57 -73 57 -17 0 -37 -20
-37 -39 0 -11 5 -10 21 5 22 19 22 19 10 -3 -6 -12 -16 -25 -21 -28 -16 -10 0
-26 20 -20 13 4 19 -1 23 -25 5 -21 12 -30 26 -30 10 0 21 -9 24 -20 3 -11 16
-25 29 -30 12 -6 34 -17 48 -25 l25 -15 -27 0 c-27 0 -104 52 -146 99 -34 39
-82 113 -82 127 0 7 -9 28 -19 46 -23 39 -51 143 -51 188 0 29 2 32 25 27 37
-7 61 30 76 115 12 69 13 71 22 38 6 -22 11 -29 16 -21z m-464 -109 c4 -6 1
-9 -7 -8 -13 3 -13 -3 -2 -57 l6 -30 -21 30 c-25 37 -26 51 -3 64 21 13 20 13
27 1z m1580 -140 c33 -28 66 -48 73 -45 7 2 11 1 8 -4 -9 -15 22 -35 37 -24 6
6 29 8 50 5 32 -3 39 -9 43 -31 3 -15 15 -31 27 -36 16 -7 22 -18 21 -40 0
-16 6 -36 13 -43 32 -33 -1 -59 -58 -47 -21 5 -29 3 -27 -5 2 -7 -7 -13 -18
-15 -19 -1 -21 2 -14 24 8 30 2 54 -11 45 -5 -3 -9 0 -9 5 0 6 -9 11 -20 11
-13 0 -20 7 -20 19 0 11 -8 33 -17 50 -16 27 -22 30 -48 25 -16 -3 -39 -14
-49 -23 -18 -15 -19 -15 -12 12 3 15 5 27 3 27 -9 0 -56 -49 -67 -70 -12 -23
-13 -23 -26 -5 -8 10 -14 33 -14 49 0 17 -4 37 -9 45 -6 10 -5 22 5 35 8 11
14 30 14 41 0 27 18 45 45 45 11 0 48 -23 80 -50z m-971 -18 c25 -40 27 -43
85 -105 38 -41 38 -49 0 -16 -13 12 -38 32 -56 46 -32 24 -77 113 -58 113 3 0
16 -17 29 -38z m123 -7 c17 -43 22 -46 93 -71 103 -36 140 -53 140 -64 0 -15
-26 -12 -39 4 -12 14 -113 45 -143 43 -11 0 -18 -8 -18 -21 0 -29 -14 -9 -36
49 -10 28 -21 52 -25 55 -3 3 -9 15 -13 28 -14 43 21 24 41 -23z m1558 24 c4
-6 5 -12 2 -15 -7 -7 -37 7 -37 17 0 13 27 11 35 -2z m260 -9 c8 -13 -5 -13
-25 0 -13 8 -13 10 2 10 9 0 20 -4 23 -10z m-1415 -75 c-7 -8 -23 -15 -35 -15
-12 0 -34 -9 -48 -20 -26 -20 -47 -26 -47 -12 0 4 13 13 29 20 16 7 44 28 62
47 32 32 35 33 43 15 6 -13 5 -25 -4 -35z m1003 -92 c-1 -4 -4 -17 -8 -28 -6
-18 -5 -18 13 3 12 13 23 18 27 12 3 -5 1 -10 -4 -10 -6 0 -11 -7 -11 -15 0
-37 -173 -2 -220 45 -20 20 -23 20 -39 6 -22 -20 -31 -20 -31 -2 0 7 -9 25
-20 39 -24 31 -25 34 -2 40 10 3 6 5 -10 6 -16 0 -28 6 -28 11 0 6 -6 10 -14
10 -8 0 -17 4 -20 9 -3 5 79 -20 182 -55 103 -34 186 -66 185 -71z m547 125
c0 -4 -9 -8 -20 -8 -11 0 -20 4 -20 9 0 6 9 9 20 8 11 -1 20 -5 20 -9z m-1273
-15 c2 -5 -7 -18 -21 -26 l-25 -17 11 31 c10 28 28 35 35 12z m-1503 -137 c-9
-15 -19 -25 -21 -22 -3 2 3 16 13 30 9 15 19 25 21 22 3 -2 -3 -16 -13 -30z
m2810 18 c3 -8 2 -12 -4 -9 -6 3 -10 10 -10 16 0 14 7 11 14 -7z m-751 -87
c10 -10 15 -22 11 -28 -3 -6 0 -9 7 -8 17 3 69 -21 69 -32 0 -5 24 -12 53 -16
28 -4 44 -9 34 -11 -9 -2 -15 -7 -12 -12 3 -5 -2 -16 -11 -25 -9 -8 -14 -24
-11 -35 3 -11 0 -17 -7 -14 -6 2 -17 -10 -25 -27 -16 -36 -38 -47 -54 -28 -7
8 -8 11 -3 7 10 -8 36 15 36 31 0 15 -17 14 -24 -1 -3 -7 -4 0 -1 15 5 25 4
27 -14 17 -29 -15 -33 -27 -19 -50 10 -16 10 -23 0 -38 -7 -9 -22 -32 -33 -49
-22 -34 -44 -42 -52 -20 -4 9 -6 9 -6 -1 -1 -7 6 -15 14 -18 8 -4 15 -11 15
-16 0 -6 -11 -3 -25 6 -26 17 -26 17 -19 -11 5 -23 -1 -18 -35 26 -43 58 -49
71 -28 71 8 0 9 3 1 8 -14 9 -25 53 -30 120 l-3 52 33 0 c44 0 60 31 54 103
l-5 55 36 -26 c19 -15 44 -35 54 -45z m-750 38 c-18 -24 -71 -50 -82 -40 -2 3
4 12 15 19 10 8 28 21 39 30 32 25 49 20 28 -9z m127 -36 c0 -10 5 -19 10 -19
6 0 10 7 10 16 0 9 6 14 13 11 6 -2 22 -1 33 4 12 4 31 5 43 2 17 -4 19 -9 10
-25 -18 -33 -1 -100 41 -165 15 -24 44 -30 55 -13 11 18 25 10 31 -17 4 -16
13 -39 22 -53 21 -34 33 -102 20 -117 -6 -7 -7 -13 -3 -13 5 0 1 -8 -8 -17
-25 -28 -31 -67 -12 -83 13 -11 19 -10 38 9 31 29 46 27 18 -3 l-22 -23 30 -6
c23 -5 29 -10 24 -23 -5 -15 -7 -15 -15 0 -14 24 -30 20 -22 -6 6 -21 5 -22
-12 -8 -23 18 -66 20 -71 2 -6 -14 38 -12 49 3 5 6 8 3 8 -6 0 -13 15 -16 89
-17 52 -1 93 3 96 8 4 6 -3 38 -14 73 -11 34 -23 79 -27 101 -6 37 -6 38 15
26 12 -6 25 -19 28 -28 3 -9 14 -35 23 -57 10 -22 21 -55 25 -73 7 -33 8 -34
49 -29 40 4 136 -20 136 -35 0 -3 -7 -13 -15 -22 -8 -8 -15 -18 -15 -23 0 -4
11 5 25 20 27 29 40 33 50 17 3 -5 13 -6 22 -3 9 3 14 2 12 -3 -2 -5 -12 -30
-23 -57 -10 -26 -23 -47 -27 -47 -12 0 -11 11 6 40 29 51 13 65 -33 29 -15
-11 -28 -16 -30 -10 -2 5 -11 7 -20 4 -15 -6 -15 -5 -3 10 9 11 10 17 2 17 -6
0 -11 8 -12 18 0 13 -2 12 -9 -5 -13 -32 -67 -55 -127 -55 -19 0 -23 -6 -23
-29 0 -24 -4 -29 -25 -29 -20 0 -25 5 -26 28 l-1 27 -7 -25 c-9 -32 -37 -38
-46 -9 -7 20 -8 20 -17 6 -10 -19 -53 -23 -64 -6 -5 8 -10 6 -16 -5 -5 -9 -20
-16 -34 -16 -14 0 -23 4 -20 8 2 4 -12 13 -32 19 -37 11 -37 11 -14 -7 28 -23
28 -28 -3 -23 -13 3 -27 13 -30 23 -4 12 -14 18 -30 17 -13 -1 -25 3 -26 8 -3
16 -38 37 -55 33 -13 -2 -12 -7 6 -26 29 -30 17 -42 -13 -14 -18 17 -36 22
-75 22 -29 0 -52 -4 -52 -10 0 -5 -7 -7 -15 -4 -11 5 -13 2 -8 -12 5 -13 3
-16 -10 -11 -11 4 -17 1 -17 -8 0 -17 -16 -20 -25 -5 -3 5 3 15 15 22 11 7 20
16 20 20 0 16 -22 7 -53 -22 -18 -16 -39 -30 -47 -29 -9 0 -6 4 8 11 12 6 22
17 22 24 0 7 6 14 13 17 23 8 1 17 -73 27 -41 6 -75 11 -76 13 -1 2 12 138 37
362 7 61 12 115 12 122 0 6 11 13 24 16 14 2 23 -1 23 -8 0 -6 7 -12 15 -12 8
0 12 4 9 8 -8 14 42 54 70 55 21 2 26 -2 21 -13 -5 -14 -3 -14 11 -2 9 7 29
12 45 11 30 -2 33 2 29 51 -1 20 3 27 17 28 10 0 13 3 6 6 -7 2 -13 9 -13 14
0 4 7 6 15 3 8 -4 15 -15 15 -25z m-1491 -10 c-12 -24 -29 -25 -29 -1 0 24 8
32 26 25 10 -4 11 -10 3 -24z m1854 11 c-6 -24 -23 -37 -23 -18 0 12 18 38 26
38 1 0 0 -9 -3 -20z m-413 6 c0 -2 -7 -6 -15 -10 -8 -3 -15 -1 -15 4 0 6 7 10
15 10 8 0 15 -2 15 -4z m-175 -16 c3 -5 2 -10 -4 -10 -5 0 -13 5 -16 10 -3 6
-2 10 4 10 5 0 13 -4 16 -10z m511 -27 c3 -17 -3 -22 -33 -26 -61 -10 -74 15
-20 38 39 17 49 15 53 -12z m238 5 c14 -22 3 -31 -35 -30 -36 1 -34 0 -43 29
-6 19 -3 21 30 20 23 -1 41 -9 48 -19z m-819 2 c7 -12 -54 -13 -73 -2 -8 6 2
9 27 10 22 1 43 -3 46 -8z m-115 -17 c-1 -10 -77 -63 -91 -63 -11 0 71 68 84
69 4 1 7 -2 7 -6z m-880 -53 c0 -5 -7 -10 -16 -10 -8 0 -12 5 -9 10 3 6 10 10
16 10 5 0 9 -4 9 -10z m664 -15 c-10 -8 -23 -15 -28 -15 -6 0 -1 7 10 15 10 8
23 15 28 15 6 0 1 -7 -10 -15z m-630 -11 c9 -24 7 -28 -9 -14 -17 14 -20 30
-6 30 5 0 12 -7 15 -16z m2686 -26 c0 -44 -17 -43 -20 2 -3 34 -2 40 10 40 6
0 10 -19 10 -42z m-106 -23 c3 -13 -3 -66 -14 -116 -22 -97 -22 -131 0 -54 15
52 30 68 30 31 0 -33 -36 -128 -59 -158 -10 -13 -28 -53 -39 -90 -29 -91 -53
-137 -100 -184 -34 -34 -38 -42 -30 -64 5 -14 7 -34 4 -44 -3 -11 2 -29 12
-40 16 -18 16 -19 0 -13 -10 4 -18 2 -18 -3 0 -6 -5 -10 -12 -10 -6 0 -20 -7
-30 -17 -28 -25 -33 -8 -8 32 25 40 22 52 -8 36 -16 -9 -21 -8 -24 4 -2 11
-16 4 -51 -26 -52 -44 -51 -44 -61 -13 -5 16 0 23 21 33 44 20 93 55 93 67 0
7 -18 19 -40 28 -45 18 -63 21 -40 6 27 -18 -5 -10 -42 9 -19 11 -37 18 -39
16 -2 -2 -5 8 -6 23 0 14 -8 31 -17 38 -9 6 -16 18 -16 26 0 8 -7 29 -15 46
-13 26 -14 44 -6 112 10 75 9 84 -9 109 -23 30 -32 123 -17 179 10 40 39 43
63 7 14 -22 15 -31 4 -70 -18 -65 -5 -67 15 -3 31 92 53 128 79 128 19 0 23
-4 19 -20 -4 -16 -2 -19 13 -13 13 5 16 3 11 -10 -5 -14 0 -17 25 -17 56 0 85
-50 58 -101 -6 -10 -7 -19 -2 -19 18 0 49 47 61 95 13 52 41 96 38 59 -2 -14
10 -21 51 -30 29 -7 59 -17 67 -24 11 -9 15 -9 15 -1 0 14 -59 51 -81 51 -9 0
-21 6 -27 13 -8 9 2 13 46 15 31 2 59 5 61 7 8 8 19 -5 25 -30z m-2584 -85 c0
-11 -4 -20 -10 -20 -5 0 -10 9 -10 20 0 11 5 20 10 20 6 0 10 -9 10 -20z
m-802 -98 c3 -16 -2 -22 -17 -22 -26 0 -36 17 -20 36 16 19 33 13 37 -14z
m3955 -16 c7 -18 -3 -56 -14 -56 -11 0 -23 46 -14 59 9 15 22 14 28 -3z m92
-22 c21 -22 27 -25 40 -14 13 11 15 9 15 -13 0 -20 -4 -24 -20 -20 -11 3 -31
-2 -45 -11 -14 -9 -30 -14 -35 -11 -11 7 -13 55 -4 79 9 23 21 20 49 -10z
m-1368 -26 c-3 -8 -6 -5 -6 6 -1 11 2 17 5 13 3 -3 4 -12 1 -19z m-267 -68 c0
-5 -4 -10 -10 -10 -5 0 -10 5 -10 10 0 6 5 10 10 10 6 0 10 -4 10 -10z m433
-70 c7 0 4 -5 -6 -11 -18 -11 -37 -5 -37 13 0 5 7 7 16 4 9 -3 21 -6 27 -6z
m-2493 -67 c0 -33 -13 -43 -34 -27 -16 11 -17 16 -6 29 17 20 40 19 40 -2z
m2296 -45 c-10 -6 -20 -7 -24 -3 -9 8 20 25 31 18 5 -3 2 -10 -7 -15z m-869
-24 c18 -14 33 -30 33 -36 0 -6 -8 -4 -18 5 -31 28 -87 46 -128 41 -30 -3 -34
-2 -19 5 39 19 96 12 132 -15z m833 10 c0 -8 -5 -12 -11 -8 -6 3 -15 0 -20 -7
-6 -10 -9 -8 -9 9 0 15 6 22 20 22 11 0 20 -7 20 -16z m-221 -45 c-15 -9 -32
-2 -24 11 3 5 13 6 21 3 12 -4 13 -8 3 -14z m341 -96 c6 -18 16 -30 21 -27 6
3 3 -11 -6 -33 -17 -43 -71 -94 -129 -121 -24 -12 -35 -22 -28 -26 7 -4 12 -3
12 1 0 5 11 10 25 11 13 1 36 12 51 24 37 33 84 78 83 81 -2 8 24 63 40 83
l18 23 15 -32 c14 -29 14 -35 0 -55 -8 -13 -31 -30 -50 -37 -29 -13 -34 -19
-30 -39 7 -33 -33 -69 -66 -60 -13 3 -27 1 -31 -5 -3 -7 -1 -10 5 -9 7 2 17
-6 23 -17 7 -11 17 -23 22 -27 20 -15 -8 -7 -63 18 -70 32 -139 97 -152 144
-18 66 -7 176 19 181 3 1 15 3 27 4 11 1 37 5 57 9 36 7 37 6 27 -18 -17 -47
-15 -134 5 -156 10 -11 22 -20 26 -20 23 0 57 124 38 135 -13 8 -11 42 3 68
12 20 13 19 19 -23 3 -25 12 -60 19 -77z m80 88 c0 -9 -4 -22 -9 -30 -7 -12
-12 -11 -30 1 -19 13 -19 16 -5 36 16 24 44 20 44 -7z m-460 4 c0 -8 -9 -15
-20 -15 -11 0 -20 5 -20 11 0 6 -7 9 -15 5 -8 -3 -15 -1 -15 4 0 6 16 10 35
10 24 0 35 -5 35 -15z m-382 -37 c7 -7 12 -20 12 -29 0 -10 6 -20 13 -22 7 -3
5 -6 -5 -6 -11 -1 -20 9 -24 27 -4 15 -12 30 -18 34 -7 5 -7 8 0 8 5 0 15 -5
22 -12z m483 -29 c-5 -13 -10 -19 -10 -12 -1 15 10 45 15 40 3 -2 0 -15 -5
-28z m-122 6 c11 -11 -9 -11 -104 1 l-100 13 100 -5 c54 -2 101 -7 104 -9z
m-279 1 c0 -2 -13 -6 -29 -8 -17 -2 -28 -1 -25 4 5 8 54 12 54 4z m186 -124
c-11 -10 -24 12 -26 43 -4 56 2 60 17 12 8 -27 12 -51 9 -55z m-211 68 c3 -6
-1 -7 -9 -4 -18 7 -21 14 -7 14 6 0 13 -4 16 -10z m2322 -52 c-3 -8 -6 -5 -6
6 -1 11 2 17 5 13 3 -3 4 -12 1 -19z m-2148 -53 c1 -52 -9 -75 -34 -75 -22 0
-42 27 -29 39 4 3 9 0 11 -6 3 -7 11 -13 19 -13 8 0 15 6 15 13 5 53 3 62 -13
61 -22 -2 -23 4 -1 28 17 19 18 19 24 1 4 -10 8 -31 8 -48z m661 29 c0 -8 5
-14 11 -14 5 0 7 5 4 10 -3 6 -1 10 4 10 6 0 11 -4 11 -9 0 -17 -20 -23 -35
-11 -8 7 -15 9 -15 5 0 -5 -2 -6 -5 -3 -3 3 -3 13 1 22 7 18 24 12 24 -10z
m-1215 -31 c-3 -21 -10 -94 -15 -163 -10 -124 -36 -402 -65 -680 -17 -166 -18
-226 -5 -195 8 18 9 18 8 -5 -1 -51 -13 -83 -32 -86 -17 -2 -18 3 -12 69 4 40
11 104 16 142 5 39 14 124 20 190 7 66 18 174 25 240 8 66 17 158 20 205 9
127 26 293 30 308 9 26 15 10 10 -25z m1306 22 c8 5 6 -1 -4 -13 -16 -17 -47
-21 -47 -5 0 3 7 2 16 -1 12 -5 14 -1 9 17 -4 15 -4 18 3 8 6 -8 15 -10 23 -6z
m329 -197 c16 -33 35 -41 61 -25 29 17 52 -15 45 -63 -3 -19 -2 -41 3 -48 13
-22 87 -3 144 37 67 47 83 53 97 36 15 -18 3 -38 -20 -32 -11 3 -37 -11 -67
-35 -73 -60 -77 -65 -56 -65 10 0 23 4 30 9 7 5 17 7 24 3 6 -4 51 1 101 11
76 15 91 16 98 4 12 -20 6 -25 -32 -28 -59 -4 -198 -48 -198 -63 0 -12 4 -11
35 3 21 9 28 9 34 0 4 -7 49 -18 99 -24 73 -9 92 -15 92 -27 0 -14 -13 -15
-97 -10 -54 3 -106 9 -116 13 -26 12 -49 -10 -35 -34 7 -10 16 -16 22 -13 5 3
6 1 2 -5 -11 -18 -50 -14 -74 8 -12 11 -26 20 -32 20 -5 0 -9 3 -9 8 5 29 -3
63 -16 67 -8 3 -23 8 -32 11 -22 6 -23 6 -22 -3 1 -5 4 -7 8 -6 4 1 6 -11 5
-25 -1 -18 7 -34 25 -49 16 -14 21 -22 12 -23 -20 0 -88 74 -107 118 -16 36
-17 37 -24 12 -4 -14 -3 -35 1 -47 16 -44 -18 -12 -62 58 -24 39 -54 82 -67
97 -12 14 -20 32 -17 39 2 8 -3 29 -12 46 -26 49 -27 124 -3 154 11 14 20 32
20 40 0 8 14 20 32 27 l31 13 32 -91 c18 -50 38 -103 45 -118z m-1980 192 c0
-5 -4 -10 -10 -10 -5 0 -10 5 -10 10 0 6 5 10 10 10 6 0 10 -4 10 -10z m269
-37 c-7 -43 -70 -635 -102 -968 -11 -119 -14 -130 -32 -130 -25 0 -28 -45 36
594 53 537 56 551 95 551 8 0 9 -13 3 -47z m1229 15 c16 -16 15 -28 -2 -28
-17 0 -38 24 -29 33 9 10 17 9 31 -5z m151 -19 c40 12 49 8 31 -14 -16 -19 0
-40 35 -49 28 -7 28 -8 16 -126 -5 -47 -12 -124 -16 -171 l-7 -86 34 -14 c18
-7 38 -12 45 -12 7 0 11 -3 10 -7 -1 -4 37 -46 85 -94 176 -175 290 -350 328
-505 26 -102 21 -151 -31 -290 -42 -113 -45 -131 -28 -164 16 -30 73 -80 77
-68 2 5 11 8 20 5 14 -5 13 -2 -2 10 -29 23 -9 19 25 -5 25 -17 35 -19 59 -10
16 5 39 8 51 6 12 -3 34 4 48 14 14 10 31 16 38 14 6 -2 22 6 34 18 16 16 23
18 29 9 8 -13 50 -5 62 13 4 7 11 7 20 0 14 -12 62 -5 88 12 22 14 35 43 50
105 8 30 17 59 22 65 4 5 8 21 8 36 0 14 9 38 20 52 11 14 20 28 20 31 0 3 13
24 29 48 32 49 48 103 32 113 -6 3 -11 12 -11 18 0 7 7 3 15 -7 23 -31 18 -74
-15 -128 -16 -26 -30 -51 -30 -54 0 -3 -9 -19 -21 -35 -11 -16 -17 -29 -13
-29 3 0 2 -6 -4 -12 -6 -7 -11 -17 -12 -23 -7 -60 -40 -164 -57 -181 -23 -23
-85 -46 -111 -41 -17 3 -26 -1 -32 -17 -7 -17 -9 -18 -9 -3 -1 18 -16 23 -25
8 -3 -5 -15 -7 -26 -4 -12 3 -20 0 -20 -6 0 -7 -4 -10 -9 -7 -5 3 -22 -1 -39
-10 -17 -8 -70 -20 -117 -27 -81 -11 -98 -18 -75 -32 14 -9 12 -45 -2 -45 -14
0 -39 13 -102 50 l-39 24 28 -42 c28 -43 28 -65 0 -42 -14 11 -14 10 -6 -14
14 -34 -5 -35 -57 -2 -35 22 -41 23 -74 11 -41 -14 -130 -4 -155 17 -8 6 -20
13 -27 14 -6 1 -49 9 -96 17 -47 9 -132 18 -190 22 -58 3 -122 8 -142 11 -59
9 -45 26 16 20 l54 -4 7 86 c3 48 9 102 12 120 3 22 -1 40 -10 50 -25 28 -92
144 -112 192 -10 25 -24 70 -30 100 -9 37 -13 46 -14 27 -1 -16 -6 -38 -12
-50 -10 -22 -10 -22 7 -2 l17 20 -9 -20 c-4 -11 -8 -35 -8 -52 0 -31 -15 -49
-17 -20 0 8 -2 8 -5 1 -3 -8 -17 -5 -42 7 -20 11 -42 19 -49 19 -7 0 -13 9
-13 19 0 15 -9 20 -38 23 -66 6 -73 1 -70 -45 3 -39 5 -42 33 -43 17 -1 32 -3
35 -4 3 -1 27 -4 54 -7 34 -3 51 -1 57 9 7 10 9 9 9 -4 0 -14 5 -15 32 -7 17
5 34 6 37 4 2 -3 -1 -5 -7 -5 -19 0 -14 -18 6 -23 20 -6 -54 0 -158 13 -41 5
-122 12 -180 15 -58 4 -113 9 -122 11 -14 4 -18 -1 -18 -20 0 -28 -44 -86 -66
-86 -8 0 -14 -4 -14 -9 0 -11 25 -21 56 -21 16 0 24 -6 24 -17 0 -14 2 -15 9
-4 10 15 61 8 61 -8 0 -5 -10 -7 -22 -4 -22 6 -22 5 2 -14 46 -36 108 -62 135
-57 17 3 24 1 20 -6 -3 -5 -1 -10 4 -10 6 0 11 -5 11 -11 0 -5 -5 -7 -12 -3
-6 4 -8 3 -5 -4 4 -5 17 -8 30 -5 18 4 19 3 7 -6 -13 -9 -13 -11 1 -11 9 0 35
-20 58 -45 23 -25 49 -45 59 -45 29 0 62 -12 62 -22 0 -5 -18 -7 -43 -3 -31 5
-61 0 -115 -18 -39 -13 -72 -21 -72 -18 0 12 16 28 35 35 19 8 19 8 -3 19 -20
9 -23 17 -20 45 4 30 3 32 -9 17 -7 -10 -14 -23 -16 -29 -2 -6 -6 -9 -9 -6 -2
3 -18 22 -36 43 -18 21 -32 32 -32 26 0 -8 -7 -6 -18 4 -10 10 -22 17 -25 17
-4 0 -25 11 -47 25 -42 27 -66 32 -54 13 4 -7 3 -8 -4 -4 -7 4 -12 13 -12 21
0 8 -4 17 -10 20 -6 4 -7 -1 -3 -11 3 -9 7 -31 8 -48 1 -17 5 -55 10 -83 6
-42 11 -53 26 -53 32 0 21 -25 -16 -39 -37 -13 -75 -58 -75 -88 0 -27 33 -71
49 -65 8 3 20 -4 28 -14 12 -16 16 -17 34 -6 12 8 23 11 26 8 9 -8 -17 -36
-33 -36 -8 0 -14 -5 -14 -10 0 -6 -9 -21 -21 -33 -29 -31 -36 -54 -31 -114 l4
-52 39 3 c21 2 39 -1 39 -5 0 -5 -4 -9 -10 -9 -5 0 -10 -4 -10 -10 0 -21 18
-9 30 20 7 17 20 30 29 30 13 -1 13 -3 -3 -15 -26 -20 -14 -30 16 -14 12 7 26
13 29 12 3 -1 5 8 5 20 -1 14 5 22 15 21 11 -1 15 5 12 16 -3 10 1 21 8 25 8
5 10 4 5 -4 -9 -13 18 -43 29 -33 5 4 5 -4 2 -18 -11 -43 1 -68 31 -65 44 6
62 -4 62 -32 0 -25 1 -26 59 -20 48 4 61 2 66 -10 3 -9 3 -18 0 -21 -3 -3 -5
0 -5 6 0 7 -9 12 -20 12 -11 0 -20 -4 -20 -9 0 -5 -6 -11 -12 -14 -7 -2 -1 -2
14 0 33 5 45 -12 18 -29 -23 -15 -26 -28 -6 -28 8 0 18 -4 21 -10 4 -6 -14
-10 -47 -10 -52 1 -53 1 -23 14 27 11 28 13 10 19 -11 3 -51 5 -90 5 -61 0
-65 -1 -28 -7 44 -7 69 -21 40 -21 -9 0 -85 7 -169 15 -84 8 -181 18 -216 21
l-63 6 28 25 c28 27 53 67 53 86 0 6 7 18 16 28 10 11 16 40 17 87 2 39 8 77
16 85 11 14 9 24 -13 64 -45 85 -48 99 -26 138 20 35 29 75 11 47 -11 -19 -22
97 -11 118 5 10 5 21 0 26 -5 5 -10 22 -12 37 -3 16 -9 32 -15 35 -6 4 -13 17
-17 29 -4 13 -26 42 -49 65 -33 33 -43 38 -45 25 -2 -9 -10 -17 -18 -17 -19 0
-40 -36 -54 -97 -11 -47 -10 -53 9 -72 12 -12 21 -16 21 -11 0 6 5 10 10 10 6
0 10 -9 10 -20 0 -13 7 -20 20 -20 11 0 20 -4 20 -9 0 -5 10 -11 21 -14 15 -4
20 -11 15 -22 -3 -9 0 -18 9 -21 9 -4 14 -20 14 -47 0 -81 2 -97 11 -97 6 0
10 -7 10 -15 0 -8 -4 -15 -10 -15 -14 0 -13 -33 2 -66 10 -22 10 -28 -5 -39
-15 -11 -15 -13 -3 -18 13 -5 14 -9 1 -34 -8 -15 -15 -41 -15 -56 0 -38 -18
-70 -36 -63 -9 4 -14 -1 -14 -15 0 -11 -6 -22 -13 -25 -9 -3 -13 -28 -13 -84
1 -85 -17 -112 -22 -35 -2 25 -7 45 -13 45 -13 0 -11 47 3 95 6 22 11 43 10
48 -1 4 2 7 8 7 5 0 10 6 10 14 0 8 9 17 19 21 11 3 21 14 23 23 10 46 -62
315 -97 366 -8 11 -15 34 -16 51 0 26 -2 27 -9 10 -7 -16 -9 -17 -9 -3 -2 36
-104 -5 -117 -47 -4 -11 -17 -33 -29 -50 -12 -16 -28 -46 -35 -65 -8 -19 -20
-41 -27 -48 -7 -7 -13 -20 -13 -29 0 -8 -10 -29 -22 -46 -12 -16 -22 -40 -23
-51 -2 -15 -8 -20 -21 -18 -10 2 -16 1 -12 -3 4 -4 2 -17 -4 -28 -8 -16 -7
-23 8 -34 18 -13 17 -14 -8 -8 -23 6 -28 3 -34 -18 -3 -14 -3 -30 0 -35 3 -6
0 -12 -8 -15 -7 -3 -16 -19 -19 -36 -7 -36 -56 -101 -74 -101 -18 0 -16 7 13
57 16 28 23 51 19 64 -4 12 -1 27 8 37 8 9 21 33 30 52 39 86 48 107 61 130 8
14 19 43 26 65 17 56 65 166 111 257 37 74 38 78 20 88 -14 7 -22 7 -27 -1 -3
-6 -14 -9 -24 -6 -9 2 -25 0 -35 -6 -16 -9 -17 -5 -12 44 4 30 7 60 7 68 0 11
19 12 100 6 60 -4 100 -3 100 2 0 5 16 17 35 26 19 9 35 21 35 26 0 5 -21 24
-46 41 -36 24 -49 28 -55 18 -6 -10 -9 -9 -14 4 -4 9 -24 19 -48 23 -23 5 -45
9 -49 10 -5 1 -15 3 -23 4 -19 1 -19 29 -1 196 8 72 22 204 31 295 26 274 37
345 49 328 7 -9 31 -16 66 -17 66 -2 81 -4 97 -14 6 -4 19 -4 28 -1 9 4 20 1
25 -5 4 -8 53 -16 126 -22 124 -9 172 -17 189 -29 6 -4 34 -8 63 -8 29 0 67
-5 85 -11 36 -11 187 -31 235 -31 21 0 35 -6 42 -20 6 -11 20 -20 30 -20 11 0
20 -4 20 -10 0 -5 -4 -10 -10 -10 -22 0 -8 -22 23 -36 28 -13 28 -14 5 -10
-22 5 -25 3 -21 -13 3 -11 14 -27 24 -37 10 -9 19 -26 19 -38 0 -20 0 -20 -16
2 -8 12 -21 34 -29 48 -7 14 -15 22 -18 17 -3 -5 7 -29 22 -53 15 -25 37 -67
50 -95 20 -46 22 -47 17 -15 -3 19 -8 64 -12 98 -4 35 -10 58 -14 52 -5 -9 -9
-9 -14 -1 -4 6 5 22 21 36 l28 24 19 -22 c10 -12 34 -52 52 -89 19 -38 37 -68
41 -68 3 0 3 47 0 105 -6 88 -4 105 9 113 12 6 20 49 34 173 11 90 20 174 20
187 0 13 6 22 15 22 18 0 19 19 -6 -219 l-20 -199 20 -41 c31 -60 39 -58 45
11 4 35 15 151 26 259 24 233 23 209 6 209 -8 0 -21 7 -29 15 -13 13 -16 13
-21 0 -4 -11 -16 -14 -46 -10 -22 3 -40 1 -40 -5 0 -6 -9 -6 -22 -1 -18 6 -33
1 -68 -22 -25 -16 -39 -24 -32 -16 17 19 15 27 -10 31 -31 4 -32 21 -1 36 36
16 54 15 47 -3 -4 -10 -13 -13 -25 -10 -11 4 -19 2 -19 -4 0 -6 14 -11 30 -11
20 0 30 5 30 15 0 8 9 19 21 26 16 8 20 18 17 39 l-4 28 35 -20 c30 -17 41
-18 70 -9z m-2169 -5 c0 -2 -9 -4 -21 -4 -11 0 -18 4 -14 10 5 8 35 3 35 -6z
m2300 -39 c-7 -8 -17 -15 -22 -15 -6 0 -5 7 2 15 7 8 17 15 22 15 6 0 5 -7 -2
-15z m-520 -59 c0 -2 -9 -2 -20 1 -11 3 -20 9 -20 15 0 5 9 4 20 -2 11 -6 20
-12 20 -14z m-2850 -21 c0 -8 -9 -15 -20 -15 -25 0 -26 17 -2 23 9 3 18 5 20
6 1 0 2 -6 2 -14z m2977 -31 c-3 -3 -12 -4 -19 -1 -8 3 -5 6 6 6 11 1 17 -2
13 -5z m-2512 -114 c4 -6 -15 -10 -52 -9 -51 1 -54 2 -23 9 52 11 68 11 75 0z
m4048 -24 c11 -16 14 -36 10 -60 -8 -53 -21 -54 -15 -1 3 29 1 45 -7 46 -6 1
-17 2 -23 3 -7 1 -19 -2 -25 -7 -9 -7 -13 -5 -13 7 0 22 -25 20 -71 -6 -51
-29 -83 -94 -80 -166 1 -29 0 -56 -3 -61 -4 -5 -29 -1 -56 10 -28 10 -57 19
-66 19 -38 0 -77 -74 -63 -122 4 -16 4 -28 1 -28 -3 0 12 -18 33 -40 49 -51
42 -52 -14 -2 -39 35 -42 42 -43 90 -1 38 4 60 19 79 24 34 75 48 106 31 12
-6 27 -13 32 -14 6 -1 16 -3 23 -5 9 -3 13 17 16 73 3 71 5 80 37 116 39 44
73 60 140 61 39 1 49 -3 62 -23z m134 -84 c1 -12 -2 -22 -8 -22 -5 0 -7 5 -4
10 3 6 -1 13 -9 16 -21 8 -20 23 1 20 9 -2 18 -12 20 -24z m63 -35 c0 -6 -9
-2 -20 8 -11 10 -20 23 -20 28 0 6 9 2 20 -8 11 -10 20 -23 20 -28z m-160 23
c0 -5 -4 -10 -10 -10 -5 0 -10 5 -10 10 0 6 5 10 10 10 6 0 10 -4 10 -10z
m196 -94 c-7 -32 -13 -42 -22 -34 -3 3 0 15 7 26 10 16 10 26 1 49 -12 26 -11
27 3 8 11 -13 14 -30 11 -49z m-1746 34 c0 -5 -12 -10 -27 -9 -25 0 -26 1 -8
9 27 12 35 12 35 0z m877 -34 c4 -7 36 -24 71 -36 35 -13 62 -29 62 -36 0 -16
-5 -17 -49 -8 -18 4 -28 11 -24 17 4 6 0 8 -10 4 -21 -8 -70 10 -63 22 3 5 -1
14 -9 21 -8 7 -12 16 -9 21 8 13 22 11 31 -5z m-877 -32 c0 -8 -4 -12 -10 -9
-5 3 -10 10 -10 16 0 5 5 9 10 9 6 0 10 -7 10 -16z m1286 -169 c10 -8 15 -14
9 -14 -5 0 -19 6 -29 14 -11 8 -15 15 -10 15 6 0 19 -7 30 -15z m104 -19 c0
-3 -4 -8 -10 -11 -5 -3 -10 -1 -10 4 0 6 5 11 10 11 6 0 10 -2 10 -4z m80 -55
c0 -6 -4 -12 -8 -15 -5 -3 -9 1 -9 9 0 8 4 15 9 15 4 0 8 -4 8 -9z m-100 -143
c0 -10 5 -18 12 -18 6 0 8 -3 5 -6 -12 -12 -37 18 -37 45 0 15 -5 32 -11 38
-7 7 -8 20 -4 30 5 14 10 8 21 -27 7 -25 14 -53 14 -62z m94 37 c2 -12 44 -70
96 -132 5 -7 10 -23 10 -37 0 -14 5 -28 10 -31 13 -8 13 -42 -1 -50 -6 -4 -9
-1 -8 6 5 27 -13 88 -32 108 -10 11 -19 24 -19 28 0 5 -9 14 -20 20 -19 12
-70 111 -70 136 0 15 31 -29 34 -48z m-14 -158 c0 -4 -13 8 -30 26 -16 19 -30
38 -30 43 0 10 59 -58 60 -69z m-1510 -122 c0 -8 -4 -15 -10 -15 -5 0 -10 7
-10 15 0 8 5 15 10 15 6 0 10 -7 10 -15z m1628 -30 c-6 -14 -13 -24 -14 -22
-6 6 9 47 17 47 5 0 3 -11 -3 -25z m-36 -67 c-7 -7 -12 -8 -12 -2 0 14 12 26
19 19 2 -3 -1 -11 -7 -17z m-2806 -37 c-3 -20 -17 -139 -31 -266 -28 -256 -31
-275 -45 -275 -14 0 -13 47 11 310 22 250 28 283 54 273 12 -4 15 -14 11 -42z
m961 43 c-3 -3 -12 -4 -19 -1 -8 3 -5 6 6 6 11 1 17 -2 13 -5z m177 -11 c17 2
39 0 49 -5 24 -12 54 -81 38 -86 -13 -4 -15 -52 -2 -52 5 0 11 6 14 13 2 6 6
-3 9 -21 2 -18 1 -35 -4 -38 -4 -3 -8 5 -8 18 -1 22 -2 21 -16 -6 -9 -15 -14
-39 -11 -52 2 -13 0 -24 -4 -24 -5 0 -9 -10 -9 -23 0 -13 -6 -32 -14 -42 -13
-18 -14 -18 -20 1 -3 10 -6 68 -7 127 -2 84 -5 110 -16 114 -8 3 -19 1 -26 -6
-19 -19 -46 -12 -61 17 -26 50 -3 92 37 70 11 -5 33 -8 51 -5z m-1074 -270
c-13 -133 -27 -243 -32 -243 -5 0 -6 10 -3 23 2 12 12 121 20 242 9 121 19
227 22 235 16 44 14 -36 -7 -257z m2690 177 c0 -5 -5 -10 -11 -10 -5 0 -7 5
-4 10 3 6 8 10 11 10 2 0 4 -4 4 -10z m-1793 -26 c-3 -3 -12 -4 -19 -1 -8 3
-5 6 6 6 11 1 17 -2 13 -5z m130 -5 c-14 -8 -22 -8 -30 0 -8 8 -3 11 19 11 25
-1 27 -2 11 -11z m1653 -9 c0 -5 -5 -10 -11 -10 -5 0 -7 5 -4 10 3 6 8 10 11
10 2 0 4 -4 4 -10z m-1766 -56 c5 -14 4 -15 -9 -4 -17 14 -19 20 -6 20 5 0 12
-7 15 -16z m1737 -47 c-13 -13 -14 5 -3 43 l7 25 3 -29 c2 -16 -1 -33 -7 -39z
m-1461 -7 c0 -5 -4 -10 -10 -10 -5 0 -10 5 -10 10 0 6 5 10 10 10 6 0 10 -4
10 -10z m787 -26 c-3 -3 -12 -4 -19 -1 -8 3 -5 6 6 6 11 1 17 -2 13 -5z m645
-36 c-8 -8 -9 -4 -5 13 4 13 8 18 11 10 2 -7 -1 -18 -6 -23z m-612 -8 c0 -5
-2 -10 -4 -10 -3 0 -8 5 -11 10 -3 6 -1 10 4 10 6 0 11 -4 11 -10z m114 -15
c4 -10 -1 -15 -15 -15 -17 0 -18 2 -7 15 16 18 15 18 22 0z m-1300 -25 c11
-11 17 -23 13 -26 -4 -4 -13 0 -20 9 -9 13 -29 17 -79 18 -65 1 -77 6 -60 23
14 15 126 -4 146 -24z m1766 -6 c0 -12 -30 -34 -47 -34 -15 0 -14 3 7 20 25
20 40 25 40 14z m-90 -44 c0 -5 -8 -10 -17 -10 -15 0 -16 2 -3 10 19 12 20 12
20 0z m-1630 -10 c0 -9 -47 -60 -55 -60 -12 0 -3 20 18 44 23 27 37 33 37 16z
m212 -52 c-5 -5 -20 -10 -33 -10 -13 -1 -29 -6 -36 -10 -8 -7 -17 1 -28 22 -9
18 -15 33 -13 35 8 8 45 8 67 1 18 -6 27 -4 35 10 10 17 11 16 14 -10 2 -16
-1 -33 -6 -38z m1371 55 c-7 -2 -21 -2 -30 0 -10 3 -4 5 12 5 17 0 24 -2 18
-5z m-113 -11 c0 -4 -20 -14 -45 -23 -25 -9 -45 -12 -45 -8 0 5 14 12 30 16
17 3 33 10 36 14 6 11 24 12 24 1z m-98 -54 c13 -16 16 -24 7 -27 -13 -4 35
-36 124 -82 l58 -30 28 20 c15 11 34 27 41 36 7 8 24 15 39 15 14 0 48 7 75
15 27 8 64 15 83 15 22 0 33 5 33 14 0 8 9 17 20 21 20 6 105 -18 127 -37 16
-13 47 -2 37 13 -4 8 -3 9 4 5 6 -4 9 -12 6 -19 -5 -15 210 -102 227 -91 7 4
9 3 6 -3 -3 -5 51 -31 120 -58 137 -53 165 -71 189 -117 17 -33 12 -118 -8
-118 -6 0 -8 10 -4 25 9 35 -14 74 -71 124 -38 34 -54 41 -78 38 -25 -4 -214
59 -315 105 -14 6 -29 12 -35 13 -5 1 -36 13 -68 28 -32 15 -68 27 -81 27 -13
0 -27 8 -30 17 -5 12 -9 14 -18 5 -16 -16 -10 -20 65 -41 78 -21 133 -60 142
-99 8 -36 -14 -102 -39 -116 -11 -6 -33 -26 -49 -43 -32 -37 -102 -62 -120
-44 -6 6 -31 11 -55 11 -35 0 -45 4 -49 19 -4 14 -15 21 -42 23 l-36 3 28 14
c15 8 27 17 27 21 0 4 -25 11 -54 17 -39 7 -53 6 -49 -1 4 -6 -1 -5 -10 3 -11
9 -17 10 -17 2 0 -32 -117 13 -143 55 -4 7 -20 15 -36 19 -34 7 -64 35 -38 35
8 0 20 -7 27 -15 14 -17 30 -20 30 -5 0 6 -31 30 -69 54 -38 25 -72 50 -76 56
-4 6 1 22 10 36 9 14 13 33 10 44 -8 26 3 25 27 -2z m-1355 -10 c-3 -8 -6 -5
-6 6 -1 11 2 17 5 13 3 -3 4 -12 1 -19z m392 -94 c-16 -122 -28 -137 -22 -29
5 112 11 141 24 128 7 -7 6 -40 -2 -99z m576 96 c3 -5 1 -10 -4 -10 -6 0 -11
5 -11 10 0 6 2 10 4 10 3 0 8 -4 11 -10z m-468 -14 c-3 -7 -9 -50 -13 -95 -8
-98 -23 -119 -17 -23 6 97 12 132 25 132 5 0 8 -6 5 -14z m1220 -12 c-3 -3
-12 -4 -19 -1 -8 3 -5 6 6 6 11 1 17 -2 13 -5z m-1692 -44 c4 -17 13 -30 21
-30 8 0 14 -9 14 -20 0 -11 4 -20 9 -20 11 0 39 -51 52 -94 7 -23 5 -34 -8
-48 -24 -26 -36 -22 -17 6 17 28 20 20 -47 137 -40 69 -58 116 -41 105 6 -3
13 -20 17 -36z m720 28 c25 -7 45 -16 45 -20 0 -12 -28 -10 -35 2 -4 6 -11 8
-16 4 -5 -3 -15 -1 -22 4 -7 5 -21 12 -32 15 -16 4 -16 5 -3 6 10 0 38 -4 63
-11z m1425 2 c0 -5 -2 -10 -4 -10 -3 0 -8 5 -11 10 -3 6 -1 10 4 10 6 0 11 -4
11 -10z m-1633 -32 c-3 -7 -5 -2 -5 12 0 14 2 19 5 13 2 -7 2 -19 0 -25z
m1603 22 c0 -5 -8 -10 -17 -10 -15 0 -16 2 -3 10 19 12 20 12 20 0z m-564 -38
c-17 -16 -18 -16 -5 5 7 12 15 20 18 17 3 -2 -3 -12 -13 -22z m604 18 c0 -5
-9 -10 -21 -10 -11 0 -17 5 -14 10 3 6 13 10 21 10 8 0 14 -4 14 -10z m-1320
-10 c0 -5 -6 -10 -14 -10 -8 0 -18 5 -21 10 -3 6 3 10 14 10 12 0 21 -4 21
-10z m115 0 c-27 -12 -43 -12 -25 0 8 5 22 9 30 9 10 0 8 -3 -5 -9z m-426 -42
c0 -28 -2 -30 -9 -13 -8 19 -9 19 -9 1 -1 -11 -4 -17 -7 -13 -9 9 5 57 16 57
6 0 10 -15 9 -32z m25 -13 c-4 -8 -8 -15 -10 -15 -2 0 -4 7 -4 15 0 8 4 15 10
15 5 0 7 -7 4 -15z m-1176 -39 c-2 -1 -10 -7 -18 -13 -13 -10 -16 -8 -17 6 -1
14 4 17 18 14 11 -3 18 -6 17 -7z m572 -53 c5 -7 10 -16 10 -21 0 -10 77 -62
93 -62 7 0 8 -3 1 -10 -13 -13 -74 10 -74 27 0 7 -11 13 -25 13 -14 0 -24 3
-24 8 1 4 1 18 0 31 -1 17 -5 22 -17 17 -12 -5 -15 -2 -10 10 3 8 6 21 6 27 0
7 7 3 15 -8 8 -11 19 -25 25 -32z m2477 41 c-3 -3 -12 -4 -19 -1 -8 3 -5 6 6
6 11 1 17 -2 13 -5z m-3072 -137 c0 -84 0 -86 25 -90 14 -2 5 -5 -20 -5 -76
-3 -86 3 -82 49 3 24 0 39 -7 39 -6 0 -11 8 -11 18 1 15 2 15 15 -2 21 -27 29
-13 16 25 -6 18 -9 35 -6 37 3 3 5 0 5 -6 0 -13 32 -17 43 -5 4 3 2 12 -4 19
-7 9 -6 12 8 10 16 -3 18 -14 18 -89z m37 54 c-5 -3 -12 -15 -15 -26 -3 -11
-5 -5 -4 15 1 46 7 57 20 35 6 -11 6 -20 -1 -24z m1105 17 c-3 -8 -6 -5 -6 6
-1 11 2 17 5 13 3 -3 4 -12 1 -19z m1892 -42 c-2 -2 -13 8 -23 22 l-19 27 24
-22 c12 -12 21 -24 18 -27z m-2434 -6 c3 -5 -1 -10 -10 -10 -9 0 -13 5 -10 10
3 6 8 10 10 10 2 0 7 -4 10 -10z m1695 1 c0 -19 -12 -41 -23 -41 -7 0 -7 4 1
12 17 17 15 28 -5 21 -11 -4 -14 -3 -9 5 8 14 36 16 36 3z m600 -21 c6 -11 9
-20 7 -20 -2 0 -12 9 -22 20 -10 11 -13 20 -7 20 6 0 16 -9 22 -20z m-2125 0
c3 -5 1 -10 -4 -10 -6 0 -11 5 -11 10 0 6 2 10 4 10 3 0 8 -4 11 -10z m439
-76 c3 -8 2 -12 -4 -9 -6 3 -10 10 -10 16 0 14 7 11 14 -7z m-1139 -14 c-3 -5
2 -10 11 -10 10 0 15 -3 11 -6 -10 -10 -39 5 -32 16 3 5 8 10 11 10 3 0 2 -4
-1 -10z m1090 -30 c-3 -5 -12 -10 -18 -10 -7 0 -6 4 3 10 19 12 23 12 15 0z
m-51 -47 c-1 -33 14 -42 71 -41 33 0 36 1 15 7 l-25 7 26 6 c19 3 26 1 25 -8
-4 -24 -14 -27 -78 -20 -56 6 -64 10 -65 29 -2 21 13 47 26 47 4 0 6 -12 5
-27z m40 19 c2 -4 1 -14 -5 -22 -5 -8 -9 -13 -10 -10 0 3 -2 13 -4 23 -3 17
10 24 19 9z m126 -32 c0 -5 -4 -10 -10 -10 -5 0 -10 5 -10 10 0 6 5 10 10 10
6 0 10 -4 10 -10z m-1105 -10 c3 -5 -3 -10 -14 -10 -12 0 -21 5 -21 10 0 6 6
10 14 10 8 0 18 -4 21 -10z m1218 -7 c-18 -2 -48 -2 -65 0 -18 2 -4 4 32 4 36
0 50 -2 33 -4z m-28 -22 c-3 -6 16 -12 42 -14 27 -2 21 -2 -12 0 -33 2 -82 4
-110 4 -48 1 -48 1 -15 9 52 11 102 11 95 1z m88 2 c-7 -2 -21 -2 -30 0 -10 3
-4 5 12 5 17 0 24 -2 18 -5z m166 -32 c30 -1 57 -4 60 -6 7 -8 -98 -4 -149 4
-43 7 -44 8 -20 18 18 8 29 8 40 -2 8 -7 39 -13 69 -14z m104 -18 c-7 -2 -19
-2 -25 0 -7 3 -2 5 12 5 14 0 19 -2 13 -5z m107 -3 c0 -5 8 -10 17 -10 9 0 13
-3 10 -7 -4 -3 -17 -1 -30 5 -12 6 -33 13 -47 15 -17 3 -13 5 13 6 20 0 37 -3
37 -9z m137 -16 c-3 -3 -12 -4 -19 -1 -8 3 -5 6 6 6 11 1 17 -2 13 -5z m503
-54 c0 -5 -5 -10 -11 -10 -5 0 -7 5 -4 10 3 6 8 10 11 10 2 0 4 -4 4 -10z
m134 -9 c3 -5 -6 -8 -20 -8 -19 0 -22 2 -13 8 18 11 26 11 33 0z m-457 -33
c-3 -7 -5 -2 -5 12 0 14 2 19 5 13 2 -7 2 -19 0 -25z m566 15 c-7 -2 -19 -2
-25 0 -7 3 -2 5 12 5 14 0 19 -2 13 -5z m100 -10 c-7 -2 -21 -2 -30 0 -10 3
-4 5 12 5 17 0 24 -2 18 -5z m64 -9 c-3 -3 -12 -4 -19 -1 -8 3 -5 6 6 6 11 1
17 -2 13 -5z m-2737 -14 c0 -5 -4 -10 -10 -10 -5 0 -10 5 -10 10 0 6 5 10 10
10 6 0 10 -4 10 -10z m610 -60 c0 -5 -4 -10 -10 -10 -5 0 -10 5 -10 10 0 6 5
10 10 10 6 0 10 -4 10 -10z"/>
<path d="M2498 4888 c-7 -18 2 -39 13 -32 12 7 12 44 0 44 -5 0 -11 -6 -13
-12z"/>
<path d="M2827 4859 c7 -7 15 -10 18 -7 3 3 -2 9 -12 12 -14 6 -15 5 -6 -5z"/>
<path d="M2652 4798 c3 -7 13 -15 22 -16 12 -3 17 1 14 10 -3 7 -13 15 -22 16
-12 3 -17 -1 -14 -10z"/>
<path d="M2990 4670 c0 -5 5 -10 10 -10 6 0 10 5 10 10 0 6 -4 10 -10 10 -5 0
-10 -4 -10 -10z"/>
<path d="M2835 4600 c-3 -5 -2 -10 4 -10 5 0 13 5 16 10 3 6 2 10 -4 10 -5 0
-13 -4 -16 -10z"/>
<path d="M2878 4453 c7 -3 16 -2 19 1 4 3 -2 6 -13 5 -11 0 -14 -3 -6 -6z"/>
<path d="M2973 4443 c9 -2 25 -2 35 0 9 3 1 5 -18 5 -19 0 -27 -2 -17 -5z"/>
<path d="M1228 4845 c-2 -19 0 -35 4 -35 9 0 10 3 12 43 3 40 -11 33 -16 -8z"/>
<path d="M1260 4829 c0 -27 43 -23 48 5 4 18 3 19 -13 3 -20 -21 -29 -22 -21
-2 3 8 1 15 -4 15 -6 0 -10 -9 -10 -21z"/>
<path d="M1317 4809 c-4 -16 -3 -18 9 -8 7 6 11 15 8 20 -8 13 -11 11 -17 -12z"/>
<path d="M1226 4765 c4 -8 8 -15 10 -15 2 0 4 7 4 15 0 8 -4 15 -10 15 -5 0
-7 -7 -4 -15z"/>
<path d="M1221 4156 c-7 -8 -8 -17 -3 -20 6 -3 13 1 16 10 9 23 2 28 -13 10z"/>
<path d="M1147 4118 c-8 -28 15 -53 38 -44 25 9 16 60 -11 64 -15 2 -23 -4
-27 -20z"/>
<path d="M1280 4070 c0 -21 5 -30 16 -30 11 0 14 5 10 16 -3 9 -6 22 -6 30 0
8 -4 14 -10 14 -5 0 -10 -13 -10 -30z"/>
<path d="M1190 4065 c-7 -9 -10 -18 -6 -22 3 -3 6 -1 6 5 0 7 9 12 21 12 11 0
17 5 14 10 -9 14 -21 12 -35 -5z"/>
<path d="M1210 4040 c0 -5 5 -10 10 -10 6 0 10 5 10 10 0 6 -4 10 -10 10 -5 0
-10 -4 -10 -10z"/>
<path d="M2738 4263 c12 -2 32 -2 45 0 12 2 2 4 -23 4 -25 0 -35 -2 -22 -4z"/>
<path d="M2843 4263 c9 -2 23 -2 30 0 6 3 -1 5 -18 5 -16 0 -22 -2 -12 -5z"/>
<path d="M2968 4253 c7 -3 16 -2 19 1 4 3 -2 6 -13 5 -11 0 -14 -3 -6 -6z"/>
<path d="M3105 4251 c-14 -6 -7 -8 25 -8 32 0 39 2 25 8 -11 4 -22 8 -25 8 -3
0 -14 -4 -25 -8z"/>
<path d="M3248 4233 c7 -3 16 -2 19 1 4 3 -2 6 -13 5 -11 0 -14 -3 -6 -6z"/>
<path d="M965 4010 c-3 -5 -1 -10 4 -10 6 0 11 5 11 10 0 6 -2 10 -4 10 -3 0
-8 -4 -11 -10z"/>
<path d="M2074 4089 c1 -7 13 -14 27 -16 18 -2 20 -1 9 6 -8 5 -17 8 -21 5 -4
-2 -10 1 -12 6 -3 6 -4 5 -3 -1z"/>
<path d="M2024 4029 c-15 -17 -15 -19 -1 -25 8 -3 25 0 37 6 18 10 22 9 27 -9
3 -12 14 -21 24 -21 25 0 24 17 -1 25 -11 3 -20 12 -20 20 0 21 -47 24 -66 4z"/>
<path d="M2180 3966 c0 -14 37 -32 46 -23 6 6 -25 37 -37 37 -5 0 -9 -6 -9
-14z"/>
<path d="M2075 3961 c-3 -5 -1 -12 5 -16 12 -7 30 2 30 16 0 12 -27 12 -35 0z"/>
<path d="M1620 3691 c0 -5 7 -12 16 -15 14 -5 15 -4 4 9 -14 17 -20 19 -20 6z"/>
<path d="M2961 3654 c0 -11 3 -14 6 -6 3 7 2 16 -1 19 -3 4 -6 -2 -5 -13z"/>
<path d="M3199 3583 c-13 -16 -12 -17 4 -4 16 13 21 21 13 21 -2 0 -10 -8 -17
-17z"/>
<path d="M2935 3220 c3 -5 8 -10 11 -10 2 0 4 5 4 10 0 6 -5 10 -11 10 -5 0
-7 -4 -4 -10z"/>
<path d="M3025 3201 c-3 -5 -1 -12 5 -16 5 -3 10 1 10 9 0 18 -6 21 -15 7z"/>
<path d="M2950 3190 c0 -5 5 -10 11 -10 5 0 7 5 4 10 -3 6 -8 10 -11 10 -2 0
-4 -4 -4 -10z"/>
<path d="M2172 3350 c0 -19 2 -27 5 -17 2 9 2 25 0 35 -3 9 -5 1 -5 -18z"/>
<path d="M2433 3160 c-8 -37 -7 -54 2 -67 16 -21 21 -10 29 60 6 46 5 57 -7
57 -9 0 -18 -18 -24 -50z"/>
<path d="M2330 3195 c0 -2 9 -20 20 -40 11 -20 20 -42 20 -50 0 -15 18 -30 26
-22 7 7 -47 117 -57 117 -5 0 -9 -2 -9 -5z"/>
<path d="M2240 3110 c0 -5 12 -16 28 -24 15 -8 38 -24 51 -35 26 -22 37 -26
45 -13 2 4 -25 24 -60 44 -35 20 -64 33 -64 28z"/>
<path d="M2560 3075 c-7 -14 -10 -28 -7 -32 9 -8 47 27 47 44 0 22 -26 15 -40
-12z"/>
<path d="M2655 3060 c-3 -5 -1 -10 4 -10 6 0 11 5 11 10 0 6 -2 10 -4 10 -3 0
-8 -4 -11 -10z"/>
<path d="M2600 3036 c0 -2 7 -7 16 -10 8 -3 12 -2 9 4 -6 10 -25 14 -25 6z"/>
<path d="M2666 3021 c-4 -7 -5 -15 -2 -18 9 -9 19 4 14 18 -4 11 -6 11 -12 0z"/>
<path d="M2595 3010 c-3 -5 1 -10 10 -10 9 0 13 5 10 10 -3 6 -8 10 -10 10 -2
0 -7 -4 -10 -10z"/>
<path d="M2305 3000 c-3 -5 0 -10 7 -10 7 0 30 -20 52 -45 31 -38 41 -43 53
-33 10 8 17 8 21 1 20 -30 91 -21 118 15 21 27 16 35 -8 12 -12 -11 -28 -20
-36 -20 -10 0 -7 7 9 21 16 15 20 23 12 26 -7 3 -13 11 -13 19 0 16 -43 29
-60 19 -7 -4 -9 -18 -6 -30 3 -13 2 -26 -4 -30 -12 -7 -69 21 -93 46 -19 21
-42 25 -52 9z"/>
<path d="M2620 2965 c0 -8 7 -15 15 -15 9 0 12 6 9 15 -4 8 -10 15 -15 15 -5
0 -9 -7 -9 -15z"/>
<path d="M2590 2930 c0 -5 5 -10 10 -10 6 0 10 5 10 10 0 6 -4 10 -10 10 -5 0
-10 -4 -10 -10z"/>
<path d="M2350 2910 c0 -5 5 -10 11 -10 5 0 7 5 4 10 -3 6 -8 10 -11 10 -2 0
-4 -4 -4 -10z"/>
<path d="M2390 2889 c-23 -8 -22 -8 7 -6 18 2 35 0 37 -5 2 -5 3 -3 2 4 -3 16
-16 18 -46 7z"/>
<path d="M3424 3236 c-10 -26 4 -48 28 -44 17 2 23 10 23 28 0 18 -6 26 -23
28 -13 2 -25 -3 -28 -12z"/>
<path d="M3605 3207 c-20 -16 -15 -44 11 -54 23 -9 51 23 38 44 -14 23 -27 26
-49 10z"/>
<path d="M3381 3086 c-14 -26 -8 -46 14 -46 22 0 39 38 24 56 -16 20 -24 18
-38 -10z"/>
<path d="M3440 3016 c0 -13 7 -30 16 -37 13 -11 20 -11 41 1 36 21 31 33 -16
47 -40 11 -41 11 -41 -11z"/>
<path d="M3338 2956 c-10 -7 -18 -20 -18 -28 0 -8 -5 -19 -11 -25 -8 -8 -8
-13 0 -17 6 -4 11 -5 11 -1 0 3 9 1 20 -5 17 -9 20 -8 20 7 1 18 6 13 61 -54
5 -7 24 -13 41 -13 30 0 31 1 12 15 -10 8 -24 15 -31 15 -7 0 -17 10 -24 22
-10 19 -9 20 7 12 11 -5 43 -8 72 -8 42 1 52 -2 47 -14 -7 -19 16 -10 29 12
15 24 -6 38 -82 55 -53 12 -64 11 -93 -3 -33 -17 -53 -22 -32 -8 12 8 7 52 -6
52 -3 0 -14 -7 -23 -14z"/>
<path d="M2887 2603 c-22 -21 29 -93 65 -93 15 0 17 5 12 28 -7 29 -34 65 -42
57 -3 -3 -10 0 -17 5 -7 5 -15 7 -18 3z"/>
<path d="M3520 2476 c0 -9 5 -16 10 -16 6 0 10 4 10 9 0 6 -4 13 -10 16 -5 3
-10 -1 -10 -9z"/>
<path d="M3580 2410 c0 -5 5 -10 11 -10 5 0 7 5 4 10 -3 6 -8 10 -11 10 -2 0
-4 -4 -4 -10z"/>
<path d="M3510 2403 c0 -14 28 -49 34 -42 3 3 -3 16 -14 29 -11 13 -20 19 -20
13z"/>
<path d="M3576 2361 c-3 -5 5 -8 18 -7 13 0 22 4 19 9 -6 10 -31 9 -37 -2z"/>
<path d="M3545 2340 c-3 -5 -1 -10 4 -10 6 0 11 5 11 10 0 6 -2 10 -4 10 -3 0
-8 -4 -11 -10z"/>
<path d="M3550 2312 c0 -6 5 -14 11 -17 6 -4 8 -14 5 -22 -4 -9 -2 -11 6 -7 6
4 18 -2 26 -12 14 -18 14 -18 8 -1 -3 10 -6 26 -6 34 0 9 -3 13 -7 10 -3 -4
-15 0 -25 10 -10 9 -18 11 -18 5z"/>
<path d="M3720 2251 c0 -5 -3 -17 -7 -27 -4 -11 -2 -15 7 -12 16 5 24 48 10
48 -6 0 -10 -4 -10 -9z"/>
<path d="M3730 2101 c0 -6 4 -13 10 -16 6 -3 7 1 4 9 -7 18 -14 21 -14 7z"/>
<path d="M3320 2470 c0 -5 5 -10 11 -10 5 0 7 5 4 10 -3 6 -8 10 -11 10 -2 0
-4 -4 -4 -10z"/>
<path d="M2880 2059 c0 -5 5 -7 10 -4 6 3 10 8 10 11 0 2 -4 4 -10 4 -5 0 -10
-5 -10 -11z"/>
<path d="M2963 1976 c-4 -5 0 -6 7 -1 10 6 12 3 8 -13 -4 -12 -2 -22 3 -22 12
0 12 -47 0 -54 -4 -3 -6 -18 -4 -33 3 -16 1 -23 -4 -16 -4 6 -8 -14 -8 -47 0
-32 3 -56 8 -53 4 2 7 -11 7 -31 0 -19 -6 -37 -12 -39 -10 -4 -10 -6 0 -6 8
-1 10 -10 6 -28 -4 -16 -3 -24 2 -20 5 5 14 -14 21 -45 l12 -53 -7 50 c-12 88
-9 363 6 377 22 22 15 46 -14 44 -14 0 -28 -5 -31 -10z m47 -15 c0 -6 -4 -13
-10 -16 -5 -3 -10 1 -10 9 0 9 5 16 10 16 6 0 10 -4 10 -9z"/>
<path d="M3370 1923 c0 -37 8 -63 21 -63 9 0 1 56 -12 80 -6 11 -8 6 -9 -17z"/>
<path d="M2270 1855 c-10 -12 -10 -15 1 -15 8 0 5 -8 -8 -20 -30 -28 -38 -59
-20 -77 20 -21 37 -8 37 28 0 19 9 38 25 53 18 17 22 25 13 34 -16 16 -33 15
-48 -3z"/>
<path d="M2396 1799 c3 -5 -1 -9 -8 -9 -9 0 -9 -3 2 -10 11 -7 7 -10 -18 -10
l-33 0 27 -27 c19 -21 28 -24 31 -14 5 11 7 11 14 0 6 -10 9 -8 9 7 0 24 16
33 58 35 21 1 23 2 7 6 -11 3 -22 9 -25 13 -3 4 -20 10 -38 13 -18 3 -30 1
-26 -4z"/>
<path d="M3255 1753 c-36 -8 -75 -25 -75 -34 0 -4 -9 -11 -20 -14 -25 -8 -84
-63 -99 -92 -25 -49 15 -70 59 -30 92 82 167 107 266 88 32 -7 82 -16 109 -22
77 -15 198 4 217 34 13 21 -2 25 -80 22 -61 -3 -100 2 -187 25 -105 28 -146
33 -190 23z"/>
<path d="M2457 1734 c-12 -13 3 -21 28 -17 13 3 22 9 19 14 -6 10 -38 12 -47
3z"/>
<path d="M2365 1661 c-4 -7 -1 -19 7 -28 9 -12 10 -17 2 -20 -17 -6 -5 -43 13
-43 10 0 13 6 9 16 -4 9 -2 22 2 28 12 15 11 47 -1 39 -5 -3 -13 0 -17 7 -6 9
-9 9 -15 1z"/>
<path d="M2304 1597 c-48 -55 -54 -68 -14 -30 24 23 42 45 39 48 -3 3 -14 -5
-25 -18z"/>
<path d="M2238 1580 c-4 -28 -3 -29 13 -14 10 9 15 22 12 30 -9 23 -20 16 -25
-16z"/>
<path d="M2130 1575 c0 -29 5 -31 27 -9 14 13 14 17 2 25 -23 14 -29 11 -29
-16z"/>
<path d="M2977 1535 c3 -33 7 -62 9 -64 9 -10 3 95 -6 109 -6 9 -7 -6 -3 -45z"/>
<path d="M2140 1519 c1 -13 8 -35 16 -49 10 -16 13 -18 8 -5 -4 11 -8 30 -9
42 -2 32 -15 42 -15 12z"/>
<path d="M2944 1524 c-25 -17 -22 -62 5 -72 9 -3 19 -10 22 -15 6 -8 2 72 -4
94 -1 4 -11 0 -23 -7z"/>
<path d="M3560 1491 c-34 -64 25 -117 75 -67 14 14 25 32 25 40 0 42 -80 64
-100 27z"/>
<path d="M2440 1468 c-14 -17 -26 -34 -28 -39 -2 -4 -15 -4 -29 2 -19 7 -28 6
-34 -2 -4 -6 -11 -9 -17 -5 -12 7 -45 -58 -40 -82 4 -20 79 -64 94 -54 5 4 20
24 33 44 17 28 21 46 16 68 -5 22 -1 38 15 60 29 41 21 47 -10 8z"/>
<path d="M2672 1460 c0 -14 2 -19 5 -12 2 6 2 18 0 25 -3 6 -5 1 -5 -13z"/>
<path d="M2860 1465 c0 -8 5 -15 10 -15 6 0 10 7 10 15 0 8 -4 15 -10 15 -5 0
-10 -7 -10 -15z"/>
<path d="M2520 1460 c0 -5 5 -10 11 -10 5 0 7 5 4 10 -3 6 -8 10 -11 10 -2 0
-4 -4 -4 -10z"/>
<path d="M2915 1440 c-4 -6 -2 -9 3 -8 6 2 22 -10 36 -27 19 -22 26 -26 26
-13 0 21 -56 63 -65 48z"/>
<path d="M3199 1427 c-71 -54 -22 -167 72 -167 69 0 98 54 64 120 -26 50 -99
75 -136 47z"/>
<path d="M3450 1424 c0 -6 7 -19 16 -30 14 -18 14 -18 3 6 -14 31 -19 36 -19
24z"/>
<path d="M2551 1404 c0 -11 3 -14 6 -6 3 7 2 16 -1 19 -3 4 -6 -2 -5 -13z"/>
<path d="M2655 1410 c-3 -5 1 -10 9 -10 9 0 16 5 16 10 0 6 -4 10 -9 10 -6 0
-13 -4 -16 -10z"/>
<path d="M3699 1368 c-39 -52 -115 -128 -128 -128 -5 0 -14 -7 -21 -15 -10
-12 -10 -15 1 -15 7 0 3 -7 -10 -17 -15 -10 -50 -18 -95 -20 -72 -4 -105 -13
-47 -13 19 0 30 -4 26 -10 -3 -5 -17 -10 -30 -10 -36 0 -55 -10 -55 -30 0 -32
66 -70 170 -97 136 -34 277 36 325 161 15 38 16 54 6 107 -6 34 -17 69 -26 79
-8 9 -12 20 -8 23 3 4 -8 7 -25 7 -18 0 -32 5 -32 10 0 21 -20 8 -51 -32z m56
-122 c14 -21 14 -28 3 -48 -38 -67 -107 -102 -194 -96 l-48 3 44 30 c24 17 73
54 109 82 36 29 67 53 68 53 2 0 10 -11 18 -24z"/>
<path d="M2661 1381 c-10 -6 -5 -11 18 -16 29 -6 51 -1 40 9 -12 10 -46 14
-58 7z"/>
<path d="M2578 1373 c12 -2 32 -2 45 0 12 2 2 4 -23 4 -25 0 -35 -2 -22 -4z"/>
<path d="M2433 1327 c-29 -32 -34 -43 -27 -61 4 -11 11 -13 29 -6 13 5 25 7
28 4 4 -5 -3 78 -7 83 -2 2 -12 -7 -23 -20z"/>
<path d="M3420 1326 c0 -8 -12 -28 -26 -45 -27 -32 -19 -44 9 -13 16 18 34 72
23 72 -3 0 -6 -6 -6 -14z"/>
<path d="M3192 1018 c-6 -56 -9 -104 -7 -107 3 -2 20 -5 38 -6 34 -3 34 -3 41
48 12 101 9 121 -24 145 -16 12 -31 22 -33 22 -2 0 -9 -46 -15 -102z"/>
<path d="M3284 980 l-10 -80 51 1 c65 2 164 -11 171 -22 3 -5 18 -9 35 -9 16
0 29 -4 29 -10 0 -5 11 -10 24 -10 14 0 28 -4 31 -10 9 -14 45 -12 74 4 23 13
23 13 -35 58 -77 59 -113 77 -181 89 -44 8 -125 39 -174 66 -3 2 -10 -33 -15
-77z m123 4 c-3 -3 -12 -4 -19 -1 -8 3 -5 6 6 6 11 1 17 -2 13 -5z m-80 -36
c-3 -8 -6 -5 -6 6 -1 11 2 17 5 13 3 -3 4 -12 1 -19z m288 -67 c3 -5 2 -12 -3
-15 -5 -3 -9 1 -9 9 0 17 3 19 12 6z m40 -1 c3 -6 -1 -7 -9 -4 -18 7 -21 14
-7 14 6 0 13 -4 16 -10z"/>
<path d="M2600 485 c-11 -13 -10 -14 4 -9 9 3 23 1 31 -6 17 -14 47 -10 37 6
-13 20 -59 25 -72 9z"/>
<path d="M2660 440 c0 -5 9 -10 20 -10 11 0 20 5 20 10 0 6 -9 10 -20 10 -11
0 -20 -4 -20 -10z"/>
<path d="M2680 400 c0 -5 -9 -10 -19 -10 -11 0 -22 -4 -25 -8 -3 -5 11 -6 31
-3 36 6 59 31 29 31 -9 0 -16 -4 -16 -10z"/>
<path d="M2778 383 c7 -3 16 -2 19 1 4 3 -2 6 -13 5 -11 0 -14 -3 -6 -6z"/>
<path d="M2378 373 c7 -3 16 -2 19 1 4 3 -2 6 -13 5 -11 0 -14 -3 -6 -6z"/>
<path d="M2488 373 c7 -3 16 -2 19 1 4 3 -2 6 -13 5 -11 0 -14 -3 -6 -6z"/>
<path d="M2753 363 c9 -2 25 -2 35 0 9 3 1 5 -18 5 -19 0 -27 -2 -17 -5z"/>
<path d="M2603 353 c9 -2 23 -2 30 0 6 3 -1 5 -18 5 -16 0 -22 -2 -12 -5z"/>
<path d="M4336 555 c10 -8 24 -14 29 -14 6 0 1 6 -9 14 -11 8 -24 15 -30 15
-5 0 -1 -7 10 -15z"/>
<path d="M1750 5420 c-11 -7 -2 -10 33 -11 117 -3 139 0 77 12 -62 11 -92 10
-110 -1z"/>
<path d="M1935 5412 c11 -9 30 -28 43 -42 l22 -24 0 42 0 42 -42 0 c-42 0 -42
-1 -23 -18z"/>
<path d="M2149 5428 c-6 -20 -3 -65 5 -70 25 -17 36 -7 36 32 0 33 -3 40 -20
40 -11 0 -20 -1 -21 -2z"/>
<path d="M2257 5423 c-3 -5 -7 -21 -8 -38 -4 -28 -2 -30 30 -28 18 1 46 11 62
22 15 12 32 21 38 21 5 0 11 7 15 15 4 10 -1 15 -15 15 -11 0 -18 -4 -14 -9 3
-5 1 -12 -5 -16 -5 -3 -10 0 -10 7 -1 7 -12 0 -25 -17 l-25 -30 6 33 c6 29 4
32 -19 32 -14 0 -28 -3 -30 -7z"/>
<path d="M1970 5330 c6 -11 13 -20 16 -20 2 0 0 9 -6 20 -6 11 -13 20 -16 20
-2 0 0 -9 6 -20z"/>
<path d="M1777 5303 c-24 -23 12 -55 38 -33 12 10 12 14 0 26 -15 15 -28 18
-38 7z"/>
<path d="M1900 5211 c0 -28 19 -36 38 -17 15 15 15 18 2 26 -24 15 -40 12 -40
-9z"/>
<path d="M1720 5035 c0 -18 10 -31 33 -45 37 -23 46 -24 67 -9 11 8 12 12 3
16 -7 2 -13 11 -13 18 0 19 -39 45 -67 45 -18 0 -23 -6 -23 -25z"/>
<path d="M1383 4708 c5 -15 -17 -64 -41 -90 -13 -16 -13 -18 0 -18 24 0 50 36
58 80 6 32 4 40 -7 40 -8 0 -13 -6 -10 -12z"/>
<path d="M1770 4665 c-7 -9 -10 -18 -7 -21 3 -3 10 4 17 15 13 25 8 27 -10 6z"/>
<path d="M1485 4641 c-18 -7 -17 -9 12 -24 45 -24 57 -21 36 8 -20 27 -20 27
-48 16z"/>
<path d="M1571 4611 c-6 -11 -7 -22 -2 -25 5 -3 11 4 14 16 8 30 1 35 -12 9z"/>
<path d="M1278 4523 c7 -3 16 -2 19 1 4 3 -2 6 -13 5 -11 0 -14 -3 -6 -6z"/>
<path d="M4992 4522 c-36 -11 -91 -60 -112 -102 -23 -46 -26 -117 -6 -173 51
-143 239 -155 322 -20 23 37 36 97 14 63 -7 -11 -10 -5 -10 23 0 20 -5 37 -11
37 -23 0 -49 -22 -49 -41 0 -15 -4 -19 -16 -15 -12 5 -15 2 -10 -9 3 -9 2 -13
-3 -10 -5 3 -12 1 -16 -5 -8 -13 -41 -13 -68 1 l-21 12 23 9 c20 7 21 11 11
24 -10 12 -15 12 -21 2 -9 -15 -14 -11 -23 18 -4 14 1 27 19 44 23 21 28 22
63 11 32 -11 44 -10 80 4 36 15 42 21 36 39 -18 61 -128 109 -202 88z m26 -86
c-34 -15 -83 -64 -92 -92 -8 -25 9 -74 24 -74 6 0 8 5 5 10 -11 17 -14 65 -6
78 4 8 8 -3 9 -25 3 -68 5 -73 31 -79 14 -3 36 -10 47 -16 12 -5 32 -7 45 -3
24 8 24 8 5 -14 -35 -39 -120 -21 -151 32 -12 20 -18 49 -18 81 1 44 5 54 37
83 23 22 45 33 63 32 l28 -1 -27 -12z"/>
<path d="M5298 4473 c7 -3 16 -2 19 1 4 3 -2 6 -13 5 -11 0 -14 -3 -6 -6z"/>
<path d="M5410 4470 c0 -6 -22 -24 -50 -41 -27 -17 -50 -37 -50 -45 0 -22 16
-17 52 16 18 17 38 30 45 30 7 0 13 4 13 9 0 5 3 16 6 25 3 9 1 16 -5 16 -6 0
-11 -5 -11 -10z"/>
<path d="M5260 4406 c0 -9 5 -16 10 -16 6 0 10 4 10 9 0 6 -4 13 -10 16 -5 3
-10 -1 -10 -9z"/>
<path d="M2367 4392 c-25 -27 -21 -58 11 -82 l27 -22 3 28 c5 34 -6 94 -17 94
-4 0 -15 -8 -24 -18z"/>
<path d="M5380 4388 c0 -4 9 -8 20 -8 11 0 20 4 20 8 0 4 -9 8 -20 8 -11 0
-20 -4 -20 -8z"/>
<path d="M5410 4355 c-13 -16 -6 -65 10 -65 6 0 10 18 10 40 0 44 -2 47 -20
25z"/>
<path d="M5350 4328 c0 -19 13 -42 40 -70 45 -49 54 -33 13 20 -16 20 -33 45
-40 56 -12 20 -12 20 -13 -6z"/>
<path d="M5060 4320 c0 -5 5 -10 10 -10 6 0 10 5 10 10 0 6 -4 10 -10 10 -5 0
-10 -4 -10 -10z"/>
<path d="M2362 4268 c2 -6 10 -14 16 -16 7 -2 10 2 6 12 -7 18 -28 22 -22 4z"/>
<path d="M5317 4243 c-14 -13 -6 -25 13 -20 16 4 19 1 16 -16 -3 -12 -5 -25
-5 -28 -1 -9 -61 -6 -61 3 0 16 -28 -5 -33 -24 -5 -16 -3 -18 6 -9 20 20 29
12 25 -24 -3 -23 0 -35 9 -35 6 0 33 -20 59 -44 29 -28 52 -42 62 -38 9 3 13
1 9 -4 -3 -6 -2 -16 4 -24 6 -11 9 -2 9 28 0 23 -4 42 -10 42 -5 0 -13 12 -16
28 -4 15 -20 42 -37 60 -17 17 -26 32 -19 32 7 0 11 3 10 8 0 4 2 15 6 25 5 9
6 24 2 32 -5 15 -37 21 -49 8z"/>
<path d="M2525 4190 c-3 -5 -1 -10 4 -10 6 0 11 5 11 10 0 6 -2 10 -4 10 -3 0
-8 -4 -11 -10z"/>
<path d="M5175 4130 c-4 -12 -5 -24 -2 -27 3 -2 8 5 12 17 4 12 5 24 2 27 -3
2 -8 -5 -12 -17z"/>
<path d="M5127 4110 c-9 -11 -13 -20 -9 -21 4 0 -4 -5 -17 -10 -13 -5 -33 -7
-44 -3 -11 4 -17 2 -14 -3 4 -6 -5 -16 -18 -23 -20 -11 -27 -11 -40 0 -8 7
-13 16 -10 20 8 13 -74 43 -112 42 -53 -2 -123 -55 -123 -94 0 -10 -4 -18 -10
-18 -22 0 20 -121 53 -155 24 -23 72 -42 123 -48 42 -5 52 -3 62 13 6 10 21
20 33 22 24 3 57 50 58 82 2 40 25 84 46 88 38 8 46 -1 30 -33 -9 -16 -13 -29
-10 -29 12 0 -25 -56 -54 -84 -25 -24 -31 -38 -31 -70 0 -23 -4 -57 -9 -77 -5
-20 -4 -43 0 -52 15 -25 79 -86 79 -73 0 6 9 -2 19 -18 11 -16 27 -33 35 -38
9 -5 16 -16 16 -23 0 -8 4 -15 9 -15 5 0 12 -9 16 -19 3 -11 15 -21 26 -23 24
-3 51 -70 43 -104 -8 -31 47 -166 65 -159 8 3 32 -8 53 -25 l38 -31 0 374 0
374 -78 65 c-46 39 -87 82 -97 105 -14 27 -20 33 -23 20 -2 -9 8 -31 23 -49
14 -17 24 -36 21 -43 -2 -7 27 -43 65 -80 38 -37 69 -68 69 -70 0 -1 -12 -3
-27 -3 -21 0 -47 19 -108 77 -44 42 -94 88 -111 102 -30 24 -31 28 -24 75 4
27 7 50 6 51 -1 1 -10 -6 -19 -17z"/>
<path d="M3966 4111 c-4 -7 -5 -15 -2 -18 9 -9 19 4 14 18 -4 11 -6 11 -12 0z"/>
<path d="M5157 4076 c-4 -10 -5 -21 -2 -24 9 -9 17 6 13 25 -3 17 -4 17 -11
-1z"/>
<path d="M4440 3310 c0 -22 5 -40 10 -40 6 0 10 18 10 40 0 22 -4 40 -10 40
-5 0 -10 -18 -10 -40z"/>
<path d="M622 3178 c-21 -21 -13 -28 29 -28 41 0 78 -14 91 -34 4 -6 10 -7 15
-3 4 4 -10 23 -30 42 -40 36 -82 46 -105 23z"/>
<path d="M1739 3078 c-8 -16 -2 -58 8 -58 8 0 13 12 13 30 0 17 -4 30 -10 30
-5 0 -11 -1 -11 -2z"/>
<path d="M203 2983 c-18 -3 -23 -11 -23 -33 0 -16 -7 -36 -16 -45 -21 -20 -16
-25 27 -25 139 1 172 12 184 62 6 23 3 26 -37 32 -60 11 -109 14 -135 9z"/>
<path d="M4857 2884 c-4 -4 -4 -11 -1 -15 7 -13 44 -11 44 2 0 5 -4 7 -10 4
-5 -3 -10 -1 -10 4 0 12 -13 15 -23 5z"/>
<path d="M0 2854 c0 -30 16 -28 38 4 14 21 13 22 -12 22 -21 0 -26 -5 -26 -26z"/>
<path d="M7 2663 c-6 -11 9 -49 22 -58 6 -3 11 -15 11 -25 0 -10 12 -32 26
-47 15 -15 25 -23 23 -18 -3 6 -11 24 -18 40 -8 17 -22 49 -32 73 -19 43 -24
48 -32 35z"/>
<path d="M985 2490 c-7 -12 3 -50 13 -50 12 0 33 40 27 50 -8 13 -32 13 -40 0z"/>
</g>
</svg>
