<svg xmlns="http://www.w3.org/2000/svg" xmlns:xlink="http://www.w3.org/1999/xlink" width="1125" viewBox="0 0 1125 225" height="225" version="1.0"><defs><g id="q"><path d="M 1.6875 -10.28125 C 1.6875 -12.164062 2.160156 -13.914062 3.109375 -15.53125 C 4.054688 -17.144531 5.332031 -18.429688 6.9375 -19.390625 C 8.539062 -20.347656 10.296875 -20.828125 12.203125 -20.828125 C 14.078125 -20.828125 15.820312 -20.347656 17.4375 -19.390625 C 19.050781 -18.429688 20.335938 -17.144531 21.296875 -15.53125 C 22.265625 -13.914062 22.75 -12.164062 22.75 -10.28125 C 22.75 -8.382812 22.269531 -6.628906 21.3125 -5.015625 C 20.363281 -3.398438 19.078125 -2.117188 17.453125 -1.171875 C 15.828125 -0.234375 14.078125 0.234375 12.203125 0.234375 C 10.296875 0.234375 8.535156 -0.226562 6.921875 -1.15625 C 5.304688 -2.09375 4.03125 -3.363281 3.09375 -4.96875 C 2.15625 -6.570312 1.6875 -8.34375 1.6875 -10.28125 Z M 4.53125 -10.265625 C 4.53125 -8.859375 4.867188 -7.554688 5.546875 -6.359375 C 6.234375 -5.160156 7.171875 -4.207031 8.359375 -3.5 C 9.546875 -2.800781 10.84375 -2.453125 12.25 -2.453125 C 13.65625 -2.453125 14.941406 -2.796875 16.109375 -3.484375 C 17.285156 -4.179688 18.207031 -5.132812 18.875 -6.34375 C 19.550781 -7.550781 19.890625 -8.863281 19.890625 -10.28125 C 19.890625 -11.707031 19.546875 -13.03125 18.859375 -14.25 C 18.179688 -15.46875 17.253906 -16.425781 16.078125 -17.125 C 14.898438 -17.832031 13.609375 -18.1875 12.203125 -18.1875 C 10.796875 -18.1875 9.503906 -17.828125 8.328125 -17.109375 C 7.148438 -16.398438 6.222656 -15.4375 5.546875 -14.21875 C 4.867188 -13 4.53125 -11.679688 4.53125 -10.265625 Z M 4.53125 -10.265625"/></g><g id="r"><path d="M 13.53125 -11.796875 L 7.234375 0.34375 L 7.09375 0.34375 L 0.546875 -11.796875 L 3.703125 -11.796875 L 7.265625 -4.28125 L 10.578125 -11.796875 Z M 13.53125 -11.796875"/></g><g id="s"><path d="M 7.84375 -2 C 8.820312 -2 9.78125 -2.335938 10.71875 -3.015625 L 11.9375 -1.046875 C 11.3125 -0.628906 10.632812 -0.300781 9.90625 -0.0625 C 9.175781 0.164062 8.46875 0.28125 7.78125 0.28125 C 6.46875 0.28125 5.320312 0.0078125 4.34375 -0.53125 C 3.363281 -1.070312 2.609375 -1.816406 2.078125 -2.765625 C 1.546875 -3.710938 1.28125 -4.785156 1.28125 -5.984375 C 1.28125 -7.140625 1.566406 -8.195312 2.140625 -9.15625 C 2.722656 -10.125 3.519531 -10.882812 4.53125 -11.4375 C 5.539062 -12 6.644531 -12.28125 7.84375 -12.28125 C 9.375 -12.28125 10.65625 -11.828125 11.6875 -10.921875 C 12.726562 -10.023438 13.441406 -8.769531 13.828125 -7.15625 L 4.46875 -3.875 C 4.8125 -3.289062 5.269531 -2.832031 5.84375 -2.5 C 6.425781 -2.164062 7.09375 -2 7.84375 -2 Z M 7.640625 -10.171875 C 6.554688 -10.171875 5.660156 -9.789062 4.953125 -9.03125 C 4.253906 -8.269531 3.90625 -7.300781 3.90625 -6.125 C 3.90625 -5.84375 3.914062 -5.625 3.9375 -5.46875 L 10.796875 -8.015625 C 10.515625 -8.660156 10.113281 -9.179688 9.59375 -9.578125 C 9.070312 -9.972656 8.421875 -10.171875 7.640625 -10.171875 Z M 7.640625 -10.171875"/></g><g id="t"><path d="M 4.875 -9 C 5.175781 -9.644531 5.609375 -10.210938 6.171875 -10.703125 C 6.734375 -11.203125 7.328125 -11.582031 7.953125 -11.84375 C 8.578125 -12.113281 9.128906 -12.257812 9.609375 -12.28125 L 9.484375 -9.640625 C 8.628906 -9.671875 7.851562 -9.492188 7.15625 -9.109375 C 6.46875 -8.734375 5.925781 -8.207031 5.53125 -7.53125 C 5.144531 -6.863281 4.953125 -6.148438 4.953125 -5.390625 L 4.953125 0 L 2.3125 0 L 2.3125 -11.796875 L 4.671875 -11.796875 Z M 4.875 -9"/></g><g id="v"><path d="M 6.125 -16.984375 L 6.125 -11.765625 L 9.34375 -11.765625 L 9.34375 -9.65625 L 6.125 -9.65625 L 6.125 0 L 3.453125 0 L 3.453125 -9.65625 L 1.28125 -9.65625 L 1.28125 -11.765625 L 3.453125 -11.765625 L 3.453125 -16.984375 Z M 6.125 -16.984375"/></g><g id="w"><path d="M 9.640625 -12.25 C 10.734375 -12.25 11.640625 -11.921875 12.359375 -11.265625 C 13.085938 -10.609375 13.460938 -9.757812 13.484375 -8.71875 L 13.484375 0 L 10.796875 0 L 10.796875 -7.8125 C 10.765625 -8.476562 10.566406 -9 10.203125 -9.375 C 9.835938 -9.757812 9.296875 -9.957031 8.578125 -9.96875 C 7.890625 -9.96875 7.269531 -9.773438 6.71875 -9.390625 C 6.175781 -9.015625 5.742188 -8.484375 5.421875 -7.796875 C 5.109375 -7.117188 4.953125 -6.363281 4.953125 -5.53125 L 4.953125 0 L 2.3125 0 L 2.3125 -22.09375 L 4.90625 -22.09375 L 4.90625 -9.65625 C 5.34375 -10.4375 5.972656 -11.0625 6.796875 -11.53125 C 7.617188 -12.007812 8.566406 -12.25 9.640625 -12.25 Z M 9.640625 -12.25"/></g><g id="x"><path d="M 14.3125 -2.671875 L 14.3125 0 L 1.53125 0 L 2.484375 -0.9375 C 4.421875 -2.875 5.929688 -4.441406 7.015625 -5.640625 C 8.097656 -6.835938 9.003906 -8.046875 9.734375 -9.265625 C 10.460938 -10.492188 10.828125 -11.660156 10.828125 -12.765625 C 10.828125 -13.921875 10.484375 -14.800781 9.796875 -15.40625 C 9.117188 -16.019531 8.285156 -16.328125 7.296875 -16.328125 C 6.515625 -16.328125 5.863281 -16.164062 5.34375 -15.84375 C 4.820312 -15.519531 4.441406 -15.109375 4.203125 -14.609375 C 3.960938 -14.117188 3.84375 -13.628906 3.84375 -13.140625 C 3.84375 -11.921875 4.210938 -10.921875 4.953125 -10.140625 L 3.28125 -8.609375 C 2.65625 -8.984375 2.144531 -9.625 1.75 -10.53125 C 1.363281 -11.4375 1.171875 -12.285156 1.171875 -13.078125 C 1.171875 -14.128906 1.429688 -15.101562 1.953125 -16 C 2.472656 -16.90625 3.226562 -17.628906 4.21875 -18.171875 C 5.207031 -18.710938 6.382812 -18.984375 7.75 -18.984375 C 8.90625 -18.984375 9.9375 -18.710938 10.84375 -18.171875 C 11.75 -17.628906 12.445312 -16.898438 12.9375 -15.984375 C 13.4375 -15.078125 13.6875 -14.082031 13.6875 -13 C 13.6875 -11.914062 13.425781 -10.832031 12.90625 -9.75 C 12.394531 -8.664062 11.765625 -7.644531 11.015625 -6.6875 C 10.265625 -5.738281 9.265625 -4.5625 8.015625 -3.15625 L 7.578125 -2.671875 Z M 14.3125 -2.671875"/></g><g id="y"><path d="M 8.890625 0.078125 C 7.347656 0.078125 5.984375 -0.300781 4.796875 -1.0625 C 3.609375 -1.832031 2.679688 -2.941406 2.015625 -4.390625 C 1.359375 -5.835938 1.03125 -7.53125 1.03125 -9.46875 C 1.03125 -12.5625 1.726562 -14.921875 3.125 -16.546875 C 4.519531 -18.171875 6.441406 -18.972656 8.890625 -18.953125 C 10.429688 -18.953125 11.796875 -18.570312 12.984375 -17.8125 C 14.171875 -17.050781 15.097656 -15.945312 15.765625 -14.5 C 16.429688 -13.0625 16.765625 -11.382812 16.765625 -9.46875 C 16.765625 -7.488281 16.429688 -5.773438 15.765625 -4.328125 C 15.097656 -2.890625 14.171875 -1.789062 12.984375 -1.03125 C 11.796875 -0.269531 10.429688 0.0976562 8.890625 0.078125 Z M 8.859375 -2.5625 C 10.472656 -2.5625 11.710938 -3.1875 12.578125 -4.4375 C 13.441406 -5.695312 13.882812 -7.390625 13.90625 -9.515625 C 13.882812 -11.585938 13.441406 -13.234375 12.578125 -14.453125 C 11.710938 -15.679688 10.472656 -16.296875 8.859375 -16.296875 C 7.265625 -16.296875 6.039062 -15.675781 5.1875 -14.4375 C 4.332031 -13.207031 3.894531 -11.550781 3.875 -9.46875 C 3.894531 -7.351562 4.332031 -5.671875 5.1875 -4.421875 C 6.039062 -3.179688 7.265625 -2.5625 8.859375 -2.5625 Z M 8.859375 -2.5625"/></g><g id="z"><path d="M 18.09375 -1.53125 C 17.425781 -1.101562 16.582031 -0.703125 15.5625 -0.328125 C 14.550781 0.046875 13.445312 0.234375 12.25 0.234375 C 10.144531 0.234375 8.289062 -0.226562 6.6875 -1.15625 C 5.082031 -2.09375 3.847656 -3.347656 2.984375 -4.921875 C 2.117188 -6.503906 1.6875 -8.242188 1.6875 -10.140625 C 1.6875 -12.179688 2.117188 -14.007812 2.984375 -15.625 C 3.859375 -17.25 5.070312 -18.519531 6.625 -19.4375 C 8.175781 -20.363281 9.929688 -20.828125 11.890625 -20.828125 C 13.046875 -20.828125 14.125 -20.675781 15.125 -20.375 C 16.132812 -20.070312 17.039062 -19.675781 17.84375 -19.1875 L 16.734375 -16.59375 C 15.148438 -17.65625 13.5625 -18.1875 11.96875 -18.1875 C 10.632812 -18.1875 9.398438 -17.832031 8.265625 -17.125 C 7.140625 -16.425781 6.238281 -15.472656 5.5625 -14.265625 C 4.894531 -13.054688 4.5625 -11.726562 4.5625 -10.28125 C 4.5625 -8.800781 4.867188 -7.460938 5.484375 -6.265625 C 6.097656 -5.066406 6.976562 -4.128906 8.125 -3.453125 C 9.28125 -2.785156 10.609375 -2.453125 12.109375 -2.453125 C 13.953125 -2.453125 15.554688 -2.972656 16.921875 -4.015625 Z M 18.09375 -1.53125"/></g><g id="A"><path d="M 9.640625 -12.25 C 10.734375 -12.25 11.640625 -11.921875 12.359375 -11.265625 C 13.085938 -10.609375 13.460938 -9.757812 13.484375 -8.71875 L 13.484375 0 L 10.796875 0 L 10.796875 -7.8125 C 10.765625 -8.476562 10.566406 -9 10.203125 -9.375 C 9.835938 -9.757812 9.296875 -9.957031 8.578125 -9.96875 C 7.535156 -9.96875 6.671875 -9.550781 5.984375 -8.71875 C 5.296875 -7.882812 4.953125 -6.820312 4.953125 -5.53125 L 4.953125 0 L 2.3125 0 L 2.3125 -11.796875 L 4.703125 -11.796875 L 4.875 -9.515625 C 5.289062 -10.367188 5.914062 -11.035156 6.75 -11.515625 C 7.59375 -12.003906 8.554688 -12.25 9.640625 -12.25 Z M 9.640625 -12.25"/></g><g id="B"><path d="M 13.28125 -11.796875 L 13.28125 0 L 10.890625 0 L 10.71875 -2.25 C 10.320312 -1.445312 9.703125 -0.796875 8.859375 -0.296875 C 8.023438 0.203125 7.097656 0.453125 6.078125 0.453125 C 4.992188 0.453125 4.101562 0.125 3.40625 -0.53125 C 2.707031 -1.1875 2.34375 -2.035156 2.3125 -3.078125 L 2.3125 -11.796875 L 4.953125 -11.796875 L 4.953125 -4.015625 C 4.992188 -3.347656 5.191406 -2.820312 5.546875 -2.4375 C 5.898438 -2.050781 6.425781 -1.847656 7.125 -1.828125 C 7.769531 -1.828125 8.359375 -2.019531 8.890625 -2.40625 C 9.421875 -2.800781 9.84375 -3.335938 10.15625 -4.015625 C 10.46875 -4.703125 10.625 -5.460938 10.625 -6.296875 L 10.625 -11.796875 Z M 13.28125 -11.796875"/></g><g id="C"><path d="M 13.53125 -11.796875 L 5.921875 5.671875 L 3.3125 5.671875 L 6.015625 -0.40625 L 0.546875 -11.796875 L 3.53125 -11.796875 L 7.359375 -3.390625 L 11.09375 -11.796875 Z M 13.53125 -11.796875"/></g><g id="D"><path d="M 14.421875 -11.796875 L 14.421875 0 L 11.765625 0 L 11.765625 -1.9375 C 11.347656 -1.382812 10.738281 -0.875 9.9375 -0.40625 C 9.144531 0.0507812 8.242188 0.28125 7.234375 0.28125 C 6.117188 0.28125 5.109375 0.0390625 4.203125 -0.4375 C 3.296875 -0.925781 2.582031 -1.632812 2.0625 -2.5625 C 1.539062 -3.5 1.28125 -4.613281 1.28125 -5.90625 C 1.28125 -7.195312 1.550781 -8.320312 2.09375 -9.28125 C 2.632812 -10.238281 3.363281 -10.976562 4.28125 -11.5 C 5.207031 -12.019531 6.234375 -12.28125 7.359375 -12.28125 C 8.359375 -12.28125 9.226562 -12.0625 9.96875 -11.625 C 10.71875 -11.1875 11.316406 -10.617188 11.765625 -9.921875 L 11.96875 -11.796875 Z M 7.953125 -1.90625 C 8.921875 -1.90625 9.75 -2.175781 10.4375 -2.71875 C 11.132812 -3.257812 11.578125 -4 11.765625 -4.9375 L 11.765625 -7.265625 C 11.535156 -8.097656 11.0625 -8.773438 10.34375 -9.296875 C 9.625 -9.828125 8.796875 -10.09375 7.859375 -10.09375 C 7.160156 -10.09375 6.507812 -9.921875 5.90625 -9.578125 C 5.3125 -9.234375 4.835938 -8.75 4.484375 -8.125 C 4.140625 -7.507812 3.96875 -6.816406 3.96875 -6.046875 C 3.96875 -5.285156 4.144531 -4.585938 4.5 -3.953125 C 4.863281 -3.328125 5.347656 -2.828125 5.953125 -2.453125 C 6.566406 -2.085938 7.234375 -1.90625 7.953125 -1.90625 Z M 7.953125 -1.90625"/></g><g id="E"><path d="M 14.625 -22.09375 L 14.625 0 L 11.9375 0 L 11.9375 -1.859375 C 11.375 -1.191406 10.675781 -0.664062 9.84375 -0.28125 C 9.019531 0.09375 8.113281 0.28125 7.125 0.28125 C 6.019531 0.28125 5.019531 0.015625 4.125 -0.515625 C 3.238281 -1.046875 2.539062 -1.789062 2.03125 -2.75 C 1.53125 -3.707031 1.28125 -4.816406 1.28125 -6.078125 C 1.28125 -7.347656 1.546875 -8.453125 2.078125 -9.390625 C 2.609375 -10.328125 3.335938 -11.039062 4.265625 -11.53125 C 5.203125 -12.03125 6.257812 -12.28125 7.4375 -12.28125 C 8.332031 -12.28125 9.191406 -12.09375 10.015625 -11.71875 C 10.835938 -11.351562 11.488281 -10.847656 11.96875 -10.203125 L 11.96875 -22.09375 Z M 7.953125 -2 C 8.972656 -2 9.835938 -2.269531 10.546875 -2.8125 C 11.265625 -3.363281 11.726562 -4.109375 11.9375 -5.046875 L 11.9375 -7.265625 C 11.707031 -8.117188 11.222656 -8.816406 10.484375 -9.359375 C 9.742188 -9.898438 8.898438 -10.171875 7.953125 -10.171875 C 7.234375 -10.171875 6.566406 -9.992188 5.953125 -9.640625 C 5.347656 -9.296875 4.863281 -8.8125 4.5 -8.1875 C 4.144531 -7.570312 3.96875 -6.875 3.96875 -6.09375 C 3.96875 -5.332031 4.144531 -4.640625 4.5 -4.015625 C 4.863281 -3.390625 5.347656 -2.894531 5.953125 -2.53125 C 6.566406 -2.175781 7.234375 -2 7.953125 -2 Z M 7.953125 -2"/></g><g id="F"><path d="M 16.359375 -20.609375 L 16.359375 -17.953125 L 5.734375 -17.953125 L 5.734375 -11.6875 L 15.21875 -11.6875 L 15.21875 -9.03125 L 5.734375 -9.03125 L 5.734375 -2.671875 L 16.765625 -2.671875 L 16.765625 0 L 2.96875 0 L 2.96875 -20.609375 Z M 16.359375 -20.609375"/></g><g id="G"><path d="M 4.953125 -22.09375 L 4.953125 0 L 2.3125 0 L 2.3125 -22.09375 Z M 4.953125 -22.09375"/></g><g id="H"><path d="M 6.4375 -18.75 L 6.4375 0 L 3.640625 0 L 3.640625 -16.109375 L 1.515625 -16.109375 L 1.515625 -18.75 Z M 6.4375 -18.75"/></g><g id="I"><path d="M 5.640625 0.25 C 4.765625 0.25 3.929688 0.0976562 3.140625 -0.203125 C 2.359375 -0.503906 1.71875 -0.945312 1.21875 -1.53125 L 2.359375 -3.078125 C 2.835938 -2.617188 3.335938 -2.265625 3.859375 -2.015625 C 4.378906 -1.773438 4.898438 -1.65625 5.421875 -1.65625 C 6.046875 -1.65625 6.554688 -1.773438 6.953125 -2.015625 C 7.347656 -2.265625 7.546875 -2.644531 7.546875 -3.15625 C 7.546875 -3.5625 7.421875 -3.882812 7.171875 -4.125 C 6.929688 -4.375 6.65625 -4.554688 6.34375 -4.671875 C 6.03125 -4.785156 5.503906 -4.957031 4.765625 -5.1875 C 2.742188 -5.832031 1.734375 -6.984375 1.734375 -8.640625 C 1.734375 -9.628906 2.097656 -10.472656 2.828125 -11.171875 C 3.566406 -11.867188 4.59375 -12.21875 5.90625 -12.21875 C 6.738281 -12.21875 7.476562 -12.113281 8.125 -11.90625 C 8.769531 -11.695312 9.367188 -11.367188 9.921875 -10.921875 L 8.859375 -9.296875 C 8.554688 -9.617188 8.171875 -9.875 7.703125 -10.0625 C 7.242188 -10.25 6.804688 -10.351562 6.390625 -10.375 C 5.859375 -10.375 5.398438 -10.242188 5.015625 -9.984375 C 4.640625 -9.734375 4.453125 -9.390625 4.453125 -8.953125 C 4.453125 -8.585938 4.570312 -8.285156 4.8125 -8.046875 C 5.0625 -7.804688 5.316406 -7.632812 5.578125 -7.53125 C 5.847656 -7.425781 6.375 -7.253906 7.15625 -7.015625 C 8.125 -6.691406 8.878906 -6.269531 9.421875 -5.75 C 9.960938 -5.238281 10.234375 -4.546875 10.234375 -3.671875 C 10.234375 -2.535156 9.832031 -1.597656 9.03125 -0.859375 C 8.238281 -0.117188 7.109375 0.25 5.640625 0.25 Z M 5.640625 0.25"/></g><g id="e"><path d="M 22.609375 -40.535156 C 13.644531 -40.535156 7.078125 -36.082031 7.078125 -29.804688 C 7.078125 -25.121094 10.5625 -22.152344 16.101562 -22.152344 C 16.671875 -22.152344 17.242188 -22.152344 17.8125 -22.210938 C 17.699219 -17.757812 17.015625 -11.820312 15.128906 -7.765625 C 13.1875 -8.621094 11.191406 -9.25 9.25 -9.25 C 5.480469 -9.25 3.484375 -6.851562 3.484375 -4.394531 C 3.484375 -2 5.367188 0.398438 9.304688 0.398438 C 12.390625 0.398438 14.730469 -0.855469 16.558594 -3.027344 C 19.753906 -1.371094 23.351562 0.398438 26.949219 0.398438 C 36.082031 0.398438 42.421875 -7.421875 42.421875 -20.667969 C 42.421875 -33 34.597656 -40.535156 22.609375 -40.535156 Z M 26.890625 -3.195312 C 24.320312 -3.195312 21.46875 -4.625 18.554688 -6.109375 C 20.78125 -10.621094 21.695312 -16.84375 21.808594 -22.953125 C 23.066406 -23.292969 24.265625 -23.75 25.351562 -24.320312 C 26.207031 -24.777344 26.664062 -25.464844 26.664062 -26.207031 C 26.664062 -27.121094 25.921875 -27.804688 24.949219 -27.804688 C 24.320312 -27.804688 23.238281 -27.289062 21.753906 -26.71875 C 21.753906 -27.917969 21.636719 -29.117188 21.523438 -30.089844 C 21.410156 -31.289062 20.496094 -31.972656 19.527344 -31.972656 C 18.613281 -31.972656 17.699219 -31.289062 17.699219 -29.804688 L 17.8125 -25.75 C 17.242188 -25.691406 16.671875 -25.636719 16.101562 -25.636719 C 12.902344 -25.636719 10.960938 -27.175781 10.960938 -29.859375 C 10.960938 -34.371094 15.585938 -36.941406 22.609375 -36.941406 C 32.542969 -36.941406 38.425781 -31.230469 38.425781 -20.667969 C 38.425781 -9.476562 33.683594 -3.195312 26.890625 -3.195312 Z M 9.25 -3.027344 C 7.820312 -3.027344 7.136719 -3.769531 7.136719 -4.511719 C 7.136719 -5.253906 7.820312 -5.9375 9.25 -5.9375 C 10.332031 -5.9375 11.648438 -5.480469 13.132812 -4.796875 C 12.105469 -3.652344 10.789062 -3.027344 9.25 -3.027344 Z M 9.25 -3.027344"/></g><g id="l"><path d="M 66.742188 -13.304688 C 64.230469 -6.566406 62.117188 -3.195312 60.40625 -3.195312 C 59.378906 -3.195312 58.691406 -4.054688 58.691406 -6.738281 C 58.691406 -8.449219 59.605469 -22.667969 59.605469 -26.433594 C 59.605469 -32.144531 56.808594 -34.941406 52.296875 -34.941406 C 47.445312 -34.941406 43.390625 -31.574219 40.25 -25.351562 C 40.308594 -26.546875 40.308594 -27.804688 40.308594 -29.003906 C 40.308594 -37.851562 36.996094 -41.109375 32.316406 -41.109375 C 26.261719 -41.109375 21.351562 -35.511719 17.984375 -25.292969 C 17.242188 -37.910156 13.53125 -40.9375 8.679688 -40.9375 C 5.9375 -40.9375 3.882812 -39.679688 2.226562 -37.28125 C 1.710938 -36.539062 1.484375 -35.796875 1.484375 -35.167969 C 1.484375 -34.199219 2.113281 -33.457031 2.910156 -33.457031 C 3.539062 -33.457031 4.167969 -33.914062 4.625 -34.65625 C 5.824219 -36.539062 7.195312 -37.339844 8.679688 -37.339844 C 12.847656 -37.339844 14.273438 -30.714844 14.273438 -17.070312 C 14.273438 -11.875 13.015625 -4.625 13.015625 -1.882812 C 13.015625 -0.515625 13.757812 0.34375 14.902344 0.34375 C 16.042969 0.34375 16.785156 -0.457031 16.957031 -1.769531 C 17.070312 -2.683594 17.472656 -6.28125 17.871094 -10.105469 C 19.753906 -25.578125 25.464844 -37.511719 31.746094 -37.511719 C 34.65625 -37.511719 36.367188 -35.796875 36.367188 -29.230469 C 36.367188 -19.011719 34.882812 -12.390625 34.140625 -7.023438 C 34.085938 -6.621094 33.855469 -5.425781 33.855469 -5.082031 C 33.855469 -3.824219 34.597656 -3.027344 35.742188 -3.027344 C 36.769531 -3.027344 37.566406 -3.769531 37.796875 -4.910156 C 38.253906 -7.308594 38.710938 -9.878906 39.109375 -12.675781 C 41.277344 -23.636719 46.816406 -31.34375 52.125 -31.34375 C 54.238281 -31.34375 55.609375 -29.972656 55.609375 -26.320312 C 55.609375 -22.039062 54.695312 -9.589844 54.695312 -7.136719 C 54.695312 -1.882812 56.867188 0.398438 60.121094 0.398438 C 64.058594 0.398438 66.457031 -3.824219 69.484375 -12.105469 C 69.597656 -12.390625 69.65625 -12.675781 69.65625 -12.960938 C 69.65625 -13.929688 68.96875 -14.558594 68.226562 -14.558594 C 67.65625 -14.558594 67.085938 -14.160156 66.742188 -13.304688 Z M 66.742188 -13.304688"/></g><g id="f"><path d="M 5.765625 -25.75 C 7.023438 -25.75 7.992188 -26.71875 7.992188 -27.976562 C 7.992188 -29.230469 7.023438 -30.203125 5.765625 -30.203125 C 4.511719 -30.203125 3.539062 -29.230469 3.539062 -27.976562 C 3.539062 -26.71875 4.511719 -25.75 5.765625 -25.75 Z M 7.535156 0.226562 C 11.019531 0.226562 13.988281 -3.425781 17.183594 -12.105469 C 17.300781 -12.390625 17.355469 -12.675781 17.355469 -12.902344 C 17.355469 -13.875 16.671875 -14.558594 15.929688 -14.558594 C 15.359375 -14.558594 14.789062 -14.160156 14.445312 -13.304688 C 11.648438 -6.394531 9.878906 -3.3125 7.992188 -3.3125 C 6.621094 -3.3125 5.425781 -4.511719 5.425781 -8.5625 C 5.425781 -11.019531 5.710938 -14.046875 6.679688 -20.441406 C 6.910156 -21.925781 5.9375 -22.78125 4.96875 -22.78125 C 4.054688 -22.78125 3.140625 -22.152344 2.855469 -20.609375 C 2.285156 -17.414062 1.65625 -11.875 1.65625 -8.90625 C 1.65625 -2.226562 4.226562 0.226562 7.535156 0.226562 Z M 7.535156 0.226562"/></g><g id="g"><path d="M 20.953125 -13.304688 C 19.8125 -10.621094 18.441406 -8.164062 16.441406 -6.453125 C 16.5 -6.738281 16.5 -7.023438 16.5 -7.308594 C 16.5 -12.730469 10.164062 -18.441406 10.164062 -20.78125 C 10.164062 -21.867188 11.246094 -22.324219 11.246094 -23.523438 C 11.246094 -24.949219 9.878906 -25.75 8.507812 -25.75 C 6.964844 -25.75 5.308594 -24.664062 5.253906 -22.210938 C 4.167969 -19.070312 2.855469 -15.644531 1.882812 -13.304688 C 1.769531 -13.074219 1.710938 -12.789062 1.710938 -12.5625 C 1.710938 -11.703125 2.453125 -11.019531 3.253906 -11.019531 C 3.769531 -11.019531 4.339844 -11.363281 4.625 -12.105469 C 5.367188 -13.929688 6.109375 -15.929688 6.964844 -18.269531 C 9.191406 -14.84375 12.730469 -10.390625 12.730469 -7.308594 C 12.730469 -5.824219 12.160156 -4.683594 11.191406 -4.109375 C 10.675781 -4.054688 10.164062 -3.996094 9.648438 -3.996094 C 8.449219 -3.996094 7.480469 -4.226562 6.335938 -4.683594 C 5.996094 -4.796875 5.710938 -4.851562 5.425781 -4.851562 C 4.339844 -4.851562 3.652344 -4.054688 3.652344 -3.082031 C 3.652344 -2.398438 3.996094 -1.65625 4.796875 -1.085938 C 5.9375 -0.285156 7.535156 0.171875 9.136719 0.171875 C 10.847656 0.171875 12.5625 -0.34375 13.929688 -1.371094 C 18.042969 -2.796875 21.238281 -6.050781 23.695312 -12.105469 C 23.808594 -12.390625 23.863281 -12.675781 23.863281 -12.960938 C 23.863281 -13.875 23.179688 -14.5 22.4375 -14.5 C 21.867188 -14.5 21.296875 -14.160156 20.953125 -13.304688 Z M 20.953125 -13.304688"/></g><g id="h"><path d="M 25.578125 -13.304688 C 22.667969 -6.335938 21.183594 -3.539062 19.699219 -3.539062 C 18.839844 -3.539062 18.269531 -4.109375 18.269531 -5.480469 C 18.269531 -9.136719 19.183594 -14.730469 19.183594 -17.414062 C 19.183594 -20.554688 17.070312 -22.667969 13.929688 -22.667969 C 10.960938 -22.667969 8.164062 -20.953125 5.996094 -17.699219 C 6.109375 -18.898438 6.222656 -19.984375 6.222656 -20.726562 C 6.222656 -21.980469 5.367188 -22.609375 4.453125 -22.609375 C 3.539062 -22.609375 2.570312 -21.925781 2.453125 -20.667969 C 2.054688 -16.15625 1.425781 -6.335938 1.425781 -1.828125 C 1.425781 -0.570312 2.339844 0.0585938 3.253906 0.0585938 C 4.226562 0.0585938 5.195312 -0.570312 5.195312 -1.828125 C 5.195312 -3.824219 5.253906 -5.996094 5.367188 -8.222656 C 6.109375 -14.558594 9.933594 -19.183594 13.015625 -19.183594 C 14.558594 -19.183594 15.414062 -18.269531 15.414062 -16.5 C 15.414062 -14.558594 14.5 -9.363281 14.5 -5.824219 C 14.5 -1.882812 16.386719 0 19.125 0 C 22.378906 0 24.609375 -2.742188 28.320312 -12.105469 C 28.433594 -12.390625 28.488281 -12.675781 28.488281 -12.902344 C 28.488281 -13.816406 27.804688 -14.445312 27.0625 -14.445312 C 26.492188 -14.445312 25.921875 -14.101562 25.578125 -13.304688 Z M 25.578125 -13.304688"/></g><g id="i"><path d="M 23.695312 -13.304688 C 21.011719 -6.507812 17.527344 -3.140625 12.160156 -3.140625 C 8.507812 -3.140625 5.539062 -5.652344 5.253906 -10.449219 C 6.738281 -9.648438 8.679688 -9.136719 10.789062 -9.136719 C 15.816406 -9.136719 19.070312 -12.390625 19.070312 -16.613281 C 19.070312 -20.441406 16.15625 -23.238281 11.761719 -23.238281 C 5.195312 -23.238281 1.425781 -17.300781 1.425781 -11.191406 C 1.425781 -3.597656 6.222656 0.398438 11.933594 0.398438 C 18.441406 0.398438 23.292969 -3.710938 26.433594 -12.105469 C 26.546875 -12.445312 26.605469 -12.730469 26.605469 -13.015625 C 26.605469 -13.988281 25.921875 -14.558594 25.234375 -14.558594 C 24.664062 -14.558594 24.035156 -14.160156 23.695312 -13.304688 Z M 11.761719 -19.699219 C 14.160156 -19.699219 15.359375 -18.214844 15.359375 -16.558594 C 15.359375 -14.214844 13.644531 -12.273438 10.5625 -12.273438 C 9.019531 -12.273438 7.078125 -12.675781 5.425781 -13.589844 C 6.167969 -16.898438 8.449219 -19.699219 11.761719 -19.699219 Z M 11.761719 -19.699219"/></g><g id="j"><path d="M 25.292969 -13.304688 C 23.921875 -9.707031 21.351562 -4.910156 18.785156 -2.453125 C 18.785156 -2.683594 18.839844 -2.855469 18.839844 -3.027344 C 19.296875 -7.9375 19.699219 -14.902344 20.152344 -20.953125 C 20.269531 -22.378906 19.296875 -23.066406 18.328125 -23.066406 C 17.414062 -23.066406 16.441406 -22.4375 16.386719 -21.238281 C 16.273438 -19.070312 16.101562 -16.671875 15.929688 -14.160156 C 14.957031 -6.851562 10.789062 -3.484375 7.878906 -3.484375 C 5.9375 -3.484375 4.96875 -4.511719 4.96875 -6.621094 C 4.96875 -9.933594 6.335938 -15.585938 6.335938 -19.753906 C 6.335938 -21.867188 4.683594 -23.695312 2.683594 -23.695312 C 1.597656 -23.695312 0.855469 -23.007812 0.855469 -22.039062 C 0.855469 -20.554688 2.511719 -20.726562 2.511719 -18.613281 C 2.511719 -15.816406 1.199219 -10.789062 1.199219 -6.394531 C 1.199219 -2.511719 3.824219 0.0585938 7.59375 0.0585938 C 10.046875 0.0585938 12.847656 -1.484375 15.128906 -4.910156 C 15.128906 -4.226562 15.074219 -3.652344 15.015625 -3.027344 C 14.957031 -2 14.84375 -1.085938 14.789062 -0.171875 C 8.679688 2.910156 5.082031 5.425781 5.082031 9.535156 C 5.082031 12.160156 7.195312 14.273438 10.503906 14.273438 C 15.074219 14.273438 17.585938 9.820312 18.269531 3.253906 C 18.328125 2.910156 18.328125 2.570312 18.382812 2.167969 C 22.894531 -1.257812 25.976562 -6.507812 28.03125 -12.105469 C 28.148438 -12.390625 28.203125 -12.617188 28.203125 -12.847656 C 28.203125 -13.816406 27.460938 -14.445312 26.71875 -14.445312 C 26.207031 -14.445312 25.636719 -14.101562 25.292969 -13.304688 Z M 10.503906 10.734375 C 9.476562 10.734375 8.792969 10.105469 8.792969 9.136719 C 8.792969 7.363281 10.789062 5.652344 14.332031 3.769531 C 13.703125 8.679688 12.675781 10.734375 10.503906 10.734375 Z M 10.503906 10.734375"/></g><g id="m"><path d="M 24.777344 -13.304688 C 23.636719 -10.621094 22.152344 -8.964844 20.210938 -8.335938 C 20.726562 -9.820312 20.953125 -11.53125 20.953125 -13.304688 C 20.953125 -18.042969 18.839844 -21.410156 16.042969 -22.496094 C 15.015625 -22.894531 13.472656 -23.292969 12.105469 -23.292969 C 6.050781 -23.292969 1.257812 -17.355469 1.257812 -9.707031 C 1.257812 -3.652344 4.625 0.113281 9.878906 0.113281 C 13.53125 0.113281 16.613281 -1.769531 18.613281 -4.796875 C 22.210938 -5.082031 25.691406 -7.480469 27.519531 -12.105469 C 27.632812 -12.445312 27.691406 -12.789062 27.691406 -13.074219 C 27.691406 -14.046875 27.0625 -14.671875 26.320312 -14.671875 C 25.804688 -14.671875 25.179688 -14.273438 24.777344 -13.304688 Z M 16.273438 -8.164062 C 13.757812 -8.847656 11.703125 -11.132812 11.703125 -14.789062 C 11.703125 -17.699219 12.617188 -19.296875 14.101562 -19.296875 C 16.042969 -19.296875 17.183594 -16.957031 17.183594 -13.246094 C 17.183594 -11.363281 16.84375 -9.589844 16.273438 -8.164062 Z M 9.992188 -3.425781 C 6.507812 -3.425781 5.023438 -6.453125 5.023438 -9.878906 C 5.023438 -13.417969 6.566406 -17.414062 9.363281 -19.070312 C 8.679688 -17.8125 8.277344 -16.273438 8.277344 -14.558594 C 8.277344 -9.761719 10.960938 -6.566406 14.445312 -5.308594 C 13.246094 -4.109375 11.703125 -3.425781 9.992188 -3.425781 Z M 9.992188 -3.425781"/></g><g id="n"><path d="M 24.035156 -13.304688 C 23.179688 -11.304688 22.09375 -10.390625 21.066406 -10.390625 C 20.269531 -10.390625 19.46875 -10.90625 18.898438 -11.875 C 19.355469 -13.589844 19.582031 -15.414062 19.582031 -17.355469 C 19.582031 -21.183594 18.441406 -22.835938 16.785156 -22.835938 C 15.300781 -22.835938 13.988281 -21.351562 13.988281 -17.585938 C 13.988281 -15.414062 14.332031 -13.53125 14.957031 -12.046875 C 13.417969 -6.222656 9.25 -3.367188 7.308594 -3.367188 C 6.050781 -3.367188 5.195312 -4.339844 5.195312 -6.851562 C 5.195312 -11.53125 6.222656 -14.789062 6.222656 -20.667969 C 6.222656 -22.039062 5.59375 -22.722656 4.394531 -22.722656 C 3.253906 -22.722656 2.453125 -21.867188 2.453125 -20.554688 C 2.453125 -14.789062 1.425781 -12.273438 1.425781 -7.078125 C 1.425781 -2.339844 3.484375 0.171875 7.136719 0.171875 C 10.960938 0.171875 15.242188 -3.253906 17.640625 -8.449219 C 18.667969 -7.652344 19.867188 -7.25 21.066406 -7.25 C 23.179688 -7.25 25.464844 -8.734375 26.777344 -12.105469 C 26.890625 -12.332031 26.890625 -12.5625 26.890625 -12.789062 C 26.890625 -13.703125 26.207031 -14.5 25.464844 -14.5 C 24.949219 -14.5 24.378906 -14.160156 24.035156 -13.304688 Z M 24.035156 -13.304688"/></g><g id="o"><path d="M 5.082031 -32.371094 L 5.9375 -40.535156 C 6.109375 -42.019531 5.195312 -42.761719 4.28125 -42.761719 C 3.425781 -42.761719 2.511719 -42.136719 2.398438 -40.820312 L 1.597656 -32.714844 C 1.484375 -31.34375 2.453125 -30.488281 3.367188 -30.488281 C 4.167969 -30.488281 4.96875 -31.117188 5.082031 -32.371094 Z M 5.082031 -32.371094"/></g><g id="p"><path d="M 31.6875 -19.753906 C 31.230469 -19.753906 30.773438 -19.582031 30.316406 -19.070312 C 27.976562 -16.386719 25.519531 -15.816406 22.09375 -15.929688 C 20.726562 -15.984375 19.925781 -15.359375 19.925781 -14.273438 C 19.925781 -13.132812 20.894531 -12.332031 23.121094 -12.332031 C 24.09375 -12.332031 25.0625 -12.445312 25.976562 -12.675781 C 26.378906 -11.761719 26.546875 -10.621094 26.546875 -9.648438 C 26.546875 -5.710938 23.921875 -3.082031 20.097656 -3.082031 C 13.53125 -3.082031 8.5625 -8.050781 8.5625 -15.929688 C 8.5625 -29.0625 16.558594 -36.996094 22.835938 -36.996094 C 25.0625 -36.996094 26.207031 -35.855469 26.207031 -33.683594 C 26.207031 -32.316406 25.921875 -31.289062 25.636719 -30.375 C 25.351562 -29.460938 25.0625 -28.773438 25.0625 -28.089844 C 25.0625 -27.175781 25.804688 -26.492188 26.71875 -26.492188 C 27.804688 -26.492188 28.773438 -27.632812 29.402344 -29.289062 C 29.859375 -30.546875 30.203125 -32.085938 30.203125 -33.683594 C 30.203125 -37.683594 27.289062 -40.59375 22.835938 -40.59375 C 13.988281 -40.59375 4.566406 -31.171875 4.566406 -15.929688 C 4.566406 -6.109375 11.191406 0.515625 19.984375 0.515625 C 25.921875 0.515625 30.429688 -3.652344 30.429688 -9.707031 C 30.429688 -10.90625 30.144531 -12.503906 29.460938 -13.929688 C 30.773438 -14.617188 31.914062 -15.53125 32.714844 -16.558594 C 33.113281 -17.070312 33.285156 -17.585938 33.285156 -18.042969 C 33.285156 -19.011719 32.542969 -19.753906 31.6875 -19.753906 Z M 52.582031 -13.304688 C 50.414062 -7.9375 48.128906 -3.3125 45.21875 -3.3125 C 43.335938 -3.3125 41.851562 -4.796875 41.851562 -7.878906 C 41.851562 -11.761719 43.960938 -15.699219 46.1875 -19.011719 C 46.53125 -19.527344 46.816406 -20.152344 46.816406 -20.726562 C 46.816406 -21.808594 46.019531 -22.496094 45.105469 -22.496094 C 44.078125 -22.496094 43.621094 -21.980469 42.363281 -21.980469 C 38.480469 -21.980469 37.339844 -24.664062 35.683594 -24.664062 C 34.828125 -24.664062 34.085938 -23.921875 34.085938 -22.894531 C 34.085938 -20.496094 38.652344 -18.554688 41.734375 -18.554688 C 39.28125 -14.617188 38.082031 -11.132812 38.082031 -7.59375 C 38.082031 -2.742188 40.878906 0.226562 44.933594 0.226562 C 50.242188 0.226562 52.925781 -5.996094 55.324219 -12.105469 C 55.4375 -12.390625 55.496094 -12.675781 55.496094 -12.902344 C 55.496094 -13.875 54.808594 -14.5 54.066406 -14.5 C 53.496094 -14.5 52.925781 -14.160156 52.582031 -13.304688 Z M 52.582031 -13.304688"/></g><clipPath id="d"><path d="M 1 0 L 174 0 L 174 183.242188 L 1 183.242188 Z M 1 0"/></clipPath><clipPath id="c"><path d="M0 0H175V184H0z"/></clipPath><filter x="0%" y="0%" width="100%" xmlns:xlink="http://www.w3.org/1999/xlink" xlink:type="simple" xlink:actuate="onLoad" height="100%" id="a" xlink:show="other"><feColorMatrix values="0 0 0 0 1 0 0 0 0 1 0 0 0 0 1 0 0 0 1 0" color-interpolation-filters="sRGB"/></filter><mask id="b"><g filter="url(#a)"><path fill-opacity=".129" d="M-112.5 -22.5H1237.5V247.5H-112.5z"/></g></mask></defs><g mask="url(#b)"><g><g clip-path="url(#c)" transform="translate(483)"><path fill="#2D5576" d="M 124.300781 130.453125 L 127.726562 130.453125 L 127.726562 126.296875 L 124.300781 126.296875 Z M 68.597656 97.472656 L 68.597656 92.90625 C 68.597656 92.410156 68.480469 91.945312 68.28125 91.527344 C 66.8125 88.488281 62.285156 89.5625 62.285156 92.90625 L 62.285156 97.472656 Z M 78.800781 91.527344 C 77.652344 89.148438 74.277344 89.136719 73.121094 91.527344 C 72.722656 92.359375 72.808594 92.464844 72.808594 97.472656 L 79.117188 97.472656 C 79.117188 92.472656 79.210938 92.378906 78.800781 91.527344 Z M 87.148438 89.808594 C 86.929688 89.761719 86.710938 89.734375 86.480469 89.734375 C 86.253906 89.734375 86.03125 89.761719 85.816406 89.808594 C 84.855469 90.015625 84.0625 90.660156 83.644531 91.527344 C 83.445312 91.945312 83.328125 92.410156 83.328125 92.90625 L 83.328125 97.472656 L 89.640625 97.472656 L 89.640625 92.90625 C 89.640625 92.410156 89.523438 91.945312 89.320312 91.527344 C 88.902344 90.660156 88.105469 90.015625 87.148438 89.808594 Z M 82.328125 132.609375 L 84.039062 132.609375 L 84.039062 118.320312 L 66.636719 118.320312 L 66.636719 132.609375 L 70.0625 132.609375 L 70.0625 121.757812 L 80.617188 121.757812 L 80.617188 132.609375 Z M 38.554688 157.386719 C 34.550781 157.386719 31.296875 160.660156 31.296875 164.675781 L 31.296875 179.820312 L 34.71875 179.820312 L 34.71875 164.675781 C 34.71875 162.554688 36.441406 160.824219 38.554688 160.824219 C 40.667969 160.824219 42.386719 162.554688 42.386719 164.675781 L 42.386719 179.820312 L 45.8125 179.820312 L 45.8125 164.675781 C 45.8125 160.660156 42.554688 157.386719 38.554688 157.386719 Z M 146.65625 157.386719 C 142.65625 157.386719 139.402344 160.660156 139.402344 164.675781 L 139.402344 179.820312 L 142.824219 179.820312 L 142.824219 164.675781 C 142.824219 162.554688 144.546875 160.824219 146.65625 160.824219 C 148.773438 160.824219 150.492188 162.554688 150.492188 164.675781 L 150.492188 179.820312 L 153.914062 179.820312 L 153.914062 164.675781 C 153.914062 160.660156 150.660156 157.386719 146.65625 157.386719 Z M 75.335938 157.386719 C 70.648438 157.386719 66.628906 160.320312 64.996094 164.449219 C 64.492188 165.722656 64.210938 167.109375 64.210938 168.5625 L 64.210938 179.820312 L 67.636719 179.820312 L 67.636719 168.5625 C 67.636719 164.296875 71.089844 160.824219 75.335938 160.824219 C 79.585938 160.824219 83.039062 164.296875 83.039062 168.5625 L 83.039062 179.820312 L 86.464844 179.820312 L 86.464844 168.5625 C 86.464844 162.402344 81.472656 157.386719 75.335938 157.386719 Z M 18.992188 139.820312 L 18.992188 141.152344 L 22.417969 141.152344 L 22.417969 136.996094 L 18.992188 136.996094 Z M 18.992188 131.808594 L 22.417969 131.808594 L 22.417969 127.65625 L 18.992188 127.65625 Z M 98.589844 109.078125 L 98.589844 113.230469 L 102.011719 113.230469 L 102.011719 109.078125 Z M 48.660156 109.078125 L 48.660156 113.230469 L 52.089844 113.230469 L 52.089844 109.078125 Z M 149.941406 141.152344 L 146.519531 141.152344 L 146.519531 145.304688 L 149.941406 145.304688 Z M 149.941406 130.59375 L 146.519531 130.59375 L 146.519531 134.75 L 149.941406 134.75 Z M 18.992188 93.605469 L 22.417969 93.605469 L 22.417969 89.453125 L 18.992188 89.453125 Z M 100.300781 80.867188 C 100.34375 80.867188 100.382812 80.875 100.425781 80.878906 L 100.425781 79.140625 L 97.003906 79.140625 L 97.003906 83.296875 L 98.082031 83.296875 L 98.75 81.859375 C 99.03125 81.253906 99.636719 80.867188 100.300781 80.867188 Z M 100.425781 45.089844 L 97.003906 45.089844 L 97.003906 40.933594 L 100.425781 40.933594 L 100.425781 45.089844"/><path fill="#EF3044" d="M 124.015625 13.40625 L 110.992188 11.878906 C 111.492188 11.1875 111.683594 10.296875 111.488281 9.429688 C 111.226562 8.265625 110.296875 7.363281 109.125 7.136719 L 100.710938 5.507812 L 100.710938 9.011719 L 107.707031 10.363281 C 107.148438 11.09375 106.949219 12.050781 107.195312 12.976562 C 107.519531 14.179688 108.519531 15.054688 109.753906 15.199219 L 123.621094 16.824219 C 123.6875 16.832031 123.753906 16.835938 123.820312 16.835938 C 124.675781 16.835938 125.417969 16.191406 125.519531 15.316406 C 125.628906 14.371094 124.957031 13.515625 124.015625 13.40625 Z M 153.136719 54.171875 L 140.105469 52.648438 C 140.605469 51.953125 140.800781 51.0625 140.605469 50.199219 C 140.339844 49.027344 139.410156 48.128906 138.238281 47.902344 L 129.828125 46.277344 L 129.828125 49.773438 L 136.824219 51.128906 C 136.265625 51.859375 136.066406 52.816406 136.3125 53.746094 C 136.632812 54.945312 137.636719 55.820312 138.867188 55.960938 L 152.738281 57.585938 C 152.808594 57.597656 152.875 57.601562 152.9375 57.601562 C 153.796875 57.601562 154.535156 56.953125 154.636719 56.082031 C 154.746094 55.136719 154.074219 54.28125 153.136719 54.171875 Z M 47.222656 53.476562 C 47.125 54.351562 46.382812 54.996094 45.527344 54.996094 C 45.460938 54.996094 45.394531 54.992188 45.328125 54.984375 L 31.457031 53.359375 C 30.226562 53.214844 29.222656 52.34375 28.902344 51.136719 C 28.65625 50.210938 28.855469 49.257812 29.414062 48.523438 L 22.417969 47.171875 L 22.417969 43.671875 L 30.828125 45.296875 C 32 45.523438 32.929688 46.425781 33.195312 47.589844 C 33.390625 48.457031 33.199219 49.347656 32.695312 50.042969 L 45.722656 51.570312 C 46.664062 51.679688 47.335938 52.535156 47.222656 53.476562"/><g clip-path="url(#d)"><path fill="#036" d="M 88.445312 73.242188 L 90.726562 73.242188 L 90.726562 77.050781 L 87.636719 73.15625 C 87.898438 73.214844 88.167969 73.242188 88.445312 73.242188 Z M 102.011719 169.96875 L 116.414062 155.503906 L 118.027344 155.503906 L 118.027344 179.820312 L 102.011719 179.820312 Z M 47.238281 110.328125 L 47.238281 100.78125 L 53.511719 100.78125 L 53.511719 135.277344 L 47.238281 135.277344 Z M 43.8125 104.476562 L 43.8125 106.894531 L 41.890625 106.894531 Z M 103.277344 84.914062 L 101.851562 81.859375 C 101.585938 81.292969 101.039062 80.925781 100.425781 80.878906 C 100.382812 80.875 100.34375 80.867188 100.300781 80.867188 C 99.636719 80.867188 99.03125 81.253906 98.75 81.859375 L 98.082031 83.296875 L 97.1875 85.195312 L 94.148438 81.367188 L 94.148438 73.242188 L 103.277344 73.242188 Z M 134 137.113281 L 137.136719 137.113281 C 138.085938 137.113281 138.847656 136.34375 138.847656 135.394531 L 138.847656 121.355469 C 138.847656 120.40625 138.085938 119.632812 137.136719 119.632812 L 134.792969 119.632812 L 133.984375 117.929688 L 158.5 117.929688 L 158.5 152.066406 L 134 152.066406 Z M 102.011719 147.027344 L 105.152344 147.027344 C 106.097656 147.027344 106.859375 146.257812 106.859375 145.308594 C 106.859375 144.359375 106.097656 143.585938 105.152344 143.585938 L 102.011719 143.585938 L 102.011719 138.714844 L 105.152344 138.714844 C 106.097656 138.714844 106.859375 137.945312 106.859375 136.996094 L 106.859375 117.929688 L 118.039062 117.929688 L 117.230469 119.632812 L 114.882812 119.632812 C 113.941406 119.632812 113.175781 120.40625 113.175781 121.355469 L 113.175781 135.394531 C 113.175781 136.34375 113.941406 137.113281 114.882812 137.113281 L 118.027344 137.113281 L 118.027344 152.066406 L 115.707031 152.066406 C 115.253906 152.066406 114.816406 152.25 114.492188 152.570312 L 102.011719 165.109375 Z M 84.039062 136.046875 L 86.925781 136.046875 L 86.925781 143.585938 L 84.039062 143.585938 Z M 77.050781 136.046875 L 80.617188 136.046875 L 80.617188 143.585938 L 77.050781 143.585938 Z M 70.0625 136.046875 L 73.625 136.046875 L 73.625 143.585938 L 70.0625 143.585938 Z M 66.636719 143.585938 L 63.746094 143.585938 L 63.746094 136.046875 L 66.636719 136.046875 Z M 52.089844 139.820312 L 52.089844 138.714844 L 55.226562 138.714844 C 56.171875 138.714844 56.9375 137.945312 56.9375 136.996094 L 56.9375 110.796875 L 93.738281 110.796875 L 93.738281 136.996094 C 93.738281 137.945312 94.503906 138.714844 95.453125 138.714844 L 98.589844 138.714844 L 98.589844 143.585938 L 90.351562 143.585938 L 90.351562 134.328125 C 90.351562 133.378906 89.582031 132.609375 88.640625 132.609375 L 62.039062 132.609375 C 61.875 132.609375 61.71875 132.636719 61.570312 132.679688 C 60.855469 132.882812 60.324219 133.539062 60.324219 134.328125 L 60.324219 143.585938 L 52.089844 143.585938 Z M 103.128906 92.679688 L 103.351562 93.15625 L 103.394531 93.246094 L 105.066406 96.828125 L 105.308594 97.34375 L 95.292969 97.34375 L 95.535156 96.828125 L 97.207031 93.246094 L 97.25 93.15625 L 97.945312 91.664062 L 98.011719 91.527344 L 98.054688 91.4375 L 98.757812 89.929688 L 98.816406 89.808594 L 98.859375 89.71875 L 99.570312 88.195312 L 100.300781 86.632812 L 101.742188 89.71875 L 101.785156 89.808594 L 102.546875 91.4375 L 102.589844 91.527344 Z M 106.859375 102.898438 L 110.03125 106.894531 L 106.859375 106.894531 Z M 97.160156 107.359375 L 97.160156 100.78125 L 103.4375 100.78125 L 103.4375 135.277344 L 97.160156 135.277344 Z M 118.027344 123.074219 L 135.425781 123.074219 L 135.425781 133.675781 L 116.597656 133.675781 L 116.597656 123.074219 Z M 122.652344 116.210938 L 123.46875 114.492188 L 126.011719 109.140625 L 128.558594 114.492188 L 130.191406 117.929688 L 131 119.632812 L 121.023438 119.632812 L 121.832031 117.929688 Z M 130.574219 179.820312 L 121.449219 179.820312 L 121.449219 137.113281 L 130.574219 137.113281 Z M 121.839844 93.246094 L 138.035156 93.246094 L 156.453125 114.492188 L 132.347656 114.492188 L 127.554688 104.410156 C 127.273438 103.8125 126.671875 103.433594 126.011719 103.433594 C 125.355469 103.433594 124.75 103.8125 124.464844 104.410156 L 119.671875 114.492188 L 106.859375 114.492188 L 106.859375 110.328125 L 113.585938 110.328125 C 114.242188 110.328125 114.839844 109.953125 115.125 109.359375 C 115.414062 108.765625 115.332031 108.058594 114.921875 107.542969 L 109.183594 100.308594 C 109.285156 100.214844 109.375 100.105469 109.449219 99.984375 C 109.761719 99.488281 109.800781 98.863281 109.554688 98.332031 L 107.175781 93.246094 Z M 123.550781 84.878906 L 132.679688 84.878906 L 132.679688 89.808594 L 123.550781 89.808594 Z M 133.105469 81.441406 L 123.125 81.441406 L 128.117188 70.945312 Z M 94.148438 51.75 L 103.277344 51.75 L 103.277344 59.488281 L 94.148438 59.488281 Z M 98.714844 23.777344 L 103.703125 34.273438 L 93.726562 34.273438 Z M 89.300781 37.710938 L 108.128906 37.710938 L 108.128906 48.3125 L 89.300781 48.3125 Z M 87.730469 63.640625 C 87.730469 63.246094 88.050781 62.925781 88.445312 62.925781 L 108.984375 62.925781 C 109.375 62.925781 109.699219 63.246094 109.699219 63.640625 L 109.699219 69.085938 C 109.699219 69.480469 109.375 69.800781 108.984375 69.800781 L 88.445312 69.800781 C 88.050781 69.800781 87.730469 69.480469 87.730469 69.085938 Z M 75.960938 63.964844 L 90.726562 82.566406 L 94.148438 86.878906 L 95.566406 88.667969 L 95.074219 89.71875 L 95.03125 89.808594 L 94.273438 91.4375 L 94.230469 91.527344 L 93.46875 93.15625 L 93.425781 93.246094 L 91.050781 98.332031 C 90.800781 98.863281 90.839844 99.488281 91.152344 99.984375 C 91.46875 100.480469 92.011719 100.78125 92.597656 100.78125 L 93.738281 100.78125 L 93.738281 106.894531 L 56.9375 106.894531 L 56.9375 100.78125 L 58.078125 100.78125 C 58.664062 100.78125 59.207031 100.480469 59.523438 99.984375 C 59.835938 99.488281 59.875 98.863281 59.628906 98.332031 L 55.570312 89.65625 Z M 52.378906 90.917969 L 53.191406 92.65625 L 55.140625 96.828125 L 55.382812 97.34375 L 45.367188 97.34375 L 45.605469 96.828125 L 45.757812 96.503906 L 50.375 86.632812 L 51.570312 89.183594 Z M 16.140625 100.265625 L 25.269531 100.265625 L 25.269531 108 L 16.140625 108 Z M 25.691406 82.789062 L 15.714844 82.789062 L 20.703125 72.292969 Z M 11.289062 86.226562 L 30.117188 86.226562 L 30.117188 96.828125 L 11.289062 96.828125 Z M 9.722656 117.601562 L 9.722656 112.160156 C 9.722656 111.761719 10.039062 111.441406 10.433594 111.441406 L 30.972656 111.441406 C 31.367188 111.441406 31.6875 111.761719 31.6875 112.160156 L 31.6875 117.601562 C 31.6875 117.996094 31.367188 118.320312 30.972656 118.320312 L 10.433594 118.320312 C 10.039062 118.320312 9.722656 117.996094 9.722656 117.601562 Z M 22.414062 179.820312 L 16.140625 179.820312 L 16.140625 121.757812 L 25.269531 121.757812 L 25.269531 179.820312 Z M 34.71875 179.820312 L 28.691406 179.820312 L 28.691406 141.535156 L 48.660156 141.535156 L 48.660156 143.585938 L 45.527344 143.585938 C 44.578125 143.585938 43.8125 144.359375 43.8125 145.308594 C 43.8125 146.257812 44.578125 147.027344 45.527344 147.027344 L 48.660156 147.027344 L 48.660156 179.820312 Z M 67.632812 179.820312 L 52.085938 179.820312 L 52.085938 147.027344 L 98.585938 147.027344 L 98.585938 179.820312 Z M 142.824219 179.820312 L 134 179.820312 L 134 155.503906 L 158.496094 155.503906 L 158.496094 179.820312 Z M 172.222656 179.820312 L 161.921875 179.820312 L 161.921875 116.210938 C 161.921875 116.097656 161.90625 115.992188 161.886719 115.882812 C 161.878906 115.839844 161.867188 115.804688 161.855469 115.761719 C 161.839844 115.699219 161.820312 115.636719 161.796875 115.578125 C 161.78125 115.53125 161.757812 115.492188 161.734375 115.445312 C 161.707031 115.394531 161.683594 115.339844 161.652344 115.292969 C 161.628906 115.25 161.597656 115.214844 161.566406 115.175781 C 161.542969 115.144531 161.523438 115.109375 161.5 115.082031 L 140.105469 90.398438 C 139.78125 90.023438 139.308594 89.808594 138.8125 89.808594 L 136.101562 89.808594 L 136.101562 84.851562 C 136.578125 84.769531 137.003906 84.492188 137.265625 84.074219 C 137.578125 83.574219 137.617188 82.953125 137.359375 82.417969 L 129.828125 66.566406 L 129.828125 42.480469 C 129.828125 41.535156 129.0625 40.765625 128.113281 40.765625 C 127.171875 40.765625 126.402344 41.535156 126.402344 42.480469 L 126.402344 66.566406 L 118.867188 82.417969 C 118.613281 82.953125 118.648438 83.574219 118.964844 84.074219 C 119.226562 84.492188 119.652344 84.769531 120.128906 84.851562 L 120.128906 89.808594 L 106.699219 89.808594 L 106.699219 73.242188 L 108.984375 73.242188 C 111.265625 73.242188 113.121094 71.378906 113.121094 69.085938 L 113.121094 63.640625 C 113.121094 61.351562 111.265625 59.488281 108.984375 59.488281 L 106.699219 59.488281 L 106.699219 51.75 L 109.839844 51.75 C 110.785156 51.75 111.546875 50.980469 111.546875 50.03125 L 111.546875 35.992188 C 111.546875 35.042969 110.785156 34.273438 109.839844 34.273438 L 107.496094 34.273438 L 100.710938 20 L 100.710938 1.71875 C 100.710938 0.769531 99.941406 0 99 0 C 98.050781 0 97.285156 0.769531 97.285156 1.71875 L 97.285156 18.839844 C 97.242188 18.90625 97.203125 18.976562 97.167969 19.046875 L 89.929688 34.273438 L 87.585938 34.273438 C 86.640625 34.273438 85.875 35.042969 85.875 35.992188 L 85.875 50.03125 C 85.875 50.980469 86.640625 51.75 87.585938 51.75 L 90.726562 51.75 L 90.726562 59.488281 L 88.441406 59.488281 C 86.160156 59.488281 84.304688 61.351562 84.304688 63.640625 L 84.304688 68.960938 L 77.296875 60.132812 C 76.972656 59.722656 76.484375 59.488281 75.960938 59.488281 C 75.441406 59.488281 74.949219 59.722656 74.621094 60.132812 L 53.945312 86.1875 L 51.925781 81.859375 C 51.640625 81.253906 51.039062 80.867188 50.375 80.867188 C 49.710938 80.867188 49.105469 81.253906 48.824219 81.859375 L 41.121094 98.332031 C 40.875 98.863281 40.914062 99.488281 41.226562 99.984375 C 41.488281 100.402344 41.910156 100.675781 42.386719 100.753906 L 36.996094 107.542969 C 36.589844 108.058594 36.511719 108.765625 36.792969 109.359375 C 37.082031 109.953125 37.683594 110.328125 38.339844 110.328125 L 43.8125 110.328125 L 43.8125 136.996094 C 43.8125 137.417969 43.972656 137.800781 44.21875 138.101562 L 28.691406 138.101562 L 28.691406 121.757812 L 30.972656 121.757812 C 33.253906 121.757812 35.109375 119.890625 35.109375 117.601562 L 35.109375 112.160156 C 35.109375 109.863281 33.253906 108 30.972656 108 L 28.691406 108 L 28.691406 100.265625 L 31.828125 100.265625 C 32.777344 100.265625 33.542969 99.5 33.542969 98.546875 L 33.542969 84.507812 C 33.542969 83.558594 32.777344 82.789062 31.828125 82.789062 L 29.488281 82.789062 L 22.414062 67.917969 L 22.414062 39.878906 C 22.414062 38.933594 21.648438 38.160156 20.703125 38.160156 C 19.757812 38.160156 18.992188 38.933594 18.992188 39.878906 L 18.992188 67.917969 L 11.921875 82.789062 L 9.578125 82.789062 C 8.632812 82.789062 7.867188 83.558594 7.867188 84.507812 L 7.867188 98.546875 C 7.867188 99.5 8.632812 100.265625 9.578125 100.265625 L 12.714844 100.265625 L 12.714844 108 L 10.433594 108 C 8.152344 108 6.296875 109.863281 6.296875 112.160156 L 6.296875 117.601562 C 6.296875 119.890625 8.152344 121.757812 10.433594 121.757812 L 12.714844 121.757812 L 12.714844 179.820312 L 2.875 179.820312 C 1.929688 179.820312 1.160156 180.589844 1.160156 181.539062 C 1.160156 182.488281 1.929688 183.257812 2.875 183.257812 L 172.222656 183.257812 C 173.167969 183.257812 173.933594 182.488281 173.933594 181.539062 C 173.933594 180.589844 173.167969 179.820312 172.222656 179.820312"/></g></g></g></g><g fill="#036"><use x="346.646" y="153.383" xmlns:xlink="http://www.w3.org/1999/xlink" xlink:href="#e" xlink:type="simple" xlink:actuate="onLoad" xlink:show="embed"/></g><g fill="#036"><use x="389.221" y="153.383" xmlns:xlink="http://www.w3.org/1999/xlink" xlink:href="#f" xlink:type="simple" xlink:actuate="onLoad" xlink:show="embed"/></g><g fill="#036"><use x="401.776" y="153.383" xmlns:xlink="http://www.w3.org/1999/xlink" xlink:href="#g" xlink:type="simple" xlink:actuate="onLoad" xlink:show="embed"/></g><g fill="#036"><use x="420.838" y="153.383" xmlns:xlink="http://www.w3.org/1999/xlink" xlink:href="#h" xlink:type="simple" xlink:actuate="onLoad" xlink:show="embed"/></g><g fill="#036"><use x="444.522" y="153.383" xmlns:xlink="http://www.w3.org/1999/xlink" xlink:href="#i" xlink:type="simple" xlink:actuate="onLoad" xlink:show="embed"/></g><g fill="#036"><use x="466.323" y="153.383" xmlns:xlink="http://www.w3.org/1999/xlink" xlink:href="#j" xlink:type="simple" xlink:actuate="onLoad" xlink:show="embed"/></g><g fill="#036"><use x="489.723" y="153.383" xmlns:xlink="http://www.w3.org/1999/xlink" xlink:href="#k" xlink:type="simple" xlink:actuate="onLoad" xlink:show="embed"/></g><g fill="#036"><use x="500.851" y="153.383" xmlns:xlink="http://www.w3.org/1999/xlink" xlink:href="#l" xlink:type="simple" xlink:actuate="onLoad" xlink:show="embed"/></g><g fill="#036"><use x="565.684" y="153.383" xmlns:xlink="http://www.w3.org/1999/xlink" xlink:href="#m" xlink:type="simple" xlink:actuate="onLoad" xlink:show="embed"/></g><g fill="#036"><use x="588.569" y="153.383" xmlns:xlink="http://www.w3.org/1999/xlink" xlink:href="#n" xlink:type="simple" xlink:actuate="onLoad" xlink:show="embed"/></g><g fill="#036"><use x="610.656" y="153.383" xmlns:xlink="http://www.w3.org/1999/xlink" xlink:href="#f" xlink:type="simple" xlink:actuate="onLoad" xlink:show="embed"/></g><g fill="#036"><use x="623.211" y="153.383" xmlns:xlink="http://www.w3.org/1999/xlink" xlink:href="#i" xlink:type="simple" xlink:actuate="onLoad" xlink:show="embed"/></g><g fill="#036"><use x="645.012" y="153.383" xmlns:xlink="http://www.w3.org/1999/xlink" xlink:href="#g" xlink:type="simple" xlink:actuate="onLoad" xlink:show="embed"/></g><g fill="#036"><use x="664.074" y="153.383" xmlns:xlink="http://www.w3.org/1999/xlink" xlink:href="#o" xlink:type="simple" xlink:actuate="onLoad" xlink:show="embed"/></g><g fill="#036"><use x="671.779" y="153.383" xmlns:xlink="http://www.w3.org/1999/xlink" xlink:href="#k" xlink:type="simple" xlink:actuate="onLoad" xlink:show="embed"/></g><g fill="#036"><use x="682.908" y="153.383" xmlns:xlink="http://www.w3.org/1999/xlink" xlink:href="#p" xlink:type="simple" xlink:actuate="onLoad" xlink:show="embed"/></g><g fill="#036"><use x="733.586" y="153.383" xmlns:xlink="http://www.w3.org/1999/xlink" xlink:href="#m" xlink:type="simple" xlink:actuate="onLoad" xlink:show="embed"/></g><g fill="#036"><use x="756.472" y="153.383" xmlns:xlink="http://www.w3.org/1999/xlink" xlink:href="#g" xlink:type="simple" xlink:actuate="onLoad" xlink:show="embed"/></g><g fill="#036"><use x="775.534" y="153.383" xmlns:xlink="http://www.w3.org/1999/xlink" xlink:href="#g" xlink:type="simple" xlink:actuate="onLoad" xlink:show="embed"/></g><g fill="#036"><use x="274.305" y="213.893" xmlns:xlink="http://www.w3.org/1999/xlink" xlink:href="#q" xlink:type="simple" xlink:actuate="onLoad" xlink:show="embed"/></g><g fill="#036"><use x="298.719" y="213.893" xmlns:xlink="http://www.w3.org/1999/xlink" xlink:href="#r" xlink:type="simple" xlink:actuate="onLoad" xlink:show="embed"/></g><g fill="#036"><use x="312.792" y="213.893" xmlns:xlink="http://www.w3.org/1999/xlink" xlink:href="#s" xlink:type="simple" xlink:actuate="onLoad" xlink:show="embed"/></g><g fill="#036"><use x="327.606" y="213.893" xmlns:xlink="http://www.w3.org/1999/xlink" xlink:href="#t" xlink:type="simple" xlink:actuate="onLoad" xlink:show="embed"/></g><g fill="#036"><use x="338.317" y="213.893" xmlns:xlink="http://www.w3.org/1999/xlink" xlink:href="#u" xlink:type="simple" xlink:actuate="onLoad" xlink:show="embed"/></g><g fill="#036"><use x="347.319" y="213.893" xmlns:xlink="http://www.w3.org/1999/xlink" xlink:href="#v" xlink:type="simple" xlink:actuate="onLoad" xlink:show="embed"/></g><g fill="#036"><use x="357.575" y="213.893" xmlns:xlink="http://www.w3.org/1999/xlink" xlink:href="#w" xlink:type="simple" xlink:actuate="onLoad" xlink:show="embed"/></g><g fill="#036"><use x="373.328" y="213.893" xmlns:xlink="http://www.w3.org/1999/xlink" xlink:href="#s" xlink:type="simple" xlink:actuate="onLoad" xlink:show="embed"/></g><g fill="#036"><use x="388.142" y="213.893" xmlns:xlink="http://www.w3.org/1999/xlink" xlink:href="#u" xlink:type="simple" xlink:actuate="onLoad" xlink:show="embed"/></g><g fill="#036"><use x="397.144" y="213.893" xmlns:xlink="http://www.w3.org/1999/xlink" xlink:href="#x" xlink:type="simple" xlink:actuate="onLoad" xlink:show="embed"/></g><g fill="#036"><use x="412.67" y="213.893" xmlns:xlink="http://www.w3.org/1999/xlink" xlink:href="#y" xlink:type="simple" xlink:actuate="onLoad" xlink:show="embed"/></g><g fill="#036"><use x="430.446" y="213.893" xmlns:xlink="http://www.w3.org/1999/xlink" xlink:href="#v" xlink:type="simple" xlink:actuate="onLoad" xlink:show="embed"/></g><g fill="#036"><use x="440.702" y="213.893" xmlns:xlink="http://www.w3.org/1999/xlink" xlink:href="#w" xlink:type="simple" xlink:actuate="onLoad" xlink:show="embed"/></g><g fill="#036"><use x="456.456" y="213.893" xmlns:xlink="http://www.w3.org/1999/xlink" xlink:href="#u" xlink:type="simple" xlink:actuate="onLoad" xlink:show="embed"/></g><g fill="#036"><use x="465.458" y="213.893" xmlns:xlink="http://www.w3.org/1999/xlink" xlink:href="#z" xlink:type="simple" xlink:actuate="onLoad" xlink:show="embed"/></g><g fill="#036"><use x="485.228" y="213.893" xmlns:xlink="http://www.w3.org/1999/xlink" xlink:href="#s" xlink:type="simple" xlink:actuate="onLoad" xlink:show="embed"/></g><g fill="#036"><use x="500.042" y="213.893" xmlns:xlink="http://www.w3.org/1999/xlink" xlink:href="#A" xlink:type="simple" xlink:actuate="onLoad" xlink:show="embed"/></g><g fill="#036"><use x="515.796" y="213.893" xmlns:xlink="http://www.w3.org/1999/xlink" xlink:href="#v" xlink:type="simple" xlink:actuate="onLoad" xlink:show="embed"/></g><g fill="#036"><use x="526.051" y="213.893" xmlns:xlink="http://www.w3.org/1999/xlink" xlink:href="#B" xlink:type="simple" xlink:actuate="onLoad" xlink:show="embed"/></g><g fill="#036"><use x="541.634" y="213.893" xmlns:xlink="http://www.w3.org/1999/xlink" xlink:href="#t" xlink:type="simple" xlink:actuate="onLoad" xlink:show="embed"/></g><g fill="#036"><use x="552.346" y="213.893" xmlns:xlink="http://www.w3.org/1999/xlink" xlink:href="#C" xlink:type="simple" xlink:actuate="onLoad" xlink:show="embed"/></g><g fill="#036"><use x="566.418" y="213.893" xmlns:xlink="http://www.w3.org/1999/xlink" xlink:href="#u" xlink:type="simple" xlink:actuate="onLoad" xlink:show="embed"/></g><g fill="#036"><use x="575.421" y="213.893" xmlns:xlink="http://www.w3.org/1999/xlink" xlink:href="#D" xlink:type="simple" xlink:actuate="onLoad" xlink:show="embed"/></g><g fill="#036"><use x="592.143" y="213.893" xmlns:xlink="http://www.w3.org/1999/xlink" xlink:href="#A" xlink:type="simple" xlink:actuate="onLoad" xlink:show="embed"/></g><g fill="#036"><use x="607.897" y="213.893" xmlns:xlink="http://www.w3.org/1999/xlink" xlink:href="#E" xlink:type="simple" xlink:actuate="onLoad" xlink:show="embed"/></g><g fill="#036"><use x="624.79" y="213.893" xmlns:xlink="http://www.w3.org/1999/xlink" xlink:href="#u" xlink:type="simple" xlink:actuate="onLoad" xlink:show="embed"/></g><g fill="#036"><use x="633.792" y="213.893" xmlns:xlink="http://www.w3.org/1999/xlink" xlink:href="#F" xlink:type="simple" xlink:actuate="onLoad" xlink:show="embed"/></g><g fill="#036"><use x="652.394" y="213.893" xmlns:xlink="http://www.w3.org/1999/xlink" xlink:href="#D" xlink:type="simple" xlink:actuate="onLoad" xlink:show="embed"/></g><g fill="#036"><use x="669.117" y="213.893" xmlns:xlink="http://www.w3.org/1999/xlink" xlink:href="#t" xlink:type="simple" xlink:actuate="onLoad" xlink:show="embed"/></g><g fill="#036"><use x="679.828" y="213.893" xmlns:xlink="http://www.w3.org/1999/xlink" xlink:href="#G" xlink:type="simple" xlink:actuate="onLoad" xlink:show="embed"/></g><g fill="#036"><use x="687.092" y="213.893" xmlns:xlink="http://www.w3.org/1999/xlink" xlink:href="#C" xlink:type="simple" xlink:actuate="onLoad" xlink:show="embed"/></g><g fill="#036"><use x="701.165" y="213.893" xmlns:xlink="http://www.w3.org/1999/xlink" xlink:href="#u" xlink:type="simple" xlink:actuate="onLoad" xlink:show="embed"/></g><g fill="#036"><use x="710.168" y="213.893" xmlns:xlink="http://www.w3.org/1999/xlink" xlink:href="#x" xlink:type="simple" xlink:actuate="onLoad" xlink:show="embed"/></g><g fill="#036"><use x="725.693" y="213.893" xmlns:xlink="http://www.w3.org/1999/xlink" xlink:href="#H" xlink:type="simple" xlink:actuate="onLoad" xlink:show="embed"/></g><g fill="#036"><use x="735.094" y="213.893" xmlns:xlink="http://www.w3.org/1999/xlink" xlink:href="#I" xlink:type="simple" xlink:actuate="onLoad" xlink:show="embed"/></g><g fill="#036"><use x="746.717" y="213.893" xmlns:xlink="http://www.w3.org/1999/xlink" xlink:href="#v" xlink:type="simple" xlink:actuate="onLoad" xlink:show="embed"/></g><g fill="#036"><use x="756.973" y="213.893" xmlns:xlink="http://www.w3.org/1999/xlink" xlink:href="#u" xlink:type="simple" xlink:actuate="onLoad" xlink:show="embed"/></g><g fill="#036"><use x="765.975" y="213.893" xmlns:xlink="http://www.w3.org/1999/xlink" xlink:href="#z" xlink:type="simple" xlink:actuate="onLoad" xlink:show="embed"/></g><g fill="#036"><use x="785.746" y="213.893" xmlns:xlink="http://www.w3.org/1999/xlink" xlink:href="#s" xlink:type="simple" xlink:actuate="onLoad" xlink:show="embed"/></g><g fill="#036"><use x="800.559" y="213.893" xmlns:xlink="http://www.w3.org/1999/xlink" xlink:href="#A" xlink:type="simple" xlink:actuate="onLoad" xlink:show="embed"/></g><g fill="#036"><use x="816.313" y="213.893" xmlns:xlink="http://www.w3.org/1999/xlink" xlink:href="#v" xlink:type="simple" xlink:actuate="onLoad" xlink:show="embed"/></g><g fill="#036"><use x="826.568" y="213.893" xmlns:xlink="http://www.w3.org/1999/xlink" xlink:href="#B" xlink:type="simple" xlink:actuate="onLoad" xlink:show="embed"/></g><g fill="#036"><use x="842.151" y="213.893" xmlns:xlink="http://www.w3.org/1999/xlink" xlink:href="#t" xlink:type="simple" xlink:actuate="onLoad" xlink:show="embed"/></g><g fill="#036"><use x="852.863" y="213.893" xmlns:xlink="http://www.w3.org/1999/xlink" xlink:href="#C" xlink:type="simple" xlink:actuate="onLoad" xlink:show="embed"/></g></svg>