<?xml version="1.0" encoding="UTF-8" standalone="no"?>
<!-- Created with Inkscape (http://www.inkscape.org/) -->
<!DOCTYPE svg PUBLIC "-//W3C//DTD SVG 1.1//EN" "http://www.w3.org/Graphics/SVG/1.1/DTD/svg11.dtd">
<svg
   xmlns:svg="http://www.w3.org/2000/svg"
   xmlns="http://www.w3.org/2000/svg"
   version="1.1"
   width="653"
   height="87"
   id="svg2">
  <defs
     id="defs4" />
  <g
     transform="translate(59.320687,-627.50473)"
     id="layer1">
    <g
       id="g2903">
      <path
         d="m -59.320687,627.50473 652.999997,0 0,87 -652.999997,0 z"
         id="path2838"
         style="fill:#231f20;fill-opacity:1;fill-rule:evenodd;stroke-width:0;stroke-linecap:butt;stroke-linejoin:miter;stroke-miterlimit:2.61310005" />
      <path
         d="m 314.38492,640.72416 c 14.93724,0 26.4177,14.63523 26.4177,30.70298 0,16.08407 -10.61931,27.85022 -26.4177,27.85022 -16.06776,0 -27.26253,-13.79042 -27.26253,-30.43363 0.28974,-16.92889 12.34158,-28.11957 27.26253,-28.11957 z m -110.78258,6.30955 c 0,3.73431 -3.15682,6.88909 -6.88706,10.33364 -4.87829,-4.88114 -7.46128,-6.59933 -7.46128,-11.76615 0,-3.73023 3.44374,-6.59933 6.88705,-6.59933 3.73064,0 7.46129,2.58341 7.46129,8.03184 z m -8.89582,22.67116 c 7.17395,6.88909 14.63481,14.06387 21.80878,20.94888 -1.72146,2.88542 -3.73023,5.18315 -6.02592,6.90133 -2.86991,2.29773 -6.31322,3.44456 -9.46964,3.73024 -3.73065,0.28977 -7.17436,-0.85706 -10.33078,-3.73024 -3.15642,-2.86909 -5.45212,-6.61564 -5.45212,-10.34588 0,-4.3016 0.86075,-7.46046 2.58261,-10.04387 1.72187,-2.57934 4.01754,-4.87706 6.88707,-7.46046 z M 178.92363,648.4703 c 0,6.02796 6.31321,12.05182 8.89582,14.63524 -8.89582,6.59933 -14.92214,14.63524 -14.92214,23.81798 0,16.08407 13.7741,22.39771 24.39178,22.39771 13.20029,0 18.93932,-7.74614 23.81759,-14.05978 2.00877,2.00795 2.29567,2.29363 4.30445,4.30568 2.5826,2.29365 9.75656,8.03184 17.79166,8.03184 4.87826,0 10.05938,0 14.93806,0 -17.23375,-8.32161 -32.15589,-21.25091 -55.11275,-43.91798 4.59137,-4.01999 9.75697,-9.4725 9.75697,-15.78614 0,-11.19069 -7.74819,-16.64321 -17.21784,-16.64321 -8.3216,0 -16.6436,6.59933 -16.6436,17.21866 z M 40.863819,634.12074 c 5.739005,0 11.191508,0 16.930514,0 -0.860734,2.87319 0,5.74228 0.860722,8.89705 l 16.069804,49.66024 c 4.304463,-14.93725 8.608924,-29.28681 13.200297,-44.20773 2.295688,-8.03591 -0.573824,-10.61933 -4.591373,-14.34956 6.026325,0 12.068563,0 18.094477,0 -0.86072,2.58342 -1.434542,5.16681 0,9.47251 l 15.49597,48.50934 c 4.30446,-14.93726 8.60893,-29.28274 12.91339,-43.91798 2.00835,-6.8891 0.28689,-10.90501 -5.73943,-14.06387 5.45211,0 12.33915,0 17.79166,0 l -22.38302,76.63708 c -6.60015,-4.88114 -10.6177,-6.59934 -13.48719,-15.21069 L 93.377658,656.50621 77.594777,710.75782 C 70.994629,705.87668 66.40327,703.58304 63.53376,695.26145 58.081244,678.02646 53.489871,663.96668 48.037776,647.03371 c -1.434952,-4.59136 -2.869509,-9.18274 -7.173957,-12.91297 z m -19.529446,12.34161 9.485571,23.53229 -18.955213,0 z m -4.017549,-12.34161 -6.599727,0 c 3.44332,2.29773 4.87827,4.88113 2.295686,10.905 l -17.504744,44.49752 c -1.148054,2.57933 -1.721878,3.73022 -3.730652,5.45249 -4.59136,3.44047 -9.756549,2.57933 -12.626053,2.57933 -10.043873,0 -16.643607,0 -18.939291,0 l 0,-50.80706 c 0,-4.01591 0,-7.17477 4.878277,-12.62728 -5.739414,0 -14.63524,0 -20.374248,0 2.566676,1.72227 4.862361,6.02796 4.862361,11.19477 0,18.65117 0,30.12755 0,48.50935 0,7.46046 -2.295685,8.89704 -4.862361,12.05182 5.149271,0 26.400164,0 44.765641,0 5.165591,0 10.330774,0 15.495971,0 -6.026325,-2.86909 -5.165197,-5.16274 -2.008776,-12.6232 1.721864,-4.88113 4.304462,-10.34588 5.739415,-14.65156 l 25.555348,0 7.460869,18.09202 c 2.582598,6.60342 2.582598,7.17478 -2.295687,9.18274 7.747781,0 15.209073,0 22.956866,0 C 56.359381,700.99964 54.924822,697.2694 51.481095,689.23349 44.020226,669.99464 37.13318,653.34735 29.3854,634.12074 z M 519.0375,705.87668 c -18.0798,0 -38.45322,0 -43.63635,0 2.59972,-3.15478 5.18313,-4.59136 5.18313,-12.05182 0,-18.3818 0,-29.85818 0,-48.50935 0,-5.16681 -2.29773,-9.4725 -5.18313,-11.19477 12.92926,0 25.84225,0 38.75522,0 l 0,12.91297 c -3.44455,-4.59136 -6.31365,-4.59136 -9.75411,-4.59136 l -13.20274,0 0,21.23864 c 3.15885,0 6.31364,0 9.47251,0 1.43251,0 5.44842,0 8.03184,-1.72227 0,4.59136 0,7.74615 0,12.33751 -2.86912,-2.5834 -4.87707,-2.5834 -8.03184,-2.5834 l -9.47251,0 0,25.84225 c 2.29774,0 6.31364,0 16.6432,0 3.44455,0 9.18274,0 16.07183,-5.16274 z m 32.99663,-71.75594 c -11.19069,0 -22.38139,0 -25.82593,0 2.58341,3.15886 4.88113,4.59137 4.88113,12.05591 0,18.65116 0,29.84185 0,48.50934 0,5.16682 -2.01205,9.47249 -4.88113,11.19069 6.02796,0 14.63524,0 20.6632,0 -4.87705,-5.44842 -4.87705,-8.60728 -4.87705,-12.33751 0,-17.23498 0,-34.16386 0,-51.09682 1.43249,0 3.73022,0 8.6236,0 6.59932,0 12.33752,4.30567 12.33752,10.61931 0,9.18275 -7.74615,13.19865 -18.66748,16.35752 6.32996,8.60728 14.07612,19.24294 20.38976,27.56453 4.30567,6.02388 8.61135,8.89297 15.49638,8.89297 3.15476,0 6.31363,0 9.46842,0 -6.02388,-2.86909 -10.32956,-6.59932 -15.20661,-13.19865 -5.73822,-7.19109 -11.19072,-14.36181 -16.93297,-21.53658 9.47249,-2.29772 16.6432,-10.04387 16.93297,-18.65524 0,-9.7541 -8.32161,-18.36547 -22.40181,-18.36547 z m -173.63943,0 c -11.48045,0 -22.38545,0 -25.83001,0 2.58341,3.15886 4.88114,4.59137 4.88114,12.05591 0,18.65116 0,29.84185 0,48.50934 0,5.16682 -2.29773,9.47249 -4.88114,11.19069 6.02795,0 14.63524,0 20.6632,0 -5.16684,-5.44842 -5.16684,-8.60728 -5.16684,-12.33751 0,-17.23498 0,-34.16386 0,-51.09682 1.72228,0 4.02001,0 8.61139,0 6.885,0 12.62318,4.30567 12.62318,10.61931 0,9.18275 -7.74613,13.19865 -18.65114,16.35752 6.31363,8.60728 14.05979,19.24294 20.08774,27.56453 4.60771,6.02388 8.91339,8.89297 15.79838,8.89297 3.15887,0 6.31366,0 9.46843,0 0,0 0,0 0,0 9.18274,0 20.66321,0 20.94888,0 23.81798,0 38.75523,-16.08407 38.75523,-35.88204 0,-20.08775 -14.64749,-35.8739 -38.46545,-35.8739 -0.57545,0 -17.50436,0 -27.26253,0 2.8691,1.72227 5.16683,6.02796 5.16683,11.19477 0,18.65117 0,30.12755 0,48.50935 0,5.4525 -1.43661,7.75023 -3.15888,9.75818 -4.01592,-2.5834 -7.46045,-6.02796 -11.19069,-10.90501 -5.7545,-7.19109 -11.4968,-14.36181 -16.94521,-21.53658 9.46841,-2.29772 16.65952,-10.04387 16.94521,-18.65524 0,-9.7541 -8.33792,-18.36547 -22.39772,-18.36547 z m 47.36252,63.43434 0,-54.82297 c 6.02796,0 11.19069,0 11.48047,0 16.64319,0 26.3973,13.7741 26.3973,28.98072 -0.28568,15.49637 -12.6232,25.84225 -26.68708,25.84225 -0.28567,0 -5.16273,0 -11.19069,0 z m -111.3723,-65.15253 c -21.81003,0 -39.31354,15.78206 -39.31354,37.30232 -0.28693,21.82634 16.35669,37.8941 39.02784,37.8941 22.97317,0 39.61638,-16.94522 39.61638,-37.8941 0,-20.65913 -17.79412,-37.30232 -39.33068,-37.30232 z"
         id="path2842"
         style="fill:white;fill-rule:evenodd;stroke-width:0;stroke-linecap:butt;stroke-linejoin:miter;stroke-miterlimit:2.61310005" />
    </g>
  </g>
</svg>
